<svg><metadata>Created by FontForge 20120731 at Thu Sep 19 15:19:36 2019 By www Copyright (C)2016 Commercial Type.</metadata><defs><font id="BWHaasTextMonoC-55Roman" horiz-adv-x="650"><font-face x-height="537" ascent="818" bbox="-56 -245 739 978" cap-height="744" descent="-182" font-family="BW Haas Text Mono C 55 Rom" font-stretch="normal" font-weight="400" panose-1="0 0 0 0 0 0 0 0 0 0" underline-position="-37" underline-thickness="68" unicode-range="U+000D-F8FF" units-per-em="1000"/><glyph glyph-name=".notdef"/><glyph glyph-name=".null" horiz-adv-x="0"/><glyph glyph-name=".null" horiz-adv-x="0"/><glyph glyph-name="nonmarkingreturn"/><glyph glyph-name="space"/><glyph d="M274 511v233h101v-233l-24 -295h-51zM271 110h109v-110h-109v110z" glyph-name="exclam" unicode="!"/><glyph d="M176 744h101v-298h-101v298zM372 744h101v-298h-101v298z" glyph-name="quotedbl" unicode="&quot;"/><glyph d="M405 439h-137l-22 -155h137zM372 203h-138l-28 -203h-75l29 203h-106l13 81h104l22 155h-104l12 80h104l27 194h74l-27 -194h138l27 194h75l-27 -194h104l-13 -80h-103l-22 -155h103l-13 -81h-101l-29 -203h-75z" glyph-name="numbersign" unicode="#"/><glyph d="M172 534q0 -48 29 -73t97 -41v230q-60 -5 -93 -34.5t-33 -81.5zM494 199q0 27 -8.5 46t-25.5 32t-42.5 22t-60.5 18v-246q60 5 98.5 38t38.5 90zM298 -110v104q-62 5 -106 26t-72.5 52.5t-43 71t-17.5 81.5h94q8 -64 41 -104.5t104 -48.5v259q-48 11 -88 24.5t-68.5 35 t-44.5 55t-16 83.5q0 89 58 139.5t159 55.5v73h59v-74q97 -8 147 -56.5t61 -129.5h-92q-6 47 -35.5 75t-80.5 36v-240q51 -11 93.5 -24.5t73.5 -36t48 -57t17 -87.5q0 -47 -17 -84.5t-47.5 -64t-73.5 -42t-94 -18.5v-104h-59z" glyph-name="dollar" unicode="$"/><glyph d="M198 411q-31 0 -55.5 13t-42 34.5t-26.5 50.5t-9 62q0 32 9.5 61t27 50.5t42 34t54.5 12.5q31 0 55.5 -12.5t41.5 -33.5t26.5 -50t9.5 -62t-8.5 -62.5t-25.5 -51t-42 -34t-57 -12.5zM502 712h73l-426 -712h-74zM198 471q29 0 42 29t13 71q0 43 -13 71.5t-42 28.5 t-41 -28.5t-12 -71.5q0 -42 12 -71t41 -29zM452 -7q-31 0 -55.5 12.5t-42 34.5t-26.5 51t-9 61q0 33 9.5 61.5t27 50.5t42 34.5t54.5 12.5q31 0 55.5 -12.5t41.5 -34t26.5 -50.5t9.5 -62t-8.5 -62t-25.5 -50.5t-42 -34t-57 -12.5zM452 52q29 0 42 29t13 71q0 44 -13 72 t-42 28t-41 -28t-12 -72q0 -42 12 -71t41 -29z" glyph-name="percent" unicode="%"/><glyph d="M302 464q45 30 66 61t21 72q0 38 -22 61t-49 23q-28 0 -50.5 -23t-22.5 -61q0 -30 12 -58t34 -59zM285 67q41 0 72.5 15t55.5 42l-153 235q-40 -32 -65 -69.5t-25 -94.5q0 -29 9.5 -52.5t25 -40t36.5 -26t44 -9.5zM457 56q-35 -33 -79.5 -52t-95.5 -19q-43 0 -81 15 t-66.5 42t-45.5 65.5t-17 86.5q0 43 12 75.5t32.5 58.5t47.5 47.5t58 42.5l-10 15q-28 45 -42 84.5t-14 79.5q0 34 13 63.5t35 51t51.5 33.5t62.5 12q30 0 58.5 -10t51 -30.5t36.5 -51t14 -70.5q0 -35 -11 -62.5t-29.5 -50t-43 -41t-51.5 -34.5l122 -191q23 66 26 149h82 q-2 -63 -16 -121.5t-41 -107.5l87 -136h-109z" glyph-name="ampersand" unicode="&amp;"/><glyph d="M275 744h100v-298h-100v298z" glyph-name="quotesingle" unicode="'"/><glyph d="M379 -125q-87 96 -135 209.5t-48 259.5q0 137 50.5 247.5t132.5 192.5h90q-78 -88 -124 -198.5t-46 -241.5q0 -69 11 -131.5t32.5 -119.5t53 -111t73.5 -107h-90v0z" glyph-name="parenleft" unicode="("/><glyph d="M181 -125q42 53 73.5 107t53 111t32.5 119.5t11 131.5q0 131 -46 241.5t-124 198.5h90q82 -82 132.5 -192.5t50.5 -247.5q0 -146 -48 -259.5t-135 -209.5h-90z" glyph-name="parenright" unicode=")"/><glyph d="M168 377l91 134l-142 48l26 69l141 -44v160h83v-160l139 44l26 -69l-141 -48l93 -134l-64 -42l-94 141l-94 -141z" glyph-name="asterisk" unicode="*"/><glyph d="M363 303v-207h-77v207h-199v73h199v206h77v-206h199v-73h-199z" glyph-name="plus" unicode="+"/><glyph d="M264 -118q24 9 40 31t16 76v11h-57v127h124v-138q0 -151 -123 -167v60z" glyph-name="comma" unicode=","/><glyph d="M176 327h298v-84h-298v84z" glyph-name="hyphen" unicode="-"/><glyph d="M263 127h124v-127h-124v127z" glyph-name="period" unicode="."/><glyph d="M444 783h94l-362 -908h-93z" glyph-name="slash" unicode="/"/><glyph d="M325 -16q-64 0 -111 27.5t-77.5 78.5t-45 122.5t-14.5 160.5q0 90 15.5 161.5t47 122t78 77.5t108.5 27t108.5 -26.5t77 -77t46 -122.5t15.5 -162q0 -89 -14.5 -160.5t-44.5 -122.5t-77 -78.5t-112 -27.5zM326 66q45 0 73 21.5t44 61.5t21.5 97t5.5 127q0 69 -6 125.5 t-22 97t-44 62.5t-72 22t-72.5 -22t-45 -62t-23 -96.5t-6.5 -126.5q0 -69 6.5 -125.5t23 -97t45 -62.5t72.5 -22z" glyph-name="zero" unicode="0"/><glyph d="M326 535h-195v64q105 2 156.5 39.5t60.5 110.5h75v-749h-97v535z" glyph-name="one" unicode="1"/><glyph d="M73 0q3 65 24 117t52 90q37 45 84 80.5t103 72.5q32 21 57.5 41.5t43.5 42t28 46.5t10 56q0 63 -37.5 98.5t-106.5 35.5q-36 0 -60 -11t-44 -33q-21 -22 -29.5 -52.5t-8.5 -75.5h-99q0 60 16 104t48 77q66 71 185 71q55 0 98.5 -15.5t74 -43.5t47 -67t16.5 -86 q0 -48 -15 -85t-40.5 -67t-59.5 -55.5t-73 -51.5q-29 -20 -60.5 -41t-59 -45.5t-48.5 -52.5t-28 -61h371v-89h-489v0z" glyph-name="two" unicode="2"/><glyph d="M329 -16q-59 0 -108.5 16.5t-85.5 48t-56.5 77.5t-21.5 105h94q2 -79 47 -123.5t128 -44.5q68 0 110.5 40.5t42.5 115.5q0 68 -40.5 103t-127.5 35h-45v74h44q80 0 114.5 35t34.5 92q0 59 -39 93.5t-98 34.5q-72 0 -110 -43.5t-39 -110.5h-93q0 50 17 92t48.5 72.5 t76.5 47.5t103 17q48 0 90 -14t72.5 -40.5t48 -64t17.5 -85.5q0 -62 -32.5 -101t-85.5 -56v-3q75 -20 109 -67.5t34 -118.5q0 -54 -19 -96t-53 -71.5t-79.5 -44.5t-97.5 -15z" glyph-name="three" unicode="3"/><glyph d="M154 262q20 1 38 2q16 1 34 1.5t34 0.5h145v245q0 14 0.5 32.5t1.5 35.5q1 19 3 40h-2q-10 -16 -21 -33q-9 -14 -20 -31.5t-21 -31.5l-116 -168q-10 -14 -23 -30t-25 -30q-14 -16 -28 -31v-2zM499 191v-191h-94v191h-325v86l340 475h79v-486h83v-75h-83z" glyph-name="four" unicode="4"/><glyph d="M321 -15q-56 0 -102.5 16t-80 44t-53.5 65.5t-23 80.5h95q11 -54 50 -88.5t112 -34.5q37 0 67 13.5t51 37.5t32.5 57t11.5 72q0 40 -12 71t-33 52.5t-49 32.5t-60 11q-30 0 -54 -6t-43.5 -16t-34 -22.5t-24.5 -25.5h-92l77 399h380v-84h-312l-46 -232h2q30 31 70 49.5 t95 18.5q45 0 87 -16.5t75 -48t52.5 -78t19.5 -107.5q0 -59 -19.5 -107.5t-54 -82.5t-82 -52.5t-102.5 -18.5z" glyph-name="five" unicode="5"/><glyph d="M345 -16q-60 0 -103.5 19t-75.5 51q-56 54 -77 132.5t-21 189.5q0 87 18 161t53 123q35 48 85 74.5t119 26.5q54 0 93.5 -16t66.5 -42.5t42.5 -59t20.5 -65.5h-95q-3 18 -11.5 36.5t-24 33.5t-38 24.5t-52.5 9.5q-50 0 -85 -20.5t-56.5 -60t-32 -97t-12.5 -131.5h2 q35 59 81 85.5t111 26.5q49 0 91 -19.5t72.5 -53t48.5 -79t18 -96.5q0 -52 -17.5 -98t-49.5 -80.5t-76 -54.5t-95 -20zM343 61q34 0 61.5 13t47 36t30.5 54.5t11 69.5t-11 69.5t-31.5 54.5t-48.5 36t-62 13q-37 0 -67 -13t-51.5 -36t-33 -54.5t-11.5 -68.5q0 -38 12.5 -70 t34.5 -55t52.5 -36t66.5 -13z" glyph-name="six" unicode="6"/><glyph d="M181 0q6 101 31.5 199t65.5 184t92.5 157.5t111.5 120.5v2q-17 -1 -37 -2q-17 -1 -41.5 -1.5t-52.5 -0.5h-268v85h492v-77q-53 -48 -103 -116t-90.5 -153t-67 -185.5t-31.5 -212.5h-102v0z" glyph-name="seven" unicode="7"/><glyph d="M328 -16q-45 0 -90 13t-82 40.5t-60 70t-23 101.5q0 76 38.5 123.5t101.5 66.5v3q-58 17 -89 60t-31 100q0 44 18.5 81t50 63.5t73.5 41t90 14.5t90 -14.5t73.5 -41t50 -63t18.5 -80.5q0 -57 -31 -100t-88 -61v-3q66 -17 101 -67.5t35 -122.5q0 -60 -21.5 -102.5 t-56.5 -69.5t-79 -40t-89 -13zM325 435q63 0 100.5 34.5t37.5 89.5t-37.5 90t-100.5 35t-101 -35t-38 -90t38 -89.5t101 -34.5zM328 63q69 0 109.5 40t40.5 107q0 68 -40.5 110t-112.5 42q-71 0 -112 -42t-41 -110t42 -107.5t114 -39.5z" glyph-name="eight" unicode="8"/><glyph d="M307 684q-34 0 -61.5 -13t-47 -36t-30.5 -54.5t-11 -69.5t11 -69.5t31.5 -54.5t48.5 -36t62 -13q37 0 67 13t51.5 36t33 54.5t11.5 68.5q0 38 -12.5 70t-34.5 55t-52.5 36t-66.5 13zM305 761q111 0 178 -67q99 -101 99 -325q0 -87 -16 -162.5t-51 -124.5 q-72 -98 -205 -98q-55 0 -97 16t-71.5 43t-47 61.5t-22.5 71.5h97q3 -23 13.5 -43t28 -36t42 -25t55.5 -9q44 0 77 14.5t55 45.5q27 39 38 102.5t13 146.5h-2q-35 -59 -81 -85.5t-111 -26.5q-49 0 -91 19.5t-73 53t-48.5 79t-17.5 96.5q0 52 17.5 98t49.5 80.5t76 54.5 t95 20z" glyph-name="nine" unicode="9"/><glyph d="M263 436h124v-126h-124v126zM263 127h124v-127h-124v127z" glyph-name="colon" unicode=":"/><glyph d="M263 436h124v-126h-124v126zM264 -118q24 9 40 31t16 76v11h-57v127h124v-138q0 -151 -123 -167v60z" glyph-name="semicolon" unicode=";"/><glyph d="M111 277v93l424 180v-83l-229 -93q-20 -8 -43.5 -16t-43.5 -16q-24 -9 -47 -17v-2q23 -8 47 -16q20 -7 43.5 -15.5t43.5 -16.5l229 -93v-85z" glyph-name="less" unicode="&lt;"/><glyph d="M88 455h473v-73h-473v73zM88 269h473v-73h-473v73z" glyph-name="equal" unicode="="/><glyph d="M539 370v-93l-424 -180v84l230 92q19 8 42.5 16t43.5 16q24 9 47 17v2q-23 8 -47 16q-20 7 -43.5 15.5t-42.5 16.5l-230 93v85z" glyph-name="greater" unicode="&gt;"/><glyph d="M266 216q0 37 6 65.5t19 52.5t32.5 45.5t48.5 46.5q17 15 33 29.5t28.5 30t20 34.5t7.5 43q0 48 -34 80t-97 32q-39 0 -68.5 -12t-49 -33.5t-30 -50.5t-11.5 -63h-94q1 45 16.5 88.5t46.5 77.5t78 54.5t112 20.5q53 0 95.5 -15t72 -40.5t45.5 -61t16 -75.5 q0 -31 -8 -55.5t-21 -45t-30 -37t-35 -31.5q-32 -27 -53 -46.5t-35 -37.5q-14 -19 -18.5 -41t-5.5 -55h-87zM255 110h109v-110h-109v110z" glyph-name="question" unicode="?"/><glyph d="M335 -108q-64 0 -116 25.5t-88.5 76.5t-56.5 126.5t-20 176.5q0 115 23 198.5t61 138t88 80.5t103 26q52 0 99.5 -21t83.5 -66.5t57.5 -118.5t21.5 -176q0 -69 -10.5 -114.5t-27.5 -72.5t-39.5 -38t-47.5 -11q-68 0 -87 58h-2q-13 -29 -31.5 -46.5t-53.5 -17.5 q-54 0 -79.5 46t-25.5 119q0 103 32 162.5t86 59.5q56 0 78 -43h1l2 36h75l-14 -257q-2 -33 3 -47t24 -14q8 0 18 5t19 23t15.5 53.5t6.5 95.5q0 91 -15 153.5t-42 100t-64.5 54t-82.5 16.5t-83.5 -22.5t-67.5 -70t-45.5 -120t-16.5 -171.5q0 -167 53.5 -255.5t166.5 -88.5 q31 0 65 8.5t60 28.5l20 -52q-32 -25 -70.5 -34.5t-75.5 -9.5zM311 177q28 0 45.5 37t17.5 126q0 102 -48 102q-15 0 -26 -8t-18.5 -26.5t-11.5 -49t-4 -75.5q0 -59 10 -82.5t35 -23.5z" glyph-name="at" unicode="@"/><glyph d="M235 287h174l-50 191q-8 27 -14 56.5t-11 54.5q-5 29 -10 57h-2q-5 -29 -11 -58q-5 -25 -11.5 -54.5t-13.5 -55.5zM429 207h-215l-55 -207h-102l207 744h120l209 -744h-110z" glyph-name="A" unicode="A"/><glyph d="M98 744h243q40 0 76.5 -12.5t64 -36.5t44 -60t16.5 -83q0 -61 -29.5 -100t-82.5 -56v-3q61 -16 101.5 -60.5t40.5 -118.5q0 -49 -17 -88.5t-46.5 -67.5t-68.5 -43t-84 -15h-258v744zM327 427q51 0 81.5 30.5t30.5 87.5q0 53 -27.5 82t-72.5 29h-139v-229h127zM350 90 q51 0 84.5 32t33.5 89q0 67 -36.5 100t-87.5 33h-144v-254h150z" glyph-name="B" unicode="B"/><glyph d="M341 -15q-131 0 -199.5 101.5t-68.5 285.5q0 90 18 161.5t52 122t83.5 77.5t113.5 27q106 0 167.5 -62t67.5 -179h-102q-2 42 -12.5 71t-28 47t-41.5 26t-52 8q-81 0 -121.5 -77.5t-40.5 -221.5q0 -149 45 -223.5t120 -74.5q65 0 100.5 49.5t38.5 147.5h100 q-1 -65 -17 -118t-46.5 -90.5t-75 -57.5t-101.5 -20z" glyph-name="C" unicode="C"/><glyph d="M98 744h186q152 0 223.5 -96t71.5 -279q0 -182 -72 -275.5t-229 -93.5h-180v744zM271 89q57 0 96 17t62.5 51.5t34 87t10.5 124.5t-10 125.5t-33.5 89t-61.5 53.5t-94 18h-75v-566h71z" glyph-name="D" unicode="D"/><glyph d="M561 0h-463v744h457v-90h-355v-225h320v-85h-320v-251h361v-93z" glyph-name="E" unicode="E"/><glyph d="M200 344v-344h-102v744h458v-90h-356v-223h308v-87h-308z" glyph-name="F" unicode="F"/><glyph d="M326 -16q-126 0 -192 100.5t-66 284.5q0 88 18 160t52.5 123t83.5 79t111 28q103 0 165 -57.5t68 -173.5h-103q-2 76 -34.5 109.5t-93.5 33.5q-84 0 -124 -79.5t-40 -222.5q0 -296 164 -296q36 0 61.5 14t42 39.5t24.5 60t8 76.5v44h-128v87h226v-394h-68l-15 85h-3 q-20 -48 -62 -74.5t-95 -26.5z" glyph-name="G" unicode="G"/><glyph d="M450 348h-250v-348h-102v744h102v-313h250v313h102v-744h-102v348z" glyph-name="H" unicode="H"/><glyph d="M271 744h108v-744h-108v744z" glyph-name="I" unicode="I"/><glyph d="M309 -15q-104 0 -163.5 58.5t-59.5 186.5v16h100v-13q0 -47 7.5 -78.5t23 -50t39 -26.5t54.5 -8q55 0 85 30t30 97v547h102v-553q0 -45 -13 -82t-40 -64q-27 -28 -68 -44t-97 -16z" glyph-name="J" unicode="J"/><glyph d="M290 371l-90 -114v-257h-102v744h102v-240q0 -33 -0.5 -66t-2.5 -59l273 365h111l-224 -297l242 -447h-112z" glyph-name="K" unicode="K"/><glyph d="M98 744h102v-651h353v-93h-455v744z" glyph-name="L" unicode="L"/><glyph d="M77 744h132l69 -333q7 -34 15 -83.5t15 -95.5q8 -55 15 -112h3q8 57 16 112q7 46 15 95.5t15 83.5l68 333h133v-744h-88v399q0 32 1.5 78.5t3.5 90.5q2 50 5 104h-4q-7 -50 -15 -98q-3 -20 -7 -42t-7.5 -43t-6.5 -39.5t-6 -33.5l-80 -416h-90l-80 416q-3 15 -6.5 33.5 t-7 39.5t-7 43t-6.5 42q-8 48 -15 98h-4q2 -54 5 -104q1 -44 3 -90.5t2 -78.5v-399h-86v744z" glyph-name="M" unicode="M"/><glyph d="M98 744h107l188 -411q16 -35 28.5 -68.5t21.5 -59.5q11 -31 19 -59h4q-2 20 -4 51q-2 26 -3 65.5t-1 93.5v388h94v-744h-106l-187 414q-16 35 -29 68.5t-22 59.5q-11 31 -19 58h-3l3 -51q1 -26 2 -64.5t1 -91.5v-393h-94v744z" glyph-name="N" unicode="N"/><glyph d="M325 -16q-61 0 -108.5 27.5t-79.5 78.5t-49 122.5t-17 159.5t16 159.5t47.5 122.5t79.5 78.5t111 27.5t111 -27.5t79.5 -78.5t47.5 -122.5t16 -159.5t-17 -159.5t-49 -122.5t-79.5 -78.5t-108.5 -27.5zM326 74q39 0 67 21t46 60t26.5 94t8.5 123q0 69 -8 124.5t-26 94.5 t-46 60t-68 21t-68.5 -21t-47 -60t-27 -94.5t-8.5 -124.5q0 -68 8.5 -123t27 -94t47 -60t68.5 -21z" glyph-name="O" unicode="O"/><glyph d="M201 389h137q69 0 103 35.5t34 98.5q0 66 -35.5 99t-97.5 33h-141v-266zM201 306v-306h-103v744h260q51 0 92 -16t69 -45t43 -69t15 -88q0 -103 -57.5 -161.5t-171.5 -58.5h-147z" glyph-name="P" unicode="P"/><glyph d="M460 28q-56 -44 -135 -44q-63 0 -111 27.5t-79.5 78.5t-47.5 122.5t-16 159.5t16 159.5t47.5 122.5t79.5 78.5t111 27.5t111 -27.5t79.5 -78.5t47.5 -122.5t16 -159.5t-16 -160t-48 -123l78 -76l-56 -61zM326 74q37 0 67 19l-80 78l56 61l75 -73q16 39 23 93t7 120 q0 69 -7.5 124.5t-25 94.5t-45.5 60t-70 21t-71 -21t-46.5 -60t-25.5 -94.5t-8 -124.5q0 -68 8 -123t25.5 -94t46.5 -60t71 -21z" glyph-name="Q" unicode="Q"/><glyph d="M201 390h143q69 0 101 33t32 100q0 132 -128 132h-148v-265zM332 307h-131v-307h-103v744h266q48 0 87.5 -16t68 -45t44 -68.5t15.5 -87.5q0 -81 -38 -134.5t-104 -73.5l154 -319h-115z" glyph-name="R" unicode="R"/><glyph d="M332 -15q-66 0 -117 18.5t-85.5 52.5t-53 81t-20.5 104h101q8 -92 52 -133t125 -41q31 0 58.5 8.5t47.5 25.5t31.5 42t11.5 59q0 36 -10 59.5t-33 40t-60 28.5t-92 25q-41 10 -78.5 24t-66 37.5t-45.5 58t-17 84.5q0 46 17.5 83t48 63t73.5 39.5t94 13.5q59 0 103 -15.5 t75 -44.5t48 -69.5t22 -89.5h-99q-8 72 -46 105.5t-103 33.5q-61 0 -99 -29t-38 -85q0 -30 10.5 -50.5t32 -34.5t55.5 -24.5t81 -20.5q44 -10 85 -24.5t72.5 -40t50.5 -65t19 -99.5q0 -52 -18.5 -93t-52 -69t-79.5 -43t-101 -15z" glyph-name="S" unicode="S"/><glyph d="M376 654v-654h-103v654h-206v90h516v-90h-207z" glyph-name="T" unicode="T"/><glyph d="M326 -11q-54 0 -97 13t-73.5 41t-47 73t-16.5 108v520h102v-511q0 -84 31.5 -120.5t97.5 -36.5q72 0 102.5 36.5t30.5 120.5v511h102v-520q0 -63 -16 -108t-46 -73t-73 -41t-97 -13z" glyph-name="U" unicode="U"/><glyph d="M386 0h-120l-209 744h110l124 -475q7 -28 13.5 -57.5t11.5 -55.5q5 -30 10 -58h2q5 30 11 60q5 26 11.5 55.5t13.5 55.5l127 475h102z" glyph-name="V" unicode="V"/><glyph d="M36 744h96l34 -312q4 -37 8.5 -92t7.5 -107q4 -61 7 -125h1q6 67 13 129q3 26 6 54t6 54.5t6 50t6 41.5l46 307h98l45 -307q3 -18 5.5 -41.5t5.5 -50t5.5 -54.5t5.5 -54q6 -62 12 -128h1q5 64 10 125q5 52 9.5 107t8.5 92l33 311h95l-95 -744h-108l-56 391q-5 32 -9 74.5 t-8 81.5q-4 46 -8 93h-2q-4 -47 -8 -93q-4 -39 -8 -81.5t-9 -74.5l-58 -391h-108z" glyph-name="W" unicode="W"/><glyph d="M260 382l-171 362h110l72 -161q20 -43 34 -79t22 -61h2q8 25 22.5 60.5t34.5 79.5l74 161h104l-172 -363l186 -381h-113l-86 188q-21 47 -32.5 77.5t-20.5 59.5h-2q-9 -29 -21 -60t-34 -77l-89 -188h-108z" glyph-name="X" unicode="X"/><glyph d="M273 0v308l-196 436h112l81 -202q8 -20 18 -46.5t18 -49.5q10 -27 19 -55h1q9 28 20 55q8 23 18.5 49.5t18.5 46.5l81 202h108l-197 -438v-306h-102z" glyph-name="Y" unicode="Y"/><glyph d="M83 95l277 443q16 25 31.5 46.5t28.5 38.5q15 19 28 35v3q-22 -1 -43 -2q-18 -1 -38.5 -1.5t-35.5 -0.5h-228v87h450v-80l-272 -433q-15 -23 -31.5 -48.5t-30.5 -45.5q-17 -25 -33 -47v-3l44 2q19 1 40 1.5t38 0.5h256v-91h-481v95z" glyph-name="Z" unicode="Z"/><glyph d="M214 784h268v-74h-174v-757h174v-78h-268v909z" glyph-name="bracketleft" unicode="["/><glyph d="M474 -125l-362 908h94l361 -908h-93z" glyph-name="backslash" unicode="\"/><glyph d="M167 -47h173v757h-173v74h269v-909h-269v78z" glyph-name="bracketright" unicode="]"/><glyph d="M275 744h99l175 -299h-99l-124 218h-2l-125 -218h-99z" glyph-name="asciicircum" unicode="^"/><glyph d="M30 -105h590v-68h-590v68z" glyph-name="underscore" unicode="_"/><glyph d="M204 770h114l53 -145h-78z" glyph-name="grave" unicode="`"/><glyph d="M296 57q40 0 68.5 13.5t47 34t27 45.5t8.5 48v89q-20 -14 -52 -23.5t-65 -15.5t-58.5 -12.5t-43 -18t-26.5 -29t-9 -45.5q0 -26 8.5 -42.5t22.5 -26.5t33 -13.5t39 -3.5zM273 -11q-38 0 -70.5 9.5t-56.5 28.5t-37.5 47.5t-13.5 67.5q0 47 15 77t43.5 48t69.5 28t93 16 q30 3 54 8t41 13.5t26 22t9 34.5q0 43 -29.5 68t-85.5 25q-64 0 -93 -28t-31 -76h-90q1 34 14.5 65t39.5 55t65.5 38t93.5 14q40 0 73.5 -7t59.5 -24q33 -20 51 -55t18 -89v-289q0 -36 6 -54t14 -23v-9h-89q-7 8 -11.5 24.5t-6.5 49.5h-2q-13 -17 -29 -32.5t-36 -27 t-46 -18.5t-59 -7z" glyph-name="a" unicode="a"/><glyph d="M356 -16q-49 0 -88 23.5t-62 68.5h-3v-76h-91v744h93v-190q0 -30 -1 -57.5t-2 -44.5h2q24 43 62.5 70.5t91.5 27.5q46 0 84 -19.5t65 -56t42 -89t15 -118.5q0 -65 -14.5 -117.5t-41.5 -89t-65.5 -56.5t-86.5 -20zM342 61q32 0 56 15.5t39.5 43t23.5 65t8 81.5t-7.5 82 t-23.5 65.5t-39.5 43t-55.5 15.5q-37 0 -64 -16t-44.5 -44t-26 -65.5t-8.5 -80.5q0 -44 9 -81.5t27 -65t44.5 -43t61.5 -15.5z" glyph-name="b" unicode="b"/><glyph d="M341 -15q-61 0 -109 22t-81.5 60.5t-51.5 90t-18 110.5q0 58 18 109.5t51.5 90t81.5 60.5t109 22q97 0 157.5 -50.5t74.5 -137.5h-93q-9 53 -44.5 83t-94.5 30q-42 0 -73 -16t-51.5 -44t-30.5 -66t-10 -81q0 -44 10 -81.5t30.5 -65.5t51.5 -44t73 -16q63 0 99.5 34.5 t41.5 94.5h92q-8 -97 -69 -151t-164 -54z" glyph-name="c" unicode="c"/><glyph d="M309 61q36 0 63 15.5t44.5 43t26 65t8.5 81.5q0 45 -9 83t-27 65.5t-44.5 42.5t-61.5 15q-32 0 -56.5 -15.5t-40.5 -43t-24 -65.5t-8 -82t8 -81.5t24 -65t40.5 -43t56.5 -15.5zM297 -16q-48 0 -87.5 20t-67 56.5t-42.5 89t-15 117.5q0 66 16 118.5t44.5 89t67 56 t83.5 19.5q51 0 89.5 -26t61.5 -69h2q-1 19 -2 46t-1 53v190h93v-744h-91v77h-2q-23 -44 -60.5 -68.5t-88.5 -24.5z" glyph-name="d" unicode="d"/><glyph d="M328 478q-36 0 -63 -12.5t-45.5 -34.5t-30 -52t-15.5 -66h300q-4 78 -40.5 121.5t-105.5 43.5zM562 153q-16 -75 -75.5 -121.5t-153.5 -46.5q-61 0 -108.5 22t-80 60.5t-49.5 90t-17 110.5q0 58 17.5 109.5t50.5 90t79 60.5t103 22q53 0 94 -17t71 -49q39 -41 59 -102 t20 -136h-400q2 -39 13.5 -73t31.5 -59t49.5 -39t67.5 -14q56 0 91 24.5t46 67.5h91z" glyph-name="e" unicode="e"/><glyph d="M336 465v-465h-92v465h-124v72h124v48q0 53 13.5 84.5t43.5 51.5q24 17 57.5 23t77.5 6q32 0 52.5 -3t43.5 -8v-75q-17 3 -34 5t-37 2q-30 0 -58 -3.5t-42 -13.5q-16 -11 -20.5 -30.5t-4.5 -66.5v-20h187v-72h-187z" glyph-name="f" unicode="f"/><glyph d="M316 100q38 0 64.5 14.5t42.5 40t23 60.5t7 76q0 85 -33.5 133.5t-104.5 48.5q-68 0 -103 -51t-35 -136q0 -86 35.5 -136t103.5 -50zM318 -188q-103 0 -158 39.5t-63 111.5h88q6 -42 39 -60.5t92 -18.5q63 0 97.5 32.5t34.5 101.5v15q0 23 1 43.5t2 33.5h-3 q-23 -40 -57.5 -63t-86.5 -23q-48 0 -88.5 19t-70 54t-46 83t-16.5 107q0 62 17 111t46 82.5t68.5 51.5t84.5 18q54 0 90 -21.5t57 -62.5h2v71h91v-515q0 -54 -15.5 -93.5t-43.5 -65.5q-29 -26 -70 -38.5t-92 -12.5z" glyph-name="g" unicode="g"/><glyph d="M206 0h-94v744h94v-195q0 -20 -0.5 -45t-2.5 -45h3q28 43 67 67t95 24q81 0 126.5 -45t45.5 -130v-375h-92v364q0 52 -29 80t-81 28q-58 0 -95 -40t-37 -105v-327z" glyph-name="h" unicode="h"/><glyph d="M313 744h103v-108h-103v108zM318 0v456h-157v81h250v-537h-93z" glyph-name="i" unicode="i"/><glyph d="M313 744h103v-108h-103v108zM232 -170q-28 0 -52.5 4t-44.5 11v79h3q14 -5 34.5 -9t43.5 -4q31 0 50.5 4.5t31 14.5t16 25.5t4.5 37.5v463h-157v81h250v-549q0 -37 -8.5 -66.5t-29 -49.5t-55 -31t-86.5 -11z" glyph-name="j" unicode="j"/><glyph d="M290 274l-85 -81v-193h-93v744h93v-363q0 -16 -1 -43.5t-3 -46.5l241 246h116l-205 -202l229 -335h-109z" glyph-name="k" unicode="k"/><glyph d="M318 0v663h-157v81h250v-744h-93z" glyph-name="l" unicode="l"/><glyph d="M76 537h86v-60h2q18 40 42.5 56.5t59.5 16.5q32 0 55.5 -19t35.5 -61h1q20 42 47.5 61t59.5 19q54 0 82.5 -33t28.5 -102v-415h-89v407q0 35 -14 50t-38 15q-29 0 -46.5 -27t-17.5 -74v-371h-89v407q0 35 -13 50t-39 15q-27 0 -46 -27t-19 -74v-371h-89v537z" glyph-name="m" unicode="m"/><glyph d="M204 0h-92v537h90v-76h3q28 41 67.5 65t95.5 24q81 0 126.5 -45t45.5 -130v-375h-92v364q0 52 -29 80t-81 28q-29 0 -53.5 -10.5t-42.5 -29.5t-28 -46t-10 -59v-327z" glyph-name="n" unicode="n"/><glyph d="M326 -15q-58 0 -103.5 22t-76.5 60.5t-47 90t-16 110.5q0 58 16 109.5t47 90t76.5 60.5t103.5 22t102.5 -22t75.5 -60.5t47 -90t16 -109.5q0 -59 -16 -110.5t-47 -90t-75.5 -60.5t-102.5 -22zM325 61q38 0 66 16t46 44t26.5 65.5t8.5 81.5q0 43 -8.5 81t-26.5 66.5 t-46 44.5t-66 16t-66 -16t-46 -44.5t-26.5 -66.5t-8.5 -81q0 -44 8.5 -81.5t26.5 -65.5t46 -44t66 -16z" glyph-name="o" unicode="o"/><glyph d="M341 61q32 0 56 15.5t40.5 42.5t24.5 64.5t8 81.5t-8 82t-24 65.5t-40 43t-56 15.5q-37 0 -64 -16t-44.5 -44t-26 -65.5t-8.5 -80.5q0 -42 8 -79.5t25 -65t44 -43.5t65 -16zM204 -182h-93v719h91v-84h3q26 46 63.5 71.5t88.5 25.5q46 0 84.5 -19.5t66 -56t42.5 -89 t15 -118.5q0 -65 -14.5 -117t-42 -89t-66.5 -57t-88 -20t-87.5 22t-62.5 65h-2q1 -14 1.5 -37t0.5 -53v-163z" glyph-name="p" unicode="p"/><glyph d="M447 -182v163v12t0.5 23.5t1 28t0.5 26.5h-2q-27 -43 -62.5 -65t-86.5 -22q-49 0 -88 20t-66 57t-41.5 89t-14.5 117q0 66 15.5 118.5t43 89t65.5 56t83 19.5q52 0 89.5 -24.5t60.5 -68.5h3v80h91v-719h-92zM309 61q38 0 65 15.5t44 42.5t25 64.5t8 81.5q0 45 -8.5 83 t-26 65.5t-44.5 42.5t-63 15q-32 0 -56 -15.5t-40 -43t-23.5 -65.5t-7.5 -82t8 -81.5t23.5 -64.5t39.5 -42.5t56 -15.5z" glyph-name="q" unicode="q"/><glyph d="M155 0v537h92v-125h3q32 67 85 99.5t120 32.5q29 0 50 -4t29 -7v-91h-3q-10 3 -31.5 8t-51.5 5q-38 0 -74 -12t-64 -38t-45 -67t-17 -99v-239h-93z" glyph-name="r" unicode="r"/><glyph d="M334 -16q-112 0 -173 48.5t-67 130.5h94q4 -29 17 -49t32.5 -32t44.5 -17.5t54 -5.5q64 0 92.5 24.5t28.5 60.5q0 44 -34.5 61.5t-105.5 31.5q-39 8 -75.5 18t-64 27t-44 45t-16.5 72q0 69 51.5 109.5t145.5 40.5q101 0 153 -43t61 -113h-93q-6 42 -35.5 64t-87.5 22 q-55 0 -79.5 -22t-24.5 -53q0 -21 9 -34.5t27 -22.5t44.5 -15t60.5 -13q40 -8 76.5 -18t64 -28t44 -47.5t16.5 -76.5q0 -41 -16 -72t-44.5 -51.5t-68.5 -31t-87 -10.5z" glyph-name="s" unicode="s"/><glyph d="M521 8q-21 -6 -48.5 -11t-72.5 -5q-84 0 -120 34.5t-36 99.5v339h-124v72h124v169h92v-169h176v-72h-176v-325q0 -38 19 -53.5t67 -15.5q31 0 51.5 3.5t44.5 9.5h3v-76v0z" glyph-name="t" unicode="t"/><glyph d="M286 -12q-80 0 -126.5 47t-46.5 132v370h93v-365q0 -51 28.5 -79.5t80.5 -28.5q28 0 51.5 11t39.5 30.5t25 46.5t9 58v327h93v-537h-91v75h-2q-27 -40 -63 -63.5t-91 -23.5z" glyph-name="u" unicode="u"/><glyph d="M73 537h99l104 -297q9 -27 18 -56.5t16 -55.5q8 -30 15 -59h2q6 29 14 59q6 26 14.5 55.5t18.5 56.5l106 297h96l-203 -537h-103z" glyph-name="v" unicode="v"/><glyph d="M58 537h88l34 -220q3 -23 7 -61.5t8 -75.5q4 -43 8 -91h1q6 47 12 89q5 36 11 74t11 63l45 222h83l48 -222q4 -22 10 -59.5t11 -75.5q6 -44 12 -92h1q3 47 7 90q3 37 7 75.5t9 63.5l35 220h86l-101 -537h-86l-57 276q-5 20 -9 47t-7 53q-4 30 -7 62h-1q-4 -32 -8 -62 q-4 -26 -8 -53.5t-8 -46.5l-57 -276h-86z" glyph-name="w" unicode="w"/><glyph d="M269 281l-179 256h108l80 -123q6 -11 13.5 -23.5t14.5 -23.5q8 -13 15 -27h2q8 14 16 27q7 11 14 24t14 23l83 123h101l-175 -247l207 -290h-108l-103 152q-8 11 -16 24.5t-16 26.5q-9 15 -17 30h-2q-8 -15 -17 -30q-8 -13 -16 -26.5t-15 -24.5l-102 -152h-104z" glyph-name="x" unicode="x"/><glyph d="M195 -187q-23 0 -45.5 3t-33.5 8v80h4q8 -5 23.5 -7.5t32.5 -2.5q28 0 47 13.5t33 51.5q0 1 3 10.5t7 21.5t7 23t2 13l-205 510h101l111 -298q8 -23 16 -48t15 -47q7 -26 14 -50h2q7 24 15 50q7 22 15 47t16 48l107 298h97l-228 -586q-17 -42 -33.5 -69t-35 -42.5 t-40 -21t-47.5 -5.5z" glyph-name="y" unicode="y"/><glyph d="M113 72l240 313q8 11 19 23.5t21 23.5q11 13 24 26v3q-19 -1 -37 -2q-16 -1 -33 -1h-31h-185v79h403v-58l-244 -319q-9 -11 -20.5 -24.5t-22.5 -25.5q-12 -14 -25 -28v-3q20 0 39 1q17 1 35 1.5t33 0.5h217v-82h-433v72z" glyph-name="z" unicode="z"/><glyph d="M420 -125q-82 0 -125.5 38t-43.5 133v149q0 25 -5 43.5t-19.5 31t-40.5 19t-67 7.5v75q41 1 67 7.5t40.5 18.5t19.5 30.5t5 43.5v145q0 48 11 80t32.5 51.5t53 28t72.5 8.5h91v-74h-88q-41 0 -59 -19.5t-18 -75.5v-151q0 -57 -22 -88.5t-61 -40.5v-3q39 -11 61 -42 t22 -87v-156q0 -28 4.5 -46t13.5 -28.5t23.5 -15t35.5 -4.5h88v-78h-91v0z" glyph-name="braceleft" unicode="{"/><glyph d="M287 784h76v-909h-76v909z" glyph-name="bar" unicode="|"/><glyph d="M139 -125v78h88q21 0 35.5 4.5t23.5 15t13.5 28.5t4.5 46v156q0 56 22 87t61 42v3q-39 9 -61 40.5t-22 88.5v151q0 56 -18 75.5t-59 19.5h-88v74h91q41 0 72.5 -8.5t53 -28t32.5 -51.5t11 -80v-145q0 -25 5 -43.5t19.5 -30.5t40.5 -18.5t67 -7.5v-75q-41 -1 -67 -7.5 t-40.5 -19t-19.5 -31t-5 -43.5v-149q0 -95 -43.5 -133t-125.5 -38h-91z" glyph-name="braceright" unicode="}"/><glyph d="M400 280q-20 0 -38.5 6.5t-36.5 14.5q-26 11 -40 17.5t-28 6.5q-29 0 -31 -44h-72q2 60 28 94t69 34q23 0 43 -7t38 -17q20 -11 32 -16t25 -5q34 0 36 43h71q-2 -56 -24 -91.5t-72 -35.5z" glyph-name="asciitilde" unicode="~"/><glyph d="M380 502h-109v110h109v-110zM376 101v-233h-101v233l25 295h51z" glyph-name="exclamdown" unicode="¡"/><glyph d="M574 190q-8 -91 -61.5 -144t-144.5 -60v-105h-59v106q-54 6 -96.5 30t-72 61.5t-45.5 86t-16 103.5q0 54 16 103t46 86.5t72.5 61.5t95.5 30v86h59v-85q86 -8 139 -58t67 -130h-93q-8 47 -37 76t-76 36v-411q51 7 80.5 40t34.5 87h91zM173 268q0 -39 8.5 -73.5t26 -61.5 t43 -45t58.5 -24v409q-33 -6 -58.5 -24t-43 -45.5t-26 -62t-8.5 -73.5z" glyph-name="cent" unicode="¢"/><glyph d="M594 52q-32 -28 -72 -46t-90 -18q-36 0 -61 8.5t-47.5 18.5t-45.5 18.5t-53 8.5q-31 0 -56 -14.5t-47 -30.5l-54 75q22 16 42 33t35 36.5t23.5 43.5t8.5 54q0 19 -3.5 37t-8.5 36h-88v70h62q-13 33 -23.5 67.5t-10.5 74.5q0 44 16 81.5t46.5 64.5t74.5 42.5t100 15.5 q47 0 89 -13.5t74 -42t51 -73t20 -105.5h-95q-2 83 -41 118.5t-100 35.5q-67 0 -101 -33.5t-34 -92.5q0 -35 11 -69.5t24 -70.5h147v-70h-127q6 -27 6 -57q0 -53 -24 -90t-71 -75l2 -3q29 15 48.5 20.5t46.5 5.5q28 0 49 -6.5t39.5 -14t36.5 -14t41 -6.5q32 0 58.5 14.5 t49.5 34.5l52 -69v0z" glyph-name="sterling" unicode="£"/><glyph d="M91 168l69 71q-38 55 -38 126t38 124l-69 71l45 43l67 -69q24 18 54.5 29t67.5 11q36 0 67 -11t55 -29l67 69l45 -43l-69 -71q37 -54 37 -124q0 -35 -10 -67t-28 -58l70 -72l-45 -43l-68 69q-49 -37 -121 -37t-121 37l-68 -69zM325 222q57 0 88 40.5t31 102.5 q0 30 -8 56.5t-23 46t-37.5 30.5t-50.5 11q-29 0 -51 -11t-37.5 -30.5t-23.5 -46t-8 -56.5q0 -31 8 -57t23.5 -45t37.5 -30t51 -11z" glyph-name="currency" unicode="¤"/><glyph d="M378 143v-143h-96v143h-186v57h186v81h-186v57h172l-207 374h108l75 -149q13 -26 27.5 -57.5t27.5 -59.5q15 -33 30 -65h2q14 32 28 65q12 28 26.5 59.5t28.5 57.5l77 149h104l-205 -374h174v-57h-186v-81h186v-57h-186z" glyph-name="yen" unicode="¥"/><glyph d="M287 784h76v-409h-76v409zM287 301h76v-426h-76v426z" glyph-name="brokenbar" unicode="¦"/><glyph d="M298 197q29 -20 61 -39.5t58 -41.5q33 14 47.5 39.5t14.5 54.5q0 22 -8.5 39.5t-26 34t-45 34.5t-64.5 42q-28 18 -54.5 34.5t-46.5 33.5q-32 -11 -48 -34.5t-16 -52.5q0 -21 6.5 -37t21.5 -31.5t39.5 -33.5t60.5 -42zM328 -192q-50 0 -87 15.5t-62 42t-38 62t-14 74.5 h91q3 -50 28.5 -82.5t81.5 -32.5q46 0 68 21.5t22 53.5q0 21 -10.5 38.5t-30.5 35t-50 36.5t-70 45q-41 26 -73.5 49t-55.5 47.5t-35 53t-12 64.5q0 57 29 91t78 49q-20 22 -31 47t-11 55q0 72 48 114.5t133 42.5q45 0 79 -13.5t57 -37.5t36 -57t15 -72h-89q-5 45 -27 72.5 t-71 27.5q-47 0 -67 -21t-20 -53q0 -20 9 -36t26.5 -31t43.5 -31t60 -37q38 -23 72.5 -46t61 -49t42 -57.5t15.5 -72.5q0 -60 -29 -95t-77 -51q21 -23 34 -49t13 -58q0 -70 -47.5 -112.5t-135.5 -42.5z" glyph-name="section" unicode="§"/><glyph d="M180 744h92v-108h-92v108zM378 744h92v-108h-92v108z" glyph-name="dieresis" unicode="¨"/><glyph d="M325 120q-54 0 -101 20t-82.5 55t-55.5 83t-20 105t20 105.5t55.5 83.5t82.5 55t101 20t101 -20t82 -55t55 -83.5t20 -105.5t-20 -105t-55 -83t-82 -55t-101 -20zM325 155q47 0 87 17.5t69.5 48t46 72t16.5 90.5q0 50 -16.5 92t-46 73t-69.5 47.5t-87 16.5t-87 -16.5 t-69 -47.5t-45.5 -73t-16.5 -92q0 -49 16.5 -90.5t45.5 -72t69 -48t87 -17.5zM327 233q-31 0 -56.5 11.5t-44 31.5t-29 48t-10.5 61t10 61t28 48.5t44 32.5t58 12q51 0 84 -28q32 -26 38 -70h-58q-3 20 -19 34.5t-45 14.5q-41 0 -61 -30t-20 -75q0 -46 22 -74.5t60 -28.5 q31 0 47.5 17.5t19.5 40.5h55q0 -20 -8.5 -40.5t-24.5 -34.5q-17 -15 -38 -23.5t-52 -8.5z" glyph-name="copyright" unicode="©"/><glyph d="M297 301q35 0 60.5 11t42 28t24.5 38.5t8 41.5v71q-17 -10 -46 -17t-58 -11q-30 -4 -52.5 -10t-38.5 -15.5t-24 -24.5t-8 -38q0 -22 8 -36.5t20.5 -22.5t29 -11.5t34.5 -3.5zM279 237q-34 0 -64 8.5t-52.5 25.5t-35.5 42.5t-13 58.5q0 42 16 68.5t43.5 43t65.5 25 t83 12.5q54 5 81.5 18t27.5 50q0 76 -96 76q-56 0 -83 -23t-32 -65h-84q2 31 15.5 58.5t38 48.5t60 33t83.5 12q39 0 71.5 -7.5t55.5 -24.5q25 -18 39 -47.5t14 -72.5v-262q0 -26 5 -42.5t12 -21.5v-5h-87q-5 7 -9 21.5t-5 43.5h-2q-20 -29 -54.5 -51.5t-93.5 -22.5z" glyph-name="ordfeminine" unicode="ª"/><glyph d="M146 232v97l150 150v-100l-100 -97v-2l100 -98v-100zM354 232v97l149 150v-100l-99 -97v-2l99 -98v-100z" glyph-name="guillemotleft" unicode="«"/><glyph d="M104 435h425v-260h-77v187h-348v73z" glyph-name="logicalnot" unicode="¬"/><glyph glyph-name="uni00AD" unicode="­"/><glyph d="M325 230q-54 0 -101 20t-82.5 55t-55.5 83t-20 105t20 105.5t55.5 83.5t82.5 55t101 20t101 -20t82 -55t55 -83.5t20 -105.5t-20 -105t-55 -83t-82 -55t-101 -20zM325 265q47 0 87 17.5t69.5 48t46 72t16.5 90.5q0 50 -16.5 92t-46 73t-69.5 47.5t-87 16.5t-87 -16.5 t-69 -47.5t-45.5 -73t-16.5 -92q0 -49 16.5 -90.5t45.5 -72t69 -48t87 -17.5zM277 510h63q24 0 36 11.5t12 29.5q0 17 -11.5 28.5t-35.5 11.5h-64v-81zM277 468v-113h-55v281h131q38 0 64 -21.5t26 -57.5q0 -24 -13.5 -41.5t-43.5 -25.5v-1q25 -6 34.5 -19.5t12.5 -39.5 q4 -29 5.5 -48.5t8.5 -22.5v-4h-54q-7 2 -8.5 21.5t-3.5 43.5q-3 48 -53 48h-51z" glyph-name="registered" unicode="®"/><glyph d="M189 734h273v-75h-273v75z" glyph-name="macron" unicode="¯"/><glyph d="M325 352q-40 0 -75 14.5t-61 40t-41 60t-15 73.5t15 73.5t41 60t61 40.5t75 15t75 -15t61.5 -40.5t41.5 -60t15 -73.5t-15 -73.5t-41.5 -60t-61.5 -40t-75 -14.5zM325 417q52 0 81.5 35t29.5 88q0 52 -29.5 87.5t-81.5 35.5q-51 0 -81.5 -35.5t-30.5 -87.5 q0 -53 30.5 -88t81.5 -35z" glyph-name="degree" unicode="°"/><glyph d="M363 333v-177h-77v177h-199v73h199v176h77v-176h199v-73h-199zM87 73h475v-73h-475v73z" glyph-name="plusminus" unicode="±"/><glyph d="M156 286q1 39 14 68.5t32.5 53.5t43.5 42.5t48 34.5q22 15 42.5 27.5t36.5 27t25.5 31t9.5 38.5q0 36 -21.5 57t-58.5 21q-40 0 -62 -26t-23 -69h-77q0 74 45 118t122 44q36 0 65 -11.5t49.5 -31t31.5 -45.5t11 -56q0 -33 -10.5 -57t-28 -42.5t-40 -33t-46.5 -29.5 l-32.5 -19.5t-33.5 -22.5t-28 -25.5t-17 -28.5h235v-66h-333v0z" glyph-name="twosuperior" unicode="²"/><glyph d="M326 277q-85 0 -133.5 43t-49.5 115h75q2 -43 27.5 -69t77.5 -26q42 0 67.5 20.5t25.5 62.5q0 37 -25.5 56.5t-73.5 19.5h-29v61h28q42 0 64.5 17.5t22.5 49.5t-22 50t-57 18q-44 0 -66.5 -24.5t-24.5 -62.5h-76q1 32 12.5 59t33 46.5t52.5 30.5t70 11q68 0 111.5 -33.5 t43.5 -92.5q0 -38 -21.5 -61t-59.5 -34v-2q98 -22 98 -115q0 -35 -13.5 -61t-37 -43.5t-54.5 -26.5t-66 -9z" glyph-name="threesuperior" unicode="³"/><glyph d="M332 770h114l-89 -145h-78z" glyph-name="acute" unicode="´"/><glyph d="M110 537h93v-365q0 -51 29.5 -79.5t83.5 -28.5q30 0 53.5 11t40.5 30.5t26 46.5t9 58v327h93v-537h-92v73h-2q-29 -40 -63 -62.5t-83 -22.5q-33 0 -55.5 7.5t-39.5 26.5h-3q0 -11 1 -26q1 -13 1.5 -31.5t0.5 -41.5v-105h-93v719z" glyph-name="mu" unicode="µ"/><glyph d="M276 365q-103 0 -155.5 51t-52.5 140q0 42 14 76.5t39 60.5t63 38.5t88 12.5h271v-884h-68v800h-102v-800h-68v505h-29z" glyph-name="paragraph" unicode="¶"/><glyph d="M271 381h108v-110h-108v110z" glyph-name="periodcentered" unicode="·"/><glyph d="M302 -208q-38 0 -65 9t-46 22l16 31q35 -16 75 -16q26 0 44.5 7.5t18.5 27.5q0 18 -12 25.5t-30 7.5q-14 0 -24 -2t-19 -5l-16 25l73 76h59l-64 -56v-2q15 2 33 0t33.5 -9.5t26 -22t10.5 -37.5q0 -40 -31.5 -60.5t-81.5 -20.5z" glyph-name="cedilla" unicode="¸"/><glyph d="M324 609h-111v53q47 1 81.5 20t40.5 66h69v-462h-80v323z" glyph-name="onesuperior" unicode="¹"/><glyph d="M326 232q-54 0 -96.5 19.5t-72.5 53t-46 78.5t-16 97t16 97t46 79t72.5 53.5t96.5 19.5t96.5 -19.5t72 -53.5t45 -79t15.5 -97t-15.5 -97t-45 -78.5t-72 -53t-96.5 -19.5zM326 301q35 0 61 13.5t43.5 37.5t26 57t8.5 71t-8.5 71t-26 57t-43.5 38t-61 14t-61.5 -14 t-44 -38t-26 -57t-8.5 -71t8.5 -71t26 -57t44 -37.5t61.5 -13.5z" glyph-name="ordmasculine" unicode="º"/><glyph d="M503 329v-97l-149 -150v100l99 97v2l-99 98v100zM296 329v-97l-150 -150v100l100 97v2l-100 98v100z" glyph-name="guillemotright" unicode="»"/><glyph d="M87 307h476v-53h-476v53zM303 619h-95v51q42 2 71.5 18t35.5 57h64v-388h-76v262zM198 -47l22 2q9 1 19.5 1.5t19.5 0.5h79v101q0 10 0.5 21.5t2.5 22.5q1 12 3 24h-3q-8 -11 -15 -22q-7 -9 -14 -19t-14 -18l-53 -63q-7 -8 -14.5 -16t-15.5 -16l-17 -17v-2zM412 -100v-86 h-74v86h-191v71l191 232h74v-246h61v-57h-61z" glyph-name="onequarter" unicode="¼"/><glyph d="M87 307h476v-53h-476v53zM303 619h-95v51q42 2 71.5 18t35.5 57h64v-388h-76v262zM178 -187q1 31 11 55.5t26 44t35.5 35t39.5 29.5q20 13 38.5 24.5t32.5 23t22.5 25.5t8.5 32q0 28 -17 44.5t-47 16.5q-32 0 -50.5 -20.5t-19.5 -55.5h-72q0 64 39.5 101t106.5 37 q31 0 56.5 -9.5t43.5 -26t27.5 -38.5t9.5 -47q0 -26 -8.5 -45t-22 -34t-31 -26.5t-35.5 -23.5q-14 -9 -29 -18t-29 -19t-25.5 -20.5t-16.5 -22.5h196v-62h-290v0z" glyph-name="onehalf" unicode="½"/><glyph d="M87 307h476v-53h-476v53zM320 348q-75 0 -117 37t-42 96h71q2 -32 22 -52.5t62 -20.5q35 0 55 16t20 48q0 60 -80 60h-24v56h22q35 0 53.5 13.5t18.5 38.5q0 26 -17.5 40t-46.5 14q-35 0 -53 -19.5t-20 -47.5h-72q2 54 40 88.5t107 34.5q60 0 97.5 -28t37.5 -79 q0 -31 -18 -50t-51 -29v-1q83 -19 83 -96q0 -30 -11.5 -52t-32 -37t-47.5 -22.5t-57 -7.5zM208 -48l22 2q9 1 19.5 1.5t19.5 0.5h79v101q0 10 0.5 21.5t2.5 22.5q1 12 3 24h-3q-8 -11 -15 -22q-7 -9 -14 -19t-14 -18l-53 -63q-7 -8 -14.5 -16t-15.5 -16l-17 -17v-2z M422 -101v-86h-74v86h-191v71l191 232h74v-246h61v-57h-61z" glyph-name="threequarters" unicode="¾"/><glyph d="M394 502h-109v110h109v-110zM382 396q0 -38 -6 -66t-19 -52t-33 -45.5t-48 -46.5q-17 -15 -33 -29.5t-28 -30t-19.5 -34.5t-7.5 -43q0 -48 34 -80t97 -32q39 0 68 12t48.5 33.5t30 50.5t12.5 63h93q-1 -45 -16.5 -88.5t-46.5 -77.5t-78 -54.5t-112 -20.5q-53 0 -95.5 15 t-72 40.5t-45 60.5t-15.5 76q0 31 7.5 55.5t20.5 44.5t30 37t35 32q33 27 54 46.5t34 37.5q14 19 19 41t6 55h86z" glyph-name="questiondown" unicode="¿"/><glyph d="M235 287h174l-50 191q-8 27 -14 56.5t-11 54.5q-5 29 -10 57h-2q-5 -29 -11 -58q-5 -25 -11.5 -54.5t-13.5 -55.5zM429 207h-215l-55 -207h-102l207 744h120l209 -744h-110zM204 910h114l53 -125h-78z" glyph-name="Agrave" unicode="À"/><glyph d="M235 287h174l-50 191q-8 27 -14 56.5t-11 54.5q-5 29 -10 57h-2q-5 -29 -11 -58q-5 -25 -11.5 -54.5t-13.5 -55.5zM429 207h-215l-55 -207h-102l207 744h120l209 -744h-110zM332 910h114l-89 -125h-78z" glyph-name="Aacute" unicode="Á"/><glyph d="M235 287h174l-50 191q-8 27 -14 56.5t-11 54.5q-5 29 -10 57h-2q-5 -29 -11 -58q-5 -25 -11.5 -54.5t-13.5 -55.5zM429 207h-215l-55 -207h-102l207 744h120l209 -744h-110zM275 898h103l98 -113h-96l-54 61h-2l-56 -61h-94z" glyph-name="Acircumflex" unicode="Â"/><glyph d="M235 287h174l-50 191q-8 27 -14 56.5t-11 54.5q-5 29 -10 57h-2q-5 -29 -11 -58q-5 -25 -11.5 -54.5t-13.5 -55.5zM429 207h-215l-55 -207h-102l207 744h120l209 -744h-110zM390 786q-20 0 -37.5 6t-33 13.5t-29 13.5t-23.5 6q-12 0 -19.5 -11.5t-9.5 -26.5h-64 q2 52 24 79.5t60 27.5q21 0 37.5 -6t31 -13.5t27.5 -13.5t27 -6q15 0 20.5 11.5t7.5 25.5h64q-2 -50 -21.5 -78t-61.5 -28z" glyph-name="Atilde" unicode="Ã"/><glyph d="M235 287h174l-50 191q-8 27 -14 56.5t-11 54.5q-5 29 -10 57h-2q-5 -29 -11 -58q-5 -25 -11.5 -54.5t-13.5 -55.5zM429 207h-215l-55 -207h-102l207 744h120l209 -744h-110zM177 893h94v-108h-94v108zM379 893h94v-108h-94v108z" glyph-name="Adieresis" unicode="Ä"/><glyph d="M235 287h174l-50 191q-8 27 -14 56.5t-11 54.5q-5 29 -10 57h-2q-5 -29 -11 -58q-5 -25 -11.5 -54.5t-13.5 -55.5zM429 207h-215l-55 -207h-102l207 744h120l209 -744h-110zM325 778q-21 0 -40 8t-33 21.5t-22 32t-8 39.5t8 39t22 31.5t33 21t40 7.5t39.5 -7.5t32.5 -21 t22 -31.5t8 -39t-8 -39.5t-22 -32t-32.5 -21.5t-39.5 -8zM325 820q24 0 39.5 16.5t15.5 42.5q0 25 -15.5 41.5t-39.5 16.5q-25 0 -40.5 -16.5t-15.5 -41.5q0 -26 15.5 -42.5t40.5 -16.5z" glyph-name="Aring" unicode="Å"/><glyph d="M191 299h114v355h-50zM305 217h-129l-39 -217h-103l144 744h411v-90h-185v-225h144v-85h-144v-250h197v-94h-296v217z" glyph-name="AE" unicode="Æ"/><glyph d="M341 -15q-131 0 -199.5 101.5t-68.5 285.5q0 90 18 161.5t52 122t83.5 77.5t113.5 27q106 0 167.5 -62t67.5 -179h-102q-2 42 -12.5 71t-28 47t-41.5 26t-52 8q-81 0 -121.5 -77.5t-40.5 -221.5q0 -149 45 -223.5t120 -74.5q65 0 100.5 49.5t38.5 147.5h100 q-1 -65 -17 -118t-46.5 -90.5t-75 -57.5t-101.5 -20zM302 -208q-38 0 -65 9t-46 22l16 31q35 -16 75 -16q26 0 44.5 7.5t18.5 27.5q0 18 -12 25.5t-30 7.5q-14 0 -24 -2t-19 -5l-16 25l73 76h59l-64 -56v-2q15 2 33 0t33.5 -9.5t26 -22t10.5 -37.5q0 -40 -31.5 -60.5 t-81.5 -20.5z" glyph-name="Ccedilla" unicode="Ç"/><glyph d="M561 0h-463v744h457v-90h-355v-225h320v-85h-320v-251h361v-93zM204 910h114l53 -125h-78z" glyph-name="Egrave" unicode="È"/><glyph d="M561 0h-463v744h457v-90h-355v-225h320v-85h-320v-251h361v-93zM332 910h114l-89 -125h-78z" glyph-name="Eacute" unicode="É"/><glyph d="M561 0h-463v744h457v-90h-355v-225h320v-85h-320v-251h361v-93zM275 898h103l98 -113h-96l-54 61h-2l-56 -61h-94z" glyph-name="Ecircumflex" unicode="Ê"/><glyph d="M561 0h-463v744h457v-90h-355v-225h320v-85h-320v-251h361v-93zM177 893h94v-108h-94v108zM379 893h94v-108h-94v108z" glyph-name="Edieresis" unicode="Ë"/><glyph d="M271 744h108v-744h-108v744zM204 910h114l53 -125h-78z" glyph-name="Igrave" unicode="Ì"/><glyph d="M271 744h108v-744h-108v744zM332 910h114l-89 -125h-78z" glyph-name="Iacute" unicode="Í"/><glyph d="M271 744h108v-744h-108v744zM275 898h103l98 -113h-96l-54 61h-2l-56 -61h-94z" glyph-name="Icircumflex" unicode="Î"/><glyph d="M271 744h108v-744h-108v744zM177 893h94v-108h-94v108zM379 893h94v-108h-94v108z" glyph-name="Idieresis" unicode="Ï"/><glyph d="M113 0v331h-61v86h61v327h171q152 0 223.5 -96t71.5 -279q0 -182 -72 -275.5t-229 -93.5h-165zM271 89q57 0 96 17t62.5 51.5t34 87t10.5 124.5t-10 125.5t-33.5 89t-61.5 53.5t-94 18h-60v-238h139v-86h-139v-242h56z" glyph-name="Eth" unicode="Ð"/><glyph d="M98 744h107l188 -411q16 -35 28.5 -68.5t21.5 -59.5q11 -31 19 -59h4q-2 20 -4 51q-2 26 -3 65.5t-1 93.5v388h94v-744h-106l-187 414q-16 35 -29 68.5t-22 59.5q-11 31 -19 58h-3l3 -51q1 -26 2 -64.5t1 -91.5v-393h-94v744zM390 786q-20 0 -37.5 6t-33 13.5t-29 13.5 t-23.5 6q-12 0 -19.5 -11.5t-9.5 -26.5h-64q2 52 24 79.5t60 27.5q21 0 37.5 -6t31 -13.5t27.5 -13.5t27 -6q15 0 20.5 11.5t7.5 25.5h64q-2 -50 -21.5 -78t-61.5 -28z" glyph-name="Ntilde" unicode="Ñ"/><glyph d="M325 -16q-61 0 -108.5 27.5t-79.5 78.5t-49 122.5t-17 159.5t16 159.5t47.5 122.5t79.5 78.5t111 27.5t111 -27.5t79.5 -78.5t47.5 -122.5t16 -159.5t-17 -159.5t-49 -122.5t-79.5 -78.5t-108.5 -27.5zM326 74q39 0 67 21t46 60t26.5 94t8.5 123q0 69 -8 124.5t-26 94.5 t-46 60t-68 21t-68.5 -21t-47 -60t-27 -94.5t-8.5 -124.5q0 -68 8.5 -123t27 -94t47 -60t68.5 -21zM204 910h114l53 -125h-78z" glyph-name="Ograve" unicode="Ò"/><glyph d="M325 -16q-61 0 -108.5 27.5t-79.5 78.5t-49 122.5t-17 159.5t16 159.5t47.5 122.5t79.5 78.5t111 27.5t111 -27.5t79.5 -78.5t47.5 -122.5t16 -159.5t-17 -159.5t-49 -122.5t-79.5 -78.5t-108.5 -27.5zM326 74q39 0 67 21t46 60t26.5 94t8.5 123q0 69 -8 124.5t-26 94.5 t-46 60t-68 21t-68.5 -21t-47 -60t-27 -94.5t-8.5 -124.5q0 -68 8.5 -123t27 -94t47 -60t68.5 -21zM332 910h114l-89 -125h-78z" glyph-name="Oacute" unicode="Ó"/><glyph d="M325 -16q-61 0 -108.5 27.5t-79.5 78.5t-49 122.5t-17 159.5t16 159.5t47.5 122.5t79.5 78.5t111 27.5t111 -27.5t79.5 -78.5t47.5 -122.5t16 -159.5t-17 -159.5t-49 -122.5t-79.5 -78.5t-108.5 -27.5zM326 74q39 0 67 21t46 60t26.5 94t8.5 123q0 69 -8 124.5t-26 94.5 t-46 60t-68 21t-68.5 -21t-47 -60t-27 -94.5t-8.5 -124.5q0 -68 8.5 -123t27 -94t47 -60t68.5 -21zM275 898h103l98 -113h-96l-54 61h-2l-56 -61h-94z" glyph-name="Ocircumflex" unicode="Ô"/><glyph d="M325 -16q-61 0 -108.5 27.5t-79.5 78.5t-49 122.5t-17 159.5t16 159.5t47.5 122.5t79.5 78.5t111 27.5t111 -27.5t79.5 -78.5t47.5 -122.5t16 -159.5t-17 -159.5t-49 -122.5t-79.5 -78.5t-108.5 -27.5zM326 74q39 0 67 21t46 60t26.5 94t8.5 123q0 69 -8 124.5t-26 94.5 t-46 60t-68 21t-68.5 -21t-47 -60t-27 -94.5t-8.5 -124.5q0 -68 8.5 -123t27 -94t47 -60t68.5 -21zM390 786q-20 0 -37.5 6t-33 13.5t-29 13.5t-23.5 6q-12 0 -19.5 -11.5t-9.5 -26.5h-64q2 52 24 79.5t60 27.5q21 0 37.5 -6t31 -13.5t27.5 -13.5t27 -6q15 0 20.5 11.5 t7.5 25.5h64q-2 -50 -21.5 -78t-61.5 -28z" glyph-name="Otilde" unicode="Õ"/><glyph d="M325 -16q-61 0 -108.5 27.5t-79.5 78.5t-49 122.5t-17 159.5t16 159.5t47.5 122.5t79.5 78.5t111 27.5t111 -27.5t79.5 -78.5t47.5 -122.5t16 -159.5t-17 -159.5t-49 -122.5t-79.5 -78.5t-108.5 -27.5zM326 74q39 0 67 21t46 60t26.5 94t8.5 123q0 69 -8 124.5t-26 94.5 t-46 60t-68 21t-68.5 -21t-47 -60t-27 -94.5t-8.5 -124.5q0 -68 8.5 -123t27 -94t47 -60t68.5 -21zM177 893h94v-108h-94v108zM379 893h94v-108h-94v108z" glyph-name="Odieresis" unicode="Ö"/><glyph d="M325 288l-169 -170l-51 49l170 172l-170 171l51 50l169 -170l168 170l52 -50l-170 -171l170 -171l-52 -50z" glyph-name="multiply" unicode="×"/><glyph d="M175 372q0 -114 21 -184l225 440q-35 44 -95 44q-40 0 -68.5 -21t-47 -60t-27 -94.5t-8.5 -124.5zM326 74q39 0 67 21t46 60t26.5 94t8.5 123q0 59 -5 106t-16 83l-225 -440q36 -47 98 -47zM325 -16q-82 0 -141 51l-44 -86l-54 25l56 109q-35 51 -53 124.5t-18 164.5 q0 88 16 159.5t47.5 122.5t79.5 78.5t111 27.5q42 0 76.5 -12t62.5 -35l41 79l54 -24l-52 -101q36 -51 54 -126t18 -169q0 -88 -17 -159.5t-49 -122.5t-79.5 -78.5t-108.5 -27.5z" glyph-name="Oslash" unicode="Ø"/><glyph d="M326 -11q-54 0 -97 13t-73.5 41t-47 73t-16.5 108v520h102v-511q0 -84 31.5 -120.5t97.5 -36.5q72 0 102.5 36.5t30.5 120.5v511h102v-520q0 -63 -16 -108t-46 -73t-73 -41t-97 -13zM204 910h114l53 -125h-78z" glyph-name="Ugrave" unicode="Ù"/><glyph d="M326 -11q-54 0 -97 13t-73.5 41t-47 73t-16.5 108v520h102v-511q0 -84 31.5 -120.5t97.5 -36.5q72 0 102.5 36.5t30.5 120.5v511h102v-520q0 -63 -16 -108t-46 -73t-73 -41t-97 -13zM332 910h114l-89 -125h-78z" glyph-name="Uacute" unicode="Ú"/><glyph d="M326 -11q-54 0 -97 13t-73.5 41t-47 73t-16.5 108v520h102v-511q0 -84 31.5 -120.5t97.5 -36.5q72 0 102.5 36.5t30.5 120.5v511h102v-520q0 -63 -16 -108t-46 -73t-73 -41t-97 -13zM275 898h103l98 -113h-96l-54 61h-2l-56 -61h-94z" glyph-name="Ucircumflex" unicode="Û"/><glyph d="M326 -11q-54 0 -97 13t-73.5 41t-47 73t-16.5 108v520h102v-511q0 -84 31.5 -120.5t97.5 -36.5q72 0 102.5 36.5t30.5 120.5v511h102v-520q0 -63 -16 -108t-46 -73t-73 -41t-97 -13zM177 893h94v-108h-94v108zM379 893h94v-108h-94v108z" glyph-name="Udieresis" unicode="Ü"/><glyph d="M273 0v308l-196 436h112l81 -202q8 -20 18 -46.5t18 -49.5q10 -27 19 -55h1q9 28 20 55q8 23 18.5 49.5t18.5 46.5l81 202h108l-197 -438v-306h-102zM332 910h114l-89 -125h-78z" glyph-name="Yacute" unicode="Ý"/><glyph d="M201 525v-266h127q72 0 105.5 36t33.5 98q0 66 -34.5 99t-100.5 33h-131zM201 176v-176h-103v744h103v-129h147q53 0 94.5 -16.5t69.5 -45.5t42.5 -69t14.5 -87q0 -103 -56.5 -162t-174.5 -59h-137z" glyph-name="Thorn" unicode="Þ"/><glyph d="M332 -11q-13 0 -27.5 1.5t-27.5 4.5v73h2q41 -8 76 -1t60.5 27t40 52t14.5 75q0 75 -40.5 117t-117.5 42h-28v67h29q57 0 92.5 33.5t35.5 88.5q0 49 -30 79t-85 30q-58 0 -88.5 -33t-30.5 -87v-558h-93v563q0 42 14.5 77t42.5 60t68 39t90 14q43 0 80 -13t64.5 -36.5 t43 -57t15.5 -73.5q0 -114 -122 -152v-2q70 -17 112 -65.5t42 -130.5q0 -54 -16 -97.5t-46 -73.5t-73 -46.5t-97 -16.5z" glyph-name="germandbls" unicode="ß"/><glyph d="M296 57q40 0 68.5 13.5t47 34t27 45.5t8.5 48v89q-20 -14 -52 -23.5t-65 -15.5t-58.5 -12.5t-43 -18t-26.5 -29t-9 -45.5q0 -26 8.5 -42.5t22.5 -26.5t33 -13.5t39 -3.5zM273 -11q-38 0 -70.5 9.5t-56.5 28.5t-37.5 47.5t-13.5 67.5q0 47 15 77t43.5 48t69.5 28t93 16 q30 3 54 8t41 13.5t26 22t9 34.5q0 43 -29.5 68t-85.5 25q-64 0 -93 -28t-31 -76h-90q1 34 14.5 65t39.5 55t65.5 38t93.5 14q40 0 73.5 -7t59.5 -24q33 -20 51 -55t18 -89v-289q0 -36 6 -54t14 -23v-9h-89q-7 8 -11.5 24.5t-6.5 49.5h-2q-13 -17 -29 -32.5t-36 -27 t-46 -18.5t-59 -7zM204 770h114l53 -145h-78z" glyph-name="agrave" unicode="à"/><glyph d="M296 57q40 0 68.5 13.5t47 34t27 45.5t8.5 48v89q-20 -14 -52 -23.5t-65 -15.5t-58.5 -12.5t-43 -18t-26.5 -29t-9 -45.5q0 -26 8.5 -42.5t22.5 -26.5t33 -13.5t39 -3.5zM273 -11q-38 0 -70.5 9.5t-56.5 28.5t-37.5 47.5t-13.5 67.5q0 47 15 77t43.5 48t69.5 28t93 16 q30 3 54 8t41 13.5t26 22t9 34.5q0 43 -29.5 68t-85.5 25q-64 0 -93 -28t-31 -76h-90q1 34 14.5 65t39.5 55t65.5 38t93.5 14q40 0 73.5 -7t59.5 -24q33 -20 51 -55t18 -89v-289q0 -36 6 -54t14 -23v-9h-89q-7 8 -11.5 24.5t-6.5 49.5h-2q-13 -17 -29 -32.5t-36 -27 t-46 -18.5t-59 -7zM332 770h114l-89 -145h-78z" glyph-name="aacute" unicode="á"/><glyph d="M296 57q40 0 68.5 13.5t47 34t27 45.5t8.5 48v89q-20 -14 -52 -23.5t-65 -15.5t-58.5 -12.5t-43 -18t-26.5 -29t-9 -45.5q0 -26 8.5 -42.5t22.5 -26.5t33 -13.5t39 -3.5zM273 -11q-38 0 -70.5 9.5t-56.5 28.5t-37.5 47.5t-13.5 67.5q0 47 15 77t43.5 48t69.5 28t93 16 q30 3 54 8t41 13.5t26 22t9 34.5q0 43 -29.5 68t-85.5 25q-64 0 -93 -28t-31 -76h-90q1 34 14.5 65t39.5 55t65.5 38t93.5 14q40 0 73.5 -7t59.5 -24q33 -20 51 -55t18 -89v-289q0 -36 6 -54t14 -23v-9h-89q-7 8 -11.5 24.5t-6.5 49.5h-2q-13 -17 -29 -32.5t-36 -27 t-46 -18.5t-59 -7zM275 752h103l94 -123h-94l-52 75h-2l-54 -75h-92z" glyph-name="acircumflex" unicode="â"/><glyph d="M296 57q40 0 68.5 13.5t47 34t27 45.5t8.5 48v89q-20 -14 -52 -23.5t-65 -15.5t-58.5 -12.5t-43 -18t-26.5 -29t-9 -45.5q0 -26 8.5 -42.5t22.5 -26.5t33 -13.5t39 -3.5zM273 -11q-38 0 -70.5 9.5t-56.5 28.5t-37.5 47.5t-13.5 67.5q0 47 15 77t43.5 48t69.5 28t93 16 q30 3 54 8t41 13.5t26 22t9 34.5q0 43 -29.5 68t-85.5 25q-64 0 -93 -28t-31 -76h-90q1 34 14.5 65t39.5 55t65.5 38t93.5 14q40 0 73.5 -7t59.5 -24q33 -20 51 -55t18 -89v-289q0 -36 6 -54t14 -23v-9h-89q-7 8 -11.5 24.5t-6.5 49.5h-2q-13 -17 -29 -32.5t-36 -27 t-46 -18.5t-59 -7zM390 631q-20 0 -37.5 6t-33 13.5t-29 13.5t-23.5 6q-12 0 -19.5 -11.5t-9.5 -26.5h-64q2 52 24 79.5t60 27.5q21 0 37.5 -6t31 -13.5t27.5 -13.5t27 -6q15 0 20.5 11.5t7.5 25.5h64q-2 -50 -21.5 -78t-61.5 -28z" glyph-name="atilde" unicode="ã"/><glyph d="M296 57q40 0 68.5 13.5t47 34t27 45.5t8.5 48v89q-20 -14 -52 -23.5t-65 -15.5t-58.5 -12.5t-43 -18t-26.5 -29t-9 -45.5q0 -26 8.5 -42.5t22.5 -26.5t33 -13.5t39 -3.5zM273 -11q-38 0 -70.5 9.5t-56.5 28.5t-37.5 47.5t-13.5 67.5q0 47 15 77t43.5 48t69.5 28t93 16 q30 3 54 8t41 13.5t26 22t9 34.5q0 43 -29.5 68t-85.5 25q-64 0 -93 -28t-31 -76h-90q1 34 14.5 65t39.5 55t65.5 38t93.5 14q40 0 73.5 -7t59.5 -24q33 -20 51 -55t18 -89v-289q0 -36 6 -54t14 -23v-9h-89q-7 8 -11.5 24.5t-6.5 49.5h-2q-13 -17 -29 -32.5t-36 -27 t-46 -18.5t-59 -7zM180 744h92v-108h-92v108zM378 744h92v-108h-92v108z" glyph-name="adieresis" unicode="ä"/><glyph d="M296 57q40 0 68.5 13.5t47 34t27 45.5t8.5 48v89q-20 -14 -52 -23.5t-65 -15.5t-58.5 -12.5t-43 -18t-26.5 -29t-9 -45.5q0 -26 8.5 -42.5t22.5 -26.5t33 -13.5t39 -3.5zM273 -11q-38 0 -70.5 9.5t-56.5 28.5t-37.5 47.5t-13.5 67.5q0 47 15 77t43.5 48t69.5 28t93 16 q30 3 54 8t41 13.5t26 22t9 34.5q0 43 -29.5 68t-85.5 25q-64 0 -93 -28t-31 -76h-90q1 34 14.5 65t39.5 55t65.5 38t93.5 14q40 0 73.5 -7t59.5 -24q33 -20 51 -55t18 -89v-289q0 -36 6 -54t14 -23v-9h-89q-7 8 -11.5 24.5t-6.5 49.5h-2q-13 -17 -29 -32.5t-36 -27 t-46 -18.5t-59 -7zM325 599q-21 0 -40 8t-33 21.5t-22 32t-8 39.5t8 39t22 31.5t33 21t40 7.5t39.5 -7.5t32.5 -21t22 -31.5t8 -39t-8 -39.5t-22 -32t-32.5 -21.5t-39.5 -8zM325 641q24 0 39.5 16.5t15.5 42.5q0 25 -15.5 41.5t-39.5 16.5q-25 0 -40.5 -16.5t-15.5 -41.5 q0 -26 15.5 -42.5t40.5 -16.5z" glyph-name="aring" unicode="å"/><glyph d="M439 478q-32 0 -54.5 -37.5t-26.5 -127.5h148q-3 91 -18 128t-49 37zM193 57q35 0 57.5 28t22.5 91v126q-9 -14 -26.5 -26.5t-38.5 -23.5q-15 -8 -28.5 -16t-23 -20t-15.5 -31.5t-6 -49.5q0 -41 16 -59.5t42 -18.5zM592 145q-3 -36 -15 -65t-31 -49.5t-44 -31.5t-53 -11 q-50 0 -82.5 25.5t-51.5 70.5h-3q-19 -50 -51.5 -73t-80.5 -23q-29 0 -53.5 10.5t-42 30t-27.5 46.5t-10 60q0 44 11.5 72.5t31.5 48t46.5 32.5t55.5 25q15 6 29.5 13.5t25 18.5t17 27t6.5 39q0 39 -15.5 56t-41.5 17q-29 0 -47 -23t-20 -71h-80q1 34 10.5 63t27.5 50.5 t45 34t63 12.5q42 0 72 -16.5t47 -54.5q20 33 48 52t64 19q46 0 76 -21.5t47.5 -61t24.5 -95.5t6 -126h-240q2 -97 24.5 -141t63.5 -44q57 0 66 84h81z" glyph-name="ae" unicode="æ"/><glyph d="M341 -15q-61 0 -109 22t-81.5 60.5t-51.5 90t-18 110.5q0 58 18 109.5t51.5 90t81.5 60.5t109 22q97 0 157.5 -50.5t74.5 -137.5h-93q-9 53 -44.5 83t-94.5 30q-42 0 -73 -16t-51.5 -44t-30.5 -66t-10 -81q0 -44 10 -81.5t30.5 -65.5t51.5 -44t73 -16q63 0 99.5 34.5 t41.5 94.5h92q-8 -97 -69 -151t-164 -54zM302 -208q-38 0 -65 9t-46 22l16 31q35 -16 75 -16q26 0 44.5 7.5t18.5 27.5q0 18 -12 25.5t-30 7.5q-14 0 -24 -2t-19 -5l-16 25l73 76h59l-64 -56v-2q15 2 33 0t33.5 -9.5t26 -22t10.5 -37.5q0 -40 -31.5 -60.5t-81.5 -20.5z" glyph-name="ccedilla" unicode="ç"/><glyph d="M328 478q-36 0 -63 -12.5t-45.5 -34.5t-30 -52t-15.5 -66h300q-4 78 -40.5 121.5t-105.5 43.5zM562 153q-16 -75 -75.5 -121.5t-153.5 -46.5q-61 0 -108.5 22t-80 60.5t-49.5 90t-17 110.5q0 58 17.5 109.5t50.5 90t79 60.5t103 22q53 0 94 -17t71 -49q39 -41 59 -102 t20 -136h-400q2 -39 13.5 -73t31.5 -59t49.5 -39t67.5 -14q56 0 91 24.5t46 67.5h91zM204 770h114l53 -145h-78z" glyph-name="egrave" unicode="è"/><glyph d="M328 478q-36 0 -63 -12.5t-45.5 -34.5t-30 -52t-15.5 -66h300q-4 78 -40.5 121.5t-105.5 43.5zM562 153q-16 -75 -75.5 -121.5t-153.5 -46.5q-61 0 -108.5 22t-80 60.5t-49.5 90t-17 110.5q0 58 17.5 109.5t50.5 90t79 60.5t103 22q53 0 94 -17t71 -49q39 -41 59 -102 t20 -136h-400q2 -39 13.5 -73t31.5 -59t49.5 -39t67.5 -14q56 0 91 24.5t46 67.5h91zM332 770h114l-89 -145h-78z" glyph-name="eacute" unicode="é"/><glyph d="M328 478q-36 0 -63 -12.5t-45.5 -34.5t-30 -52t-15.5 -66h300q-4 78 -40.5 121.5t-105.5 43.5zM562 153q-16 -75 -75.5 -121.5t-153.5 -46.5q-61 0 -108.5 22t-80 60.5t-49.5 90t-17 110.5q0 58 17.5 109.5t50.5 90t79 60.5t103 22q53 0 94 -17t71 -49q39 -41 59 -102 t20 -136h-400q2 -39 13.5 -73t31.5 -59t49.5 -39t67.5 -14q56 0 91 24.5t46 67.5h91zM275 752h103l94 -123h-94l-52 75h-2l-54 -75h-92z" glyph-name="ecircumflex" unicode="ê"/><glyph d="M328 478q-36 0 -63 -12.5t-45.5 -34.5t-30 -52t-15.5 -66h300q-4 78 -40.5 121.5t-105.5 43.5zM562 153q-16 -75 -75.5 -121.5t-153.5 -46.5q-61 0 -108.5 22t-80 60.5t-49.5 90t-17 110.5q0 58 17.5 109.5t50.5 90t79 60.5t103 22q53 0 94 -17t71 -49q39 -41 59 -102 t20 -136h-400q2 -39 13.5 -73t31.5 -59t49.5 -39t67.5 -14q56 0 91 24.5t46 67.5h91zM180 744h92v-108h-92v108zM378 744h92v-108h-92v108z" glyph-name="edieresis" unicode="ë"/><glyph d="M318 0v456h-157v81h250v-537h-93zM204 770h114l53 -145h-78z" glyph-name="igrave" unicode="ì"/><glyph d="M318 0v456h-157v81h250v-537h-93zM332 770h114l-89 -145h-78z" glyph-name="iacute" unicode="í"/><glyph d="M318 0v456h-157v81h250v-537h-93zM275 752h103l94 -123h-94l-52 75h-2l-54 -75h-92z" glyph-name="icircumflex" unicode="î"/><glyph d="M318 0v456h-157v81h250v-537h-93zM200 744h92v-108h-92v108zM398 744h92v-108h-92v108z" glyph-name="idieresis" unicode="ï"/><glyph d="M326 -15q-58 0 -103.5 22t-76.5 60.5t-47 90t-16 110.5q0 58 15.5 109.5t45 89t72.5 59.5t99 22q38 0 66 -11.5t54 -43.5h3q-17 38 -43 71.5t-56 63.5l-140 -42l-16 48l111 33q-23 20 -45.5 37t-44.5 33v7h117q35 -22 66 -49l110 33l17 -48l-84 -25q28 -30 52.5 -66.5 t42.5 -81.5t28.5 -99t10.5 -118q0 -67 -15.5 -123t-45.5 -96.5t-74.5 -63t-102.5 -22.5zM325 61q38 0 65.5 16t45 44t25.5 65.5t8 81.5q0 43 -8 81t-25.5 66.5t-45 44.5t-65.5 16t-66 -16t-46 -44.5t-26.5 -66.5t-8.5 -81q0 -44 8.5 -81.5t26.5 -65.5t46 -44t66 -16z" glyph-name="eth" unicode="ð"/><glyph d="M204 0h-92v537h90v-76h3q28 41 67.5 65t95.5 24q81 0 126.5 -45t45.5 -130v-375h-92v364q0 52 -29 80t-81 28q-29 0 -53.5 -10.5t-42.5 -29.5t-28 -46t-10 -59v-327zM390 631q-20 0 -37.5 6t-33 13.5t-29 13.5t-23.5 6q-12 0 -19.5 -11.5t-9.5 -26.5h-64q2 52 24 79.5 t60 27.5q21 0 37.5 -6t31 -13.5t27.5 -13.5t27 -6q15 0 20.5 11.5t7.5 25.5h64q-2 -50 -21.5 -78t-61.5 -28z" glyph-name="ntilde" unicode="ñ"/><glyph d="M326 -15q-58 0 -103.5 22t-76.5 60.5t-47 90t-16 110.5q0 58 16 109.5t47 90t76.5 60.5t103.5 22t102.5 -22t75.5 -60.5t47 -90t16 -109.5q0 -59 -16 -110.5t-47 -90t-75.5 -60.5t-102.5 -22zM325 61q38 0 66 16t46 44t26.5 65.5t8.5 81.5q0 43 -8.5 81t-26.5 66.5 t-46 44.5t-66 16t-66 -16t-46 -44.5t-26.5 -66.5t-8.5 -81q0 -44 8.5 -81.5t26.5 -65.5t46 -44t66 -16zM204 770h114l53 -145h-78z" glyph-name="ograve" unicode="ò"/><glyph d="M326 -15q-58 0 -103.5 22t-76.5 60.5t-47 90t-16 110.5q0 58 16 109.5t47 90t76.5 60.5t103.5 22t102.5 -22t75.5 -60.5t47 -90t16 -109.5q0 -59 -16 -110.5t-47 -90t-75.5 -60.5t-102.5 -22zM325 61q38 0 66 16t46 44t26.5 65.5t8.5 81.5q0 43 -8.5 81t-26.5 66.5 t-46 44.5t-66 16t-66 -16t-46 -44.5t-26.5 -66.5t-8.5 -81q0 -44 8.5 -81.5t26.5 -65.5t46 -44t66 -16zM332 770h114l-89 -145h-78z" glyph-name="oacute" unicode="ó"/><glyph d="M326 -15q-58 0 -103.5 22t-76.5 60.5t-47 90t-16 110.5q0 58 16 109.5t47 90t76.5 60.5t103.5 22t102.5 -22t75.5 -60.5t47 -90t16 -109.5q0 -59 -16 -110.5t-47 -90t-75.5 -60.5t-102.5 -22zM325 61q38 0 66 16t46 44t26.5 65.5t8.5 81.5q0 43 -8.5 81t-26.5 66.5 t-46 44.5t-66 16t-66 -16t-46 -44.5t-26.5 -66.5t-8.5 -81q0 -44 8.5 -81.5t26.5 -65.5t46 -44t66 -16zM275 752h103l94 -123h-94l-52 75h-2l-54 -75h-92z" glyph-name="ocircumflex" unicode="ô"/><glyph d="M326 -15q-58 0 -103.5 22t-76.5 60.5t-47 90t-16 110.5q0 58 16 109.5t47 90t76.5 60.5t103.5 22t102.5 -22t75.5 -60.5t47 -90t16 -109.5q0 -59 -16 -110.5t-47 -90t-75.5 -60.5t-102.5 -22zM325 61q38 0 66 16t46 44t26.5 65.5t8.5 81.5q0 43 -8.5 81t-26.5 66.5 t-46 44.5t-66 16t-66 -16t-46 -44.5t-26.5 -66.5t-8.5 -81q0 -44 8.5 -81.5t26.5 -65.5t46 -44t66 -16zM390 631q-20 0 -37.5 6t-33 13.5t-29 13.5t-23.5 6q-12 0 -19.5 -11.5t-9.5 -26.5h-64q2 52 24 79.5t60 27.5q21 0 37.5 -6t31 -13.5t27.5 -13.5t27 -6q15 0 20.5 11.5 t7.5 25.5h64q-2 -50 -21.5 -78t-61.5 -28z" glyph-name="otilde" unicode="õ"/><glyph d="M326 -15q-58 0 -103.5 22t-76.5 60.5t-47 90t-16 110.5q0 58 16 109.5t47 90t76.5 60.5t103.5 22t102.5 -22t75.5 -60.5t47 -90t16 -109.5q0 -59 -16 -110.5t-47 -90t-75.5 -60.5t-102.5 -22zM325 61q38 0 66 16t46 44t26.5 65.5t8.5 81.5q0 43 -8.5 81t-26.5 66.5 t-46 44.5t-66 16t-66 -16t-46 -44.5t-26.5 -66.5t-8.5 -81q0 -44 8.5 -81.5t26.5 -65.5t46 -44t66 -16zM180 744h92v-108h-92v108zM378 744h92v-108h-92v108z" glyph-name="odieresis" unicode="ö"/><glyph d="M271 576h109v-109h-109v109zM88 376h474v-73h-474v73zM271 211h109v-108h-109v108z" glyph-name="divide" unicode="÷"/><glyph d="M178 268q0 -80 24 -132l214 308q-35 32 -91 32q-38 0 -66 -16t-46 -44.5t-26.5 -66.5t-8.5 -81zM325 61q38 0 66 16t46 44t26.5 65.5t8.5 81.5q0 79 -24 132l-213 -308q34 -31 90 -31zM326 -15q-41 0 -75 11t-62 31l-50 -73l-45 26l57 82q-33 39 -50.5 92t-17.5 114 q0 58 16 109.5t47 90t76.5 60.5t103.5 22q40 0 73.5 -10.5t60.5 -30.5l51 73l45 -26l-57 -82q33 -39 50.5 -92t17.5 -114q0 -59 -16 -110.5t-47 -90t-75.5 -60.5t-102.5 -22z" glyph-name="oslash" unicode="ø"/><glyph d="M286 -12q-80 0 -126.5 47t-46.5 132v370h93v-365q0 -51 28.5 -79.5t80.5 -28.5q28 0 51.5 11t39.5 30.5t25 46.5t9 58v327h93v-537h-91v75h-2q-27 -40 -63 -63.5t-91 -23.5zM204 770h114l53 -145h-78z" glyph-name="ugrave" unicode="ù"/><glyph d="M286 -12q-80 0 -126.5 47t-46.5 132v370h93v-365q0 -51 28.5 -79.5t80.5 -28.5q28 0 51.5 11t39.5 30.5t25 46.5t9 58v327h93v-537h-91v75h-2q-27 -40 -63 -63.5t-91 -23.5zM332 770h114l-89 -145h-78z" glyph-name="uacute" unicode="ú"/><glyph d="M286 -12q-80 0 -126.5 47t-46.5 132v370h93v-365q0 -51 28.5 -79.5t80.5 -28.5q28 0 51.5 11t39.5 30.5t25 46.5t9 58v327h93v-537h-91v75h-2q-27 -40 -63 -63.5t-91 -23.5zM275 752h103l94 -123h-94l-52 75h-2l-54 -75h-92z" glyph-name="ucircumflex" unicode="û"/><glyph d="M286 -12q-80 0 -126.5 47t-46.5 132v370h93v-365q0 -51 28.5 -79.5t80.5 -28.5q28 0 51.5 11t39.5 30.5t25 46.5t9 58v327h93v-537h-91v75h-2q-27 -40 -63 -63.5t-91 -23.5zM180 744h92v-108h-92v108zM378 744h92v-108h-92v108z" glyph-name="udieresis" unicode="ü"/><glyph d="M195 -187q-23 0 -45.5 3t-33.5 8v80h4q8 -5 23.5 -7.5t32.5 -2.5q28 0 47 13.5t33 51.5q0 1 3 10.5t7 21.5t7 23t2 13l-205 510h101l111 -298q8 -23 16 -48t15 -47q7 -26 14 -50h2q7 24 15 50q7 22 15 47t16 48l107 298h97l-228 -586q-17 -42 -33.5 -69t-35 -42.5 t-40 -21t-47.5 -5.5zM332 770h114l-89 -145h-78z" glyph-name="yacute" unicode="ý"/><glyph d="M341 61q32 0 56 15.5t40.5 42.5t24.5 64.5t8 81.5t-8 82t-24 65.5t-40 43t-56 15.5q-37 0 -64 -16t-44.5 -44t-26 -65.5t-8.5 -80.5q0 -42 8 -79.5t25 -65t44 -43.5t65 -16zM204 -182h-92v926h93v-190q0 -30 -1 -57t-2 -44h3q26 46 63.5 71.5t88.5 25.5q46 0 84.5 -19.5 t66 -56t42.5 -89t15 -118.5q0 -65 -14.5 -117t-42 -89t-66.5 -57t-88 -20t-87.5 22t-62.5 65h-2q1 -14 1.5 -37t0.5 -53v-163z" glyph-name="thorn" unicode="þ"/><glyph d="M195 -187q-23 0 -45.5 3t-33.5 8v80h4q8 -5 23.5 -7.5t32.5 -2.5q28 0 47 13.5t33 51.5q0 1 3 10.5t7 21.5t7 23t2 13l-205 510h101l111 -298q8 -23 16 -48t15 -47q7 -26 14 -50h2q7 24 15 50q7 22 15 47t16 48l107 298h97l-228 -586q-17 -42 -33.5 -69t-35 -42.5 t-40 -21t-47.5 -5.5zM180 744h92v-108h-92v108zM378 744h92v-108h-92v108z" glyph-name="ydieresis" unicode="ÿ"/><glyph d="M235 287h174l-50 191q-8 27 -14 56.5t-11 54.5q-5 29 -10 57h-2q-5 -29 -11 -58q-5 -25 -11.5 -54.5t-13.5 -55.5zM429 207h-215l-55 -207h-102l207 744h120l209 -744h-110zM183 870h285v-75h-285v75z" glyph-name="Amacron" unicode="Ā"/><glyph d="M296 57q40 0 68.5 13.5t47 34t27 45.5t8.5 48v89q-20 -14 -52 -23.5t-65 -15.5t-58.5 -12.5t-43 -18t-26.5 -29t-9 -45.5q0 -26 8.5 -42.5t22.5 -26.5t33 -13.5t39 -3.5zM273 -11q-38 0 -70.5 9.5t-56.5 28.5t-37.5 47.5t-13.5 67.5q0 47 15 77t43.5 48t69.5 28t93 16 q30 3 54 8t41 13.5t26 22t9 34.5q0 43 -29.5 68t-85.5 25q-64 0 -93 -28t-31 -76h-90q1 34 14.5 65t39.5 55t65.5 38t93.5 14q40 0 73.5 -7t59.5 -24q33 -20 51 -55t18 -89v-289q0 -36 6 -54t14 -23v-9h-89q-7 8 -11.5 24.5t-6.5 49.5h-2q-13 -17 -29 -32.5t-36 -27 t-46 -18.5t-59 -7zM189 734h273v-75h-273v75z" glyph-name="amacron" unicode="ā"/><glyph d="M235 287h174l-50 191q-8 27 -14 56.5t-11 54.5q-5 29 -10 57h-2q-5 -29 -11 -58q-5 -25 -11.5 -54.5t-13.5 -55.5zM429 207h-215l-55 -207h-102l207 744h120l209 -744h-110zM344 780q-55 0 -94 34t-42 94h66q5 -28 21 -43.5t48 -15.5q31 0 49.5 15.5t22.5 43.5h65 q-1 -27 -11 -50.5t-28 -40.5t-42.5 -27t-54.5 -10z" glyph-name="Abreve" unicode="Ă"/><glyph d="M296 57q40 0 68.5 13.5t47 34t27 45.5t8.5 48v89q-20 -14 -52 -23.5t-65 -15.5t-58.5 -12.5t-43 -18t-26.5 -29t-9 -45.5q0 -26 8.5 -42.5t22.5 -26.5t33 -13.5t39 -3.5zM273 -11q-38 0 -70.5 9.5t-56.5 28.5t-37.5 47.5t-13.5 67.5q0 47 15 77t43.5 48t69.5 28t93 16 q30 3 54 8t41 13.5t26 22t9 34.5q0 43 -29.5 68t-85.5 25q-64 0 -93 -28t-31 -76h-90q1 34 14.5 65t39.5 55t65.5 38t93.5 14q40 0 73.5 -7t59.5 -24q33 -20 51 -55t18 -89v-289q0 -36 6 -54t14 -23v-9h-89q-7 8 -11.5 24.5t-6.5 49.5h-2q-13 -17 -29 -32.5t-36 -27 t-46 -18.5t-59 -7zM335 620q-55 0 -94 34t-42 94h66q5 -28 21 -43.5t48 -15.5q31 0 49.5 15.5t22.5 43.5h65q-1 -27 -11 -50.5t-28 -40.5t-42.5 -27t-54.5 -10z" glyph-name="abreve" unicode="ă"/><glyph d="M556 -191q-57 0 -84.5 24.5t-27.5 63.5q0 19 7.5 34.5t19 28.5t25.5 23t28 17h-41l-54 207h-215l-55 -207h-102l207 744h120l209 -744q-26 -21 -44.5 -44t-18.5 -45q0 -35 43 -35q11 0 22 2t19 5h3v-65q-10 -3 -24.5 -6t-36.5 -3zM235 287h174l-50 191q-8 27 -14 56.5 t-11 54.5q-5 29 -10 57h-2q-5 -29 -11 -58q-5 -25 -11.5 -54.5t-13.5 -55.5z" glyph-name="Aogonek" unicode="Ą"/><glyph d="M515 -191q-57 0 -84.5 24.5t-27.5 63.5q0 33 21.5 57t46.5 39h-2q-11 12 -16.5 30t-7.5 51h-2q-13 -17 -29 -32.5t-36 -27t-46 -18.5t-59 -7q-38 0 -70.5 9.5t-56.5 28.5t-37.5 47.5t-13.5 67.5q0 47 15 77t43.5 48t69.5 28t93 16q30 3 54 8t41 13.5t26 22t9 34.5 q0 43 -29.5 68t-85.5 25q-64 0 -93 -28t-31 -76h-90q1 34 14.5 65t39.5 55t65.5 38t93.5 14q40 0 73.5 -7t59.5 -24q33 -20 51 -55t18 -89v-289q0 -36 6 -54t14 -23v-9q-26 -21 -44.5 -44t-18.5 -45q0 -35 43 -35q11 0 22 2t19 5h3v-65q-10 -3 -24.5 -6t-36.5 -3zM296 57 q40 0 68.5 13.5t47 34t27 45.5t8.5 48v89q-20 -14 -52 -23.5t-65 -15.5t-58.5 -12.5t-43 -18t-26.5 -29t-9 -45.5q0 -26 8.5 -42.5t22.5 -26.5t33 -13.5t39 -3.5z" glyph-name="aogonek" unicode="ą"/><glyph d="M341 -15q-131 0 -199.5 101.5t-68.5 285.5q0 90 18 161.5t52 122t83.5 77.5t113.5 27q106 0 167.5 -62t67.5 -179h-102q-2 42 -12.5 71t-28 47t-41.5 26t-52 8q-81 0 -121.5 -77.5t-40.5 -221.5q0 -149 45 -223.5t120 -74.5q65 0 100.5 49.5t38.5 147.5h100 q-1 -65 -17 -118t-46.5 -90.5t-75 -57.5t-101.5 -20zM332 910h114l-89 -125h-78z" glyph-name="Cacute" unicode="Ć"/><glyph d="M341 -15q-61 0 -109 22t-81.5 60.5t-51.5 90t-18 110.5q0 58 18 109.5t51.5 90t81.5 60.5t109 22q97 0 157.5 -50.5t74.5 -137.5h-93q-9 53 -44.5 83t-94.5 30q-42 0 -73 -16t-51.5 -44t-30.5 -66t-10 -81q0 -44 10 -81.5t30.5 -65.5t51.5 -44t73 -16q63 0 99.5 34.5 t41.5 94.5h92q-8 -97 -69 -151t-164 -54zM332 770h114l-89 -145h-78z" glyph-name="cacute" unicode="ć"/><glyph d="M341 -15q-131 0 -199.5 101.5t-68.5 285.5q0 90 18 161.5t52 122t83.5 77.5t113.5 27q106 0 167.5 -62t67.5 -179h-102q-2 42 -12.5 71t-28 47t-41.5 26t-52 8q-81 0 -121.5 -77.5t-40.5 -221.5q0 -149 45 -223.5t120 -74.5q65 0 100.5 49.5t38.5 147.5h100 q-1 -65 -17 -118t-46.5 -90.5t-75 -57.5t-101.5 -20zM275 898h103l98 -113h-96l-54 61h-2l-56 -61h-94z" glyph-name="Ccircumflex" unicode="Ĉ"/><glyph d="M341 -15q-61 0 -109 22t-81.5 60.5t-51.5 90t-18 110.5q0 58 18 109.5t51.5 90t81.5 60.5t109 22q97 0 157.5 -50.5t74.5 -137.5h-93q-9 53 -44.5 83t-94.5 30q-42 0 -73 -16t-51.5 -44t-30.5 -66t-10 -81q0 -44 10 -81.5t30.5 -65.5t51.5 -44t73 -16q63 0 99.5 34.5 t41.5 94.5h92q-8 -97 -69 -151t-164 -54zM275 752h103l94 -123h-94l-52 75h-2l-54 -75h-92z" glyph-name="ccircumflex" unicode="ĉ"/><glyph d="M341 -15q-131 0 -199.5 101.5t-68.5 285.5q0 90 18 161.5t52 122t83.5 77.5t113.5 27q106 0 167.5 -62t67.5 -179h-102q-2 42 -12.5 71t-28 47t-41.5 26t-52 8q-81 0 -121.5 -77.5t-40.5 -221.5q0 -149 45 -223.5t120 -74.5q65 0 100.5 49.5t38.5 147.5h100 q-1 -65 -17 -118t-46.5 -90.5t-75 -57.5t-101.5 -20zM277 893h97v-108h-97v108z" glyph-name="Cdotaccent" unicode="Ċ"/><glyph d="M341 -15q-61 0 -109 22t-81.5 60.5t-51.5 90t-18 110.5q0 58 18 109.5t51.5 90t81.5 60.5t109 22q97 0 157.5 -50.5t74.5 -137.5h-93q-9 53 -44.5 83t-94.5 30q-42 0 -73 -16t-51.5 -44t-30.5 -66t-10 -81q0 -44 10 -81.5t30.5 -65.5t51.5 -44t73 -16q63 0 99.5 34.5 t41.5 94.5h92q-8 -97 -69 -151t-164 -54zM277 744h97v-108h-97v108z" glyph-name="cdotaccent" unicode="ċ"/><glyph d="M341 -15q-131 0 -199.5 101.5t-68.5 285.5q0 90 18 161.5t52 122t83.5 77.5t113.5 27q106 0 167.5 -62t67.5 -179h-102q-2 42 -12.5 71t-28 47t-41.5 26t-52 8q-81 0 -121.5 -77.5t-40.5 -221.5q0 -149 45 -223.5t120 -74.5q65 0 100.5 49.5t38.5 147.5h100 q-1 -65 -17 -118t-46.5 -90.5t-75 -57.5t-101.5 -20zM375 785h-103l-98 113h96l54 -61h2l56 61h94z" glyph-name="Ccaron" unicode="Č"/><glyph d="M341 -15q-61 0 -109 22t-81.5 60.5t-51.5 90t-18 110.5q0 58 18 109.5t51.5 90t81.5 60.5t109 22q97 0 157.5 -50.5t74.5 -137.5h-93q-9 53 -44.5 83t-94.5 30q-42 0 -73 -16t-51.5 -44t-30.5 -66t-10 -81q0 -44 10 -81.5t30.5 -65.5t51.5 -44t73 -16q63 0 99.5 34.5 t41.5 94.5h92q-8 -97 -69 -151t-164 -54zM375 625h-103l-94 124h94l52 -76h2l54 76h92z" glyph-name="ccaron" unicode="č"/><glyph d="M98 744h186q152 0 223.5 -96t71.5 -279q0 -182 -72 -275.5t-229 -93.5h-180v744zM271 89q57 0 96 17t62.5 51.5t34 87t10.5 124.5t-10 125.5t-33.5 89t-61.5 53.5t-94 18h-75v-566h71zM375 785h-103l-98 113h96l54 -61h2l56 61h94z" glyph-name="Dcaron" unicode="Ď"/><glyph d="M643 661q0 -51 -28 -76.5t-74 -27.5v44q26 4 37 17t11 37h-46v89h100v-83zM290 61q35 0 60 15.5t40.5 43t23 65t7.5 81.5q0 45 -8 83t-24 65.5t-41 42.5t-58 15q-31 0 -53 -15.5t-36 -43t-20.5 -65.5t-6.5 -82t6.5 -81.5t20.5 -65t36 -43t53 -15.5zM279 -16q-47 0 -84 20 t-62.5 56.5t-39.5 89t-14 117.5q0 66 15 118.5t41 89t62.5 56t80.5 19.5q49 0 82.5 -26t56.5 -69h2q-1 19 -2 46t-1 53v190h93v-744h-91v77h-2q-23 -44 -56 -68.5t-81 -24.5z" glyph-name="dcaron" unicode="ď"/><glyph d="M98 0v331h-61v86h61v327h186q152 0 223.5 -96t71.5 -279q0 -182 -72 -275.5t-229 -93.5h-180zM271 89q57 0 96 17t62.5 51.5t34 87t10.5 124.5t-10 125.5t-33.5 89t-61.5 53.5t-94 18h-75v-238h154v-86h-154v-242h71z" glyph-name="Dcroat" unicode="Đ"/><glyph d="M309 61q36 0 63 15.5t44.5 43t26 65t8.5 81.5q0 45 -9 83t-27 65.5t-44.5 42.5t-61.5 15q-32 0 -56.5 -15.5t-40.5 -43t-24 -65.5t-8 -82t8 -81.5t24 -65t40.5 -43t56.5 -15.5zM297 -16q-48 0 -87.5 20t-67 56.5t-42.5 89t-15 117.5q0 66 16 118.5t44.5 89t67 56 t83.5 19.5q51 0 89.5 -26t61.5 -69h2q-1 19 -2 46t-1 53v54h-151v62h151v74h93v-74h73v-62h-73v-608h-91v77h-2q-23 -44 -60.5 -68.5t-88.5 -24.5z" glyph-name="dcroat" unicode="đ"/><glyph d="M561 0h-463v744h457v-90h-355v-225h320v-85h-320v-251h361v-93zM183 870h285v-75h-285v75z" glyph-name="Emacron" unicode="Ē"/><glyph d="M328 478q-36 0 -63 -12.5t-45.5 -34.5t-30 -52t-15.5 -66h300q-4 78 -40.5 121.5t-105.5 43.5zM562 153q-16 -75 -75.5 -121.5t-153.5 -46.5q-61 0 -108.5 22t-80 60.5t-49.5 90t-17 110.5q0 58 17.5 109.5t50.5 90t79 60.5t103 22q53 0 94 -17t71 -49q39 -41 59 -102 t20 -136h-400q2 -39 13.5 -73t31.5 -59t49.5 -39t67.5 -14q56 0 91 24.5t46 67.5h91zM189 734h273v-75h-273v75z" glyph-name="emacron" unicode="ē"/><glyph d="M561 0h-463v744h457v-90h-355v-225h320v-85h-320v-251h361v-93zM344 780q-55 0 -94 34t-42 94h66q5 -28 21 -43.5t48 -15.5q31 0 49.5 15.5t22.5 43.5h65q-1 -27 -11 -50.5t-28 -40.5t-42.5 -27t-54.5 -10z" glyph-name="Ebreve" unicode="Ĕ"/><glyph d="M328 478q-36 0 -63 -12.5t-45.5 -34.5t-30 -52t-15.5 -66h300q-4 78 -40.5 121.5t-105.5 43.5zM562 153q-16 -75 -75.5 -121.5t-153.5 -46.5q-61 0 -108.5 22t-80 60.5t-49.5 90t-17 110.5q0 58 17.5 109.5t50.5 90t79 60.5t103 22q53 0 94 -17t71 -49q39 -41 59 -102 t20 -136h-400q2 -39 13.5 -73t31.5 -59t49.5 -39t67.5 -14q56 0 91 24.5t46 67.5h91zM329 620q-55 0 -94 34t-42 94h66q5 -28 21 -43.5t48 -15.5q31 0 49.5 15.5t22.5 43.5h65q-1 -27 -11 -50.5t-28 -40.5t-42.5 -27t-54.5 -10z" glyph-name="ebreve" unicode="ĕ"/><glyph d="M561 0h-463v744h457v-90h-355v-225h320v-85h-320v-251h361v-93zM277 893h97v-108h-97v108z" glyph-name="Edotaccent" unicode="Ė"/><glyph d="M328 478q-36 0 -63 -12.5t-45.5 -34.5t-30 -52t-15.5 -66h300q-4 78 -40.5 121.5t-105.5 43.5zM562 153q-16 -75 -75.5 -121.5t-153.5 -46.5q-61 0 -108.5 22t-80 60.5t-49.5 90t-17 110.5q0 58 17.5 109.5t50.5 90t79 60.5t103 22q53 0 94 -17t71 -49q39 -41 59 -102 t20 -136h-400q2 -39 13.5 -73t31.5 -59t49.5 -39t67.5 -14q56 0 91 24.5t46 67.5h91zM277 744h97v-108h-97v108z" glyph-name="edotaccent" unicode="ė"/><glyph d="M561 0h-463v744h457v-90h-355v-225h320v-85h-320v-251h361v-93zM452 -191q-57 0 -84.5 24.5t-27.5 63.5q0 19 7.5 34.5t19 28.5t25.5 23t28 17h69q-26 -21 -44.5 -44t-18.5 -45q0 -35 43 -35q11 0 22 2t19 5h3v-65q-10 -3 -24.5 -6t-36.5 -3z" glyph-name="Eogonek" unicode="Ę"/><glyph d="M328 478q-36 0 -63 -12.5t-45.5 -34.5t-30 -52t-15.5 -66h300q-4 78 -40.5 121.5t-105.5 43.5zM469 -182q-10 -3 -24.5 -6t-36.5 -3q-57 0 -84.5 24.5t-27.5 63.5q0 29 17 51.5t39 37.5q-5 -1 -9.5 -1h-9.5q-61 0 -108.5 22t-80 60.5t-49.5 90t-17 110.5q0 58 17.5 109.5 t50.5 90t79 60.5t103 22q50 0 90 -15.5t69 -44.5q42 -40 63.5 -103t21.5 -141h-400q2 -39 13.5 -73t31.5 -59t49.5 -39t67.5 -14q56 0 91 24.5t46 67.5h91q-16 -79 -82 -126q-54 -38 -76 -66t-22 -50q0 -35 43 -35q11 0 22 2t19 5h3v-65z" glyph-name="eogonek" unicode="ę"/><glyph d="M561 0h-463v744h457v-90h-355v-225h320v-85h-320v-251h361v-93zM375 785h-103l-98 113h96l54 -61h2l56 61h94z" glyph-name="Ecaron" unicode="Ě"/><glyph d="M328 478q-36 0 -63 -12.5t-45.5 -34.5t-30 -52t-15.5 -66h300q-4 78 -40.5 121.5t-105.5 43.5zM562 153q-16 -75 -75.5 -121.5t-153.5 -46.5q-61 0 -108.5 22t-80 60.5t-49.5 90t-17 110.5q0 58 17.5 109.5t50.5 90t79 60.5t103 22q53 0 94 -17t71 -49q39 -41 59 -102 t20 -136h-400q2 -39 13.5 -73t31.5 -59t49.5 -39t67.5 -14q56 0 91 24.5t46 67.5h91zM375 625h-103l-94 124h94l52 -76h2l54 76h92z" glyph-name="ecaron" unicode="ě"/><glyph d="M326 -16q-126 0 -192 100.5t-66 284.5q0 88 18 160t52.5 123t83.5 79t111 28q103 0 165 -57.5t68 -173.5h-103q-2 76 -34.5 109.5t-93.5 33.5q-84 0 -124 -79.5t-40 -222.5q0 -296 164 -296q36 0 61.5 14t42 39.5t24.5 60t8 76.5v44h-128v87h226v-394h-68l-15 85h-3 q-20 -48 -62 -74.5t-95 -26.5zM275 898h103l98 -113h-96l-54 61h-2l-56 -61h-94z" glyph-name="Gcircumflex" unicode="Ĝ"/><glyph d="M316 100q38 0 64.5 14.5t42.5 40t23 60.5t7 76q0 85 -33.5 133.5t-104.5 48.5q-68 0 -103 -51t-35 -136q0 -86 35.5 -136t103.5 -50zM318 -188q-103 0 -158 39.5t-63 111.5h88q6 -42 39 -60.5t92 -18.5q63 0 97.5 32.5t34.5 101.5v15q0 23 1 43.5t2 33.5h-3 q-23 -40 -57.5 -63t-86.5 -23q-48 0 -88.5 19t-70 54t-46 83t-16.5 107q0 62 17 111t46 82.5t68.5 51.5t84.5 18q54 0 90 -21.5t57 -62.5h2v71h91v-515q0 -54 -15.5 -93.5t-43.5 -65.5q-29 -26 -70 -38.5t-92 -12.5zM275 752h103l94 -123h-94l-52 75h-2l-54 -75h-92z" glyph-name="gcircumflex" unicode="ĝ"/><glyph d="M326 -16q-126 0 -192 100.5t-66 284.5q0 88 18 160t52.5 123t83.5 79t111 28q103 0 165 -57.5t68 -173.5h-103q-2 76 -34.5 109.5t-93.5 33.5q-84 0 -124 -79.5t-40 -222.5q0 -296 164 -296q36 0 61.5 14t42 39.5t24.5 60t8 76.5v44h-128v87h226v-394h-68l-15 85h-3 q-20 -48 -62 -74.5t-95 -26.5zM344 780q-55 0 -94 34t-42 94h66q5 -28 21 -43.5t48 -15.5q31 0 49.5 15.5t22.5 43.5h65q-1 -27 -11 -50.5t-28 -40.5t-42.5 -27t-54.5 -10z" glyph-name="Gbreve" unicode="Ğ"/><glyph d="M316 100q38 0 64.5 14.5t42.5 40t23 60.5t7 76q0 85 -33.5 133.5t-104.5 48.5q-68 0 -103 -51t-35 -136q0 -86 35.5 -136t103.5 -50zM318 -188q-103 0 -158 39.5t-63 111.5h88q6 -42 39 -60.5t92 -18.5q63 0 97.5 32.5t34.5 101.5v15q0 23 1 43.5t2 33.5h-3 q-23 -40 -57.5 -63t-86.5 -23q-48 0 -88.5 19t-70 54t-46 83t-16.5 107q0 62 17 111t46 82.5t68.5 51.5t84.5 18q54 0 90 -21.5t57 -62.5h2v71h91v-515q0 -54 -15.5 -93.5t-43.5 -65.5q-29 -26 -70 -38.5t-92 -12.5zM322 620q-55 0 -94 34t-42 94h66q5 -28 21 -43.5 t48 -15.5q31 0 49.5 15.5t22.5 43.5h65q-1 -27 -11 -50.5t-28 -40.5t-42.5 -27t-54.5 -10z" glyph-name="gbreve" unicode="ğ"/><glyph d="M326 -16q-126 0 -192 100.5t-66 284.5q0 88 18 160t52.5 123t83.5 79t111 28q103 0 165 -57.5t68 -173.5h-103q-2 76 -34.5 109.5t-93.5 33.5q-84 0 -124 -79.5t-40 -222.5q0 -296 164 -296q36 0 61.5 14t42 39.5t24.5 60t8 76.5v44h-128v87h226v-394h-68l-15 85h-3 q-20 -48 -62 -74.5t-95 -26.5zM277 893h97v-108h-97v108z" glyph-name="Gdotaccent" unicode="Ġ"/><glyph d="M316 100q38 0 64.5 14.5t42.5 40t23 60.5t7 76q0 85 -33.5 133.5t-104.5 48.5q-68 0 -103 -51t-35 -136q0 -86 35.5 -136t103.5 -50zM318 -188q-103 0 -158 39.5t-63 111.5h88q6 -42 39 -60.5t92 -18.5q63 0 97.5 32.5t34.5 101.5v15q0 23 1 43.5t2 33.5h-3 q-23 -40 -57.5 -63t-86.5 -23q-48 0 -88.5 19t-70 54t-46 83t-16.5 107q0 62 17 111t46 82.5t68.5 51.5t84.5 18q54 0 90 -21.5t57 -62.5h2v71h91v-515q0 -54 -15.5 -93.5t-43.5 -65.5q-29 -26 -70 -38.5t-92 -12.5zM277 744h97v-108h-97v108z" glyph-name="gdotaccent" unicode="ġ"/><glyph d="M326 -16q-126 0 -192 100.5t-66 284.5q0 88 18 160t52.5 123t83.5 79t111 28q103 0 165 -57.5t68 -173.5h-103q-2 76 -34.5 109.5t-93.5 33.5q-84 0 -124 -79.5t-40 -222.5q0 -296 164 -296q36 0 61.5 14t42 39.5t24.5 60t8 76.5v44h-128v87h226v-394h-68l-15 85h-3 q-20 -48 -62 -74.5t-95 -26.5zM374 -141q0 -51 -29 -76.5t-80 -27.5v44q28 4 41.5 16t13.5 38h-54v96h108v-90z" glyph-name="uni0122" unicode="Ģ"/><glyph d="M316 100q38 0 64.5 14.5t42.5 40t23 60.5t7 76q0 85 -33.5 133.5t-104.5 48.5q-68 0 -103 -51t-35 -136q0 -86 35.5 -136t103.5 -50zM318 -188q-103 0 -158 39.5t-63 111.5h88q6 -42 39 -60.5t92 -18.5q63 0 97.5 32.5t34.5 101.5v15q0 23 1 43.5t2 33.5h-3 q-23 -40 -57.5 -63t-86.5 -23q-48 0 -88.5 19t-70 54t-46 83t-16.5 107q0 62 17 111t46 82.5t68.5 51.5t84.5 18q54 0 90 -21.5t57 -62.5h2v71h91v-515q0 -54 -15.5 -93.5t-43.5 -65.5q-29 -26 -70 -38.5t-92 -12.5zM268 726q0 51 29 76.5t80 27.5v-44q-28 -4 -41.5 -16 t-13.5 -38h54v-96h-108v90z" glyph-name="uni0123" unicode="ģ"/><glyph d="M450 348h-250v-348h-102v744h102v-313h250v313h102v-744h-102v348zM275 898h103l98 -113h-96l-54 61h-2l-56 -61h-94z" glyph-name="Hcircumflex" unicode="Ĥ"/><glyph d="M206 0h-94v744h94v-195q0 -20 -0.5 -45t-2.5 -45h3q28 43 67 67t95 24q81 0 126.5 -45t45.5 -130v-375h-92v364q0 52 -29 80t-81 28q-58 0 -95 -40t-37 -105v-327zM275 898h103l98 -113h-96l-54 61h-2l-56 -61h-94z" glyph-name="hcircumflex" unicode="ĥ"/><glyph d="M440 540h-230v-109h230v109zM440 348h-230v-348h-102v540h-68v73h68v131h102v-131h230v131h102v-131h68v-73h-68v-540h-102v348z" glyph-name="Hbar" unicode="Ħ"/><glyph d="M206 0h-94v608h-73v62h73v74h94v-74h150v-62h-150v-59q0 -20 -0.5 -45t-2.5 -45h3q28 43 67 67t95 24q81 0 126.5 -45t45.5 -130v-375h-92v364q0 52 -29 80t-81 28q-58 0 -95 -40t-37 -105v-327z" glyph-name="hbar" unicode="ħ"/><glyph d="M271 744h108v-744h-108v744zM390 786q-20 0 -37.5 6t-33 13.5t-29 13.5t-23.5 6q-12 0 -19.5 -11.5t-9.5 -26.5h-64q2 52 24 79.5t60 27.5q21 0 37.5 -6t31 -13.5t27.5 -13.5t27 -6q15 0 20.5 11.5t7.5 25.5h64q-2 -50 -21.5 -78t-61.5 -28z" glyph-name="Itilde" unicode="Ĩ"/><glyph d="M318 0v456h-157v81h250v-537h-93zM390 631q-20 0 -37.5 6t-33 13.5t-29 13.5t-23.5 6q-12 0 -19.5 -11.5t-9.5 -26.5h-64q2 52 24 79.5t60 27.5q21 0 37.5 -6t31 -13.5t27.5 -13.5t27 -6q15 0 20.5 11.5t7.5 25.5h64q-2 -50 -21.5 -78t-61.5 -28z" glyph-name="itilde" unicode="ĩ"/><glyph d="M271 744h108v-744h-108v744zM183 870h285v-75h-285v75z" glyph-name="Imacron" unicode="Ī"/><glyph d="M318 0v456h-157v81h250v-537h-93zM189 734h273v-75h-273v75z" glyph-name="imacron" unicode="ī"/><glyph d="M271 744h108v-744h-108v744zM326 780q-55 0 -94 34t-42 94h66q5 -28 21 -43.5t48 -15.5q31 0 49.5 15.5t22.5 43.5h65q-1 -27 -11 -50.5t-28 -40.5t-42.5 -27t-54.5 -10z" glyph-name="Ibreve" unicode="Ĭ"/><glyph d="M318 0v456h-157v81h250v-537h-93zM335 620q-55 0 -94 34t-42 94h66q5 -28 21 -43.5t48 -15.5q31 0 49.5 15.5t22.5 43.5h65q-1 -27 -11 -50.5t-28 -40.5t-42.5 -27t-54.5 -10z" glyph-name="ibreve" unicode="ĭ"/><glyph d="M271 744h108v-744h-108v744zM342 -191q-57 0 -84.5 24.5t-27.5 63.5q0 19 7.5 34.5t19 28.5t25.5 23t28 17h69q-26 -21 -44.5 -44t-18.5 -45q0 -35 43 -35q11 0 22 2t19 5h3v-65q-10 -3 -24.5 -6t-36.5 -3z" glyph-name="Iogonek" unicode="Į"/><glyph d="M313 744h103v-108h-103v108zM318 0v456h-157v81h250v-537h-93zM374 -191q-57 0 -84.5 24.5t-27.5 63.5q0 19 7.5 34.5t19 28.5t25.5 23t28 17h69q-26 -21 -44.5 -44t-18.5 -45q0 -35 43 -35q11 0 22 2t19 5h3v-65q-10 -3 -24.5 -6t-36.5 -3z" glyph-name="iogonek" unicode="į"/><glyph d="M271 744h108v-744h-108v744zM277 893h97v-108h-97v108z" glyph-name="Idotaccent" unicode="İ"/><glyph d="M318 0v456h-157v81h250v-537h-93z" glyph-name="dotlessi" unicode="ı"/><glyph d="M96 744h102v-431h-102v431zM312 -15q-105 0 -161.5 57.5t-56.5 170.5v16h102v-13q0 -79 27 -112.5t90 -33.5q55 0 83.5 30t28.5 97v547h102v-553q0 -45 -13 -82t-40 -64q-27 -28 -66.5 -44t-95.5 -16z" glyph-name="IJ" unicode="Ĳ"/><glyph d="M141 744h103v-108h-103v108zM406 744h103v-108h-103v108zM146 537h93v-537h-93v537zM325 -170q-28 0 -52.5 4t-44.5 11v79h3q14 -5 34.5 -9t43.5 -4q31 0 50.5 4.5t31 14.5t16 25.5t4.5 37.5v544h93v-549q0 -38 -8.5 -67t-29.5 -49q-20 -20 -54.5 -31t-86.5 -11z" glyph-name="ij" unicode="ĳ"/><glyph d="M309 -15q-104 0 -163.5 58.5t-59.5 186.5v16h100v-13q0 -47 7.5 -78.5t23 -50t39 -26.5t54.5 -8q55 0 85 30t30 97v547h102v-553q0 -45 -13 -82t-40 -64q-27 -28 -68 -44t-97 -16zM418 898h103l98 -113h-96l-54 61h-2l-56 -61h-94z" glyph-name="Jcircumflex" unicode="Ĵ"/><glyph d="M232 -170q-28 0 -52.5 4t-44.5 11v79h3q14 -5 34.5 -9t43.5 -4q31 0 50.5 4.5t31 14.5t16 25.5t4.5 37.5v463h-157v81h250v-549q0 -37 -8.5 -66.5t-29 -49.5t-55 -31t-86.5 -11zM275 752h103l94 -123h-94l-52 75h-2l-54 -75h-92z" glyph-name="jcircumflex" unicode="ĵ"/><glyph d="M290 371l-90 -114v-257h-102v744h102v-240q0 -33 -0.5 -66t-2.5 -59l273 365h111l-224 -297l242 -447h-112zM388 -141q0 -51 -29 -76.5t-80 -27.5v44q28 4 41.5 16t13.5 38h-54v96h108v-90z" glyph-name="uni0136" unicode="Ķ"/><glyph d="M290 274l-85 -81v-193h-93v744h93v-363q0 -16 -1 -43.5t-3 -46.5l241 246h116l-205 -202l229 -335h-109zM387 -141q0 -51 -29 -76.5t-80 -27.5v44q28 4 41.5 16t13.5 38h-54v96h108v-90z" glyph-name="uni0137" unicode="ķ"/><glyph d="M98 744h102v-651h353v-93h-455v744zM159 910h114l-89 -125h-78z" glyph-name="Lacute" unicode="Ĺ"/><glyph d="M318 0v663h-157v81h250v-744h-93zM332 910h114l-89 -125h-78z" glyph-name="lacute" unicode="ĺ"/><glyph d="M98 744h102v-651h353v-93h-455v744zM383 -141q0 -51 -29 -76.5t-80 -27.5v44q28 4 41.5 16t13.5 38h-54v96h108v-90z" glyph-name="uni013B" unicode="Ļ"/><glyph d="M318 0v663h-157v81h250v-744h-93zM416 -141q0 -51 -29 -76.5t-80 -27.5v44q28 4 41.5 16t13.5 38h-54v96h108v-90z" glyph-name="uni013C" unicode="ļ"/><glyph d="M402 648q0 -53 -28.5 -79t-76.5 -28v45q27 5 38 18t11 38h-47v102h103v-96zM98 744h102v-651h353v-93h-455v744z" glyph-name="Lcaron" unicode="Ľ"/><glyph d="M318 0v663h-157v81h250v-744h-93zM578 661q0 -51 -28 -76.5t-74 -27.5v44q26 4 37 17t11 37h-46v89h100v-83z" glyph-name="lcaron" unicode="ľ"/><glyph d="M98 744h102v-651h353v-93h-455v744zM445 450h108v-110h-108v110z" glyph-name="Ldot" unicode="Ŀ"/><glyph d="M318 0v663h-157v81h250v-744h-93zM631 413h108v-110h-108v110z" glyph-name="ldot" unicode="ŀ"/><glyph d="M132 0v248l-74 -41v85l74 41v411h102v-355l239 132v-84l-239 -132v-212h319v-93h-421z" glyph-name="Lslash" unicode="Ł"/><glyph d="M318 0v311l-130 -81v84l130 81v268h-157v81h250v-290l120 75v-84l-120 -75v-370h-93z" glyph-name="lslash" unicode="ł"/><glyph d="M98 744h107l188 -411q16 -35 28.5 -68.5t21.5 -59.5q11 -31 19 -59h4q-2 20 -4 51q-2 26 -3 65.5t-1 93.5v388h94v-744h-106l-187 414q-16 35 -29 68.5t-22 59.5q-11 31 -19 58h-3l3 -51q1 -26 2 -64.5t1 -91.5v-393h-94v744zM332 910h114l-89 -125h-78z" glyph-name="Nacute" unicode="Ń"/><glyph d="M204 0h-92v537h90v-76h3q28 41 67.5 65t95.5 24q81 0 126.5 -45t45.5 -130v-375h-92v364q0 52 -29 80t-81 28q-29 0 -53.5 -10.5t-42.5 -29.5t-28 -46t-10 -59v-327zM332 770h114l-89 -145h-78z" glyph-name="nacute" unicode="ń"/><glyph d="M98 744h107l188 -411q16 -35 28.5 -68.5t21.5 -59.5q11 -31 19 -59h4q-2 20 -4 51q-2 26 -3 65.5t-1 93.5v388h94v-744h-106l-187 414q-16 35 -29 68.5t-22 59.5q-11 31 -19 58h-3l3 -51q1 -26 2 -64.5t1 -91.5v-393h-94v744zM380 -141q0 -51 -29 -76.5t-80 -27.5v44 q28 4 41.5 16t13.5 38h-54v96h108v-90z" glyph-name="uni0145" unicode="Ņ"/><glyph d="M204 0h-92v537h90v-76h3q28 41 67.5 65t95.5 24q81 0 126.5 -45t45.5 -130v-375h-92v364q0 52 -29 80t-81 28q-29 0 -53.5 -10.5t-42.5 -29.5t-28 -46t-10 -59v-327zM384 -141q0 -51 -29 -76.5t-80 -27.5v44q28 4 41.5 16t13.5 38h-54v96h108v-90z" glyph-name="uni0146" unicode="ņ"/><glyph d="M98 744h107l188 -411q16 -35 28.5 -68.5t21.5 -59.5q11 -31 19 -59h4q-2 20 -4 51q-2 26 -3 65.5t-1 93.5v388h94v-744h-106l-187 414q-16 35 -29 68.5t-22 59.5q-11 31 -19 58h-3l3 -51q1 -26 2 -64.5t1 -91.5v-393h-94v744zM375 785h-103l-98 113h96l54 -61h2l56 61h94 z" glyph-name="Ncaron" unicode="Ň"/><glyph d="M204 0h-92v537h90v-76h3q28 41 67.5 65t95.5 24q81 0 126.5 -45t45.5 -130v-375h-92v364q0 52 -29 80t-81 28q-29 0 -53.5 -10.5t-42.5 -29.5t-28 -46t-10 -59v-327zM375 625h-103l-94 124h94l52 -76h2l54 76h92z" glyph-name="ncaron" unicode="ň"/><glyph d="M204 0h-92v537h90v-76h3q28 41 67.5 65t95.5 24q81 0 126.5 -45t45.5 -130v-375h-92v364q0 52 -29 80t-81 28q-29 0 -53.5 -10.5t-42.5 -29.5t-28 -46t-10 -59v-327zM99 661q0 -51 -28 -76.5t-74 -27.5v44q26 4 37 17t11 37h-46v89h100v-83z" glyph-name="napostrophe" unicode="ŉ"/><glyph d="M325 -16q-61 0 -108.5 27.5t-79.5 78.5t-49 122.5t-17 159.5t16 159.5t47.5 122.5t79.5 78.5t111 27.5t111 -27.5t79.5 -78.5t47.5 -122.5t16 -159.5t-17 -159.5t-49 -122.5t-79.5 -78.5t-108.5 -27.5zM326 74q39 0 67 21t46 60t26.5 94t8.5 123q0 69 -8 124.5t-26 94.5 t-46 60t-68 21t-68.5 -21t-47 -60t-27 -94.5t-8.5 -124.5q0 -68 8.5 -123t27 -94t47 -60t68.5 -21zM183 870h285v-75h-285v75z" glyph-name="Omacron" unicode="Ō"/><glyph d="M326 -15q-58 0 -103.5 22t-76.5 60.5t-47 90t-16 110.5q0 58 16 109.5t47 90t76.5 60.5t103.5 22t102.5 -22t75.5 -60.5t47 -90t16 -109.5q0 -59 -16 -110.5t-47 -90t-75.5 -60.5t-102.5 -22zM325 61q38 0 66 16t46 44t26.5 65.5t8.5 81.5q0 43 -8.5 81t-26.5 66.5 t-46 44.5t-66 16t-66 -16t-46 -44.5t-26.5 -66.5t-8.5 -81q0 -44 8.5 -81.5t26.5 -65.5t46 -44t66 -16zM189 734h273v-75h-273v75z" glyph-name="omacron" unicode="ō"/><glyph d="M325 -16q-61 0 -108.5 27.5t-79.5 78.5t-49 122.5t-17 159.5t16 159.5t47.5 122.5t79.5 78.5t111 27.5t111 -27.5t79.5 -78.5t47.5 -122.5t16 -159.5t-17 -159.5t-49 -122.5t-79.5 -78.5t-108.5 -27.5zM326 74q39 0 67 21t46 60t26.5 94t8.5 123q0 69 -8 124.5t-26 94.5 t-46 60t-68 21t-68.5 -21t-47 -60t-27 -94.5t-8.5 -124.5q0 -68 8.5 -123t27 -94t47 -60t68.5 -21zM344 780q-55 0 -94 34t-42 94h66q5 -28 21 -43.5t48 -15.5q31 0 49.5 15.5t22.5 43.5h65q-1 -27 -11 -50.5t-28 -40.5t-42.5 -27t-54.5 -10z" glyph-name="Obreve" unicode="Ŏ"/><glyph d="M326 -15q-58 0 -103.5 22t-76.5 60.5t-47 90t-16 110.5q0 58 16 109.5t47 90t76.5 60.5t103.5 22t102.5 -22t75.5 -60.5t47 -90t16 -109.5q0 -59 -16 -110.5t-47 -90t-75.5 -60.5t-102.5 -22zM325 61q38 0 66 16t46 44t26.5 65.5t8.5 81.5q0 43 -8.5 81t-26.5 66.5 t-46 44.5t-66 16t-66 -16t-46 -44.5t-26.5 -66.5t-8.5 -81q0 -44 8.5 -81.5t26.5 -65.5t46 -44t66 -16zM327 620q-55 0 -94 34t-42 94h66q5 -28 21 -43.5t48 -15.5q31 0 49.5 15.5t22.5 43.5h65q-1 -27 -11 -50.5t-28 -40.5t-42.5 -27t-54.5 -10z" glyph-name="obreve" unicode="ŏ"/><glyph d="M325 -16q-61 0 -108.5 27.5t-79.5 78.5t-49 122.5t-17 159.5t16 159.5t47.5 122.5t79.5 78.5t111 27.5t111 -27.5t79.5 -78.5t47.5 -122.5t16 -159.5t-17 -159.5t-49 -122.5t-79.5 -78.5t-108.5 -27.5zM326 74q39 0 67 21t46 60t26.5 94t8.5 123q0 69 -8 124.5t-26 94.5 t-46 60t-68 21t-68.5 -21t-47 -60t-27 -94.5t-8.5 -124.5q0 -68 8.5 -123t27 -94t47 -60t68.5 -21zM230 910h99l-58 -125h-71zM377 910h97l-59 -125h-69z" glyph-name="Ohungarumlaut" unicode="Ő"/><glyph d="M326 -15q-58 0 -103.5 22t-76.5 60.5t-47 90t-16 110.5q0 58 16 109.5t47 90t76.5 60.5t103.5 22t102.5 -22t75.5 -60.5t47 -90t16 -109.5q0 -59 -16 -110.5t-47 -90t-75.5 -60.5t-102.5 -22zM325 61q38 0 66 16t46 44t26.5 65.5t8.5 81.5q0 43 -8.5 81t-26.5 66.5 t-46 44.5t-66 16t-66 -16t-46 -44.5t-26.5 -66.5t-8.5 -81q0 -44 8.5 -81.5t26.5 -65.5t46 -44t66 -16zM237 770h94l-60 -145h-68zM379 770h93l-59 -145h-67z" glyph-name="ohungarumlaut" unicode="ő"/><glyph d="M307 89v566h-14q-37 0 -64.5 -13t-45.5 -45.5t-26.5 -86.5t-8.5 -135q0 -83 8.5 -138t25.5 -88t44 -46.5t65 -13.5h16zM285 0q-57 0 -101.5 21t-76 66t-48 116t-16.5 172q0 99 17 169.5t48.5 114.5t77 64.5t102.5 20.5h309v-90h-188v-225h165v-85h-165v-251h194v-93h-318 z" glyph-name="OE" unicode="Œ"/><glyph d="M447 478q-38 0 -56 -40t-21 -125h143q-2 90 -21 127.5t-45 37.5zM215 61q37 0 56 48.5t19 158.5t-19 159t-56 49q-38 0 -57.5 -49t-19.5 -159t19.5 -158.5t57.5 -48.5zM592 153q-8 -82 -46.5 -125t-97.5 -43q-46 0 -74.5 25.5t-44.5 70.5q-17 -45 -45 -70.5t-70 -25.5 q-75 0 -118 71t-43 212q0 140 43 211t118 71q42 0 71 -25.5t46 -73.5q18 48 47 73.5t70 25.5q68 0 109 -74.5t41 -229.5h-229q2 -97 22.5 -141t56.5 -44q24 0 42 20.5t23 71.5h79z" glyph-name="oe" unicode="œ"/><glyph d="M201 390h143q69 0 101 33t32 100q0 132 -128 132h-148v-265zM332 307h-131v-307h-103v744h266q48 0 87.5 -16t68 -45t44 -68.5t15.5 -87.5q0 -81 -38 -134.5t-104 -73.5l154 -319h-115zM332 910h114l-89 -125h-78z" glyph-name="Racute" unicode="Ŕ"/><glyph d="M155 0v537h92v-125h3q32 67 85 99.5t120 32.5q29 0 50 -4t29 -7v-91h-3q-10 3 -31.5 8t-51.5 5q-38 0 -74 -12t-64 -38t-45 -67t-17 -99v-239h-93zM352 770h114l-89 -145h-78z" glyph-name="racute" unicode="ŕ"/><glyph d="M201 390h143q69 0 101 33t32 100q0 132 -128 132h-148v-265zM332 307h-131v-307h-103v744h266q48 0 87.5 -16t68 -45t44 -68.5t15.5 -87.5q0 -81 -38 -134.5t-104 -73.5l154 -319h-115zM394 -141q0 -51 -29 -76.5t-80 -27.5v44q28 4 41.5 16t13.5 38h-54v96h108v-90z" glyph-name="uni0156" unicode="Ŗ"/><glyph d="M155 0v537h92v-125h3q32 67 85 99.5t120 32.5q29 0 50 -4t29 -7v-91h-3q-10 3 -31.5 8t-51.5 5q-38 0 -74 -12t-64 -38t-45 -67t-17 -99v-239h-93zM256 -141q0 -51 -29 -76.5t-80 -27.5v44q28 4 41.5 16t13.5 38h-54v96h108v-90z" glyph-name="uni0157" unicode="ŗ"/><glyph d="M201 390h143q69 0 101 33t32 100q0 132 -128 132h-148v-265zM332 307h-131v-307h-103v744h266q48 0 87.5 -16t68 -45t44 -68.5t15.5 -87.5q0 -81 -38 -134.5t-104 -73.5l154 -319h-115zM375 785h-103l-98 113h96l54 -61h2l56 61h94z" glyph-name="Rcaron" unicode="Ř"/><glyph d="M155 0v537h92v-125h3q32 67 85 99.5t120 32.5q29 0 50 -4t29 -7v-91h-3q-10 3 -31.5 8t-51.5 5q-38 0 -74 -12t-64 -38t-45 -67t-17 -99v-239h-93zM391 625h-103l-94 124h94l52 -76h2l54 76h92z" glyph-name="rcaron" unicode="ř"/><glyph d="M332 -15q-66 0 -117 18.5t-85.5 52.5t-53 81t-20.5 104h101q8 -92 52 -133t125 -41q31 0 58.5 8.5t47.5 25.5t31.5 42t11.5 59q0 36 -10 59.5t-33 40t-60 28.5t-92 25q-41 10 -78.5 24t-66 37.5t-45.5 58t-17 84.5q0 46 17.5 83t48 63t73.5 39.5t94 13.5q59 0 103 -15.5 t75 -44.5t48 -69.5t22 -89.5h-99q-8 72 -46 105.5t-103 33.5q-61 0 -99 -29t-38 -85q0 -30 10.5 -50.5t32 -34.5t55.5 -24.5t81 -20.5q44 -10 85 -24.5t72.5 -40t50.5 -65t19 -99.5q0 -52 -18.5 -93t-52 -69t-79.5 -43t-101 -15zM332 910h114l-89 -125h-78z" glyph-name="Sacute" unicode="Ś"/><glyph d="M334 -16q-112 0 -173 48.5t-67 130.5h94q4 -29 17 -49t32.5 -32t44.5 -17.5t54 -5.5q64 0 92.5 24.5t28.5 60.5q0 44 -34.5 61.5t-105.5 31.5q-39 8 -75.5 18t-64 27t-44 45t-16.5 72q0 69 51.5 109.5t145.5 40.5q101 0 153 -43t61 -113h-93q-6 42 -35.5 64t-87.5 22 q-55 0 -79.5 -22t-24.5 -53q0 -21 9 -34.5t27 -22.5t44.5 -15t60.5 -13q40 -8 76.5 -18t64 -28t44 -47.5t16.5 -76.5q0 -41 -16 -72t-44.5 -51.5t-68.5 -31t-87 -10.5zM332 770h114l-89 -145h-78z" glyph-name="sacute" unicode="ś"/><glyph d="M332 -15q-66 0 -117 18.5t-85.5 52.5t-53 81t-20.5 104h101q8 -92 52 -133t125 -41q31 0 58.5 8.5t47.5 25.5t31.5 42t11.5 59q0 36 -10 59.5t-33 40t-60 28.5t-92 25q-41 10 -78.5 24t-66 37.5t-45.5 58t-17 84.5q0 46 17.5 83t48 63t73.5 39.5t94 13.5q59 0 103 -15.5 t75 -44.5t48 -69.5t22 -89.5h-99q-8 72 -46 105.5t-103 33.5q-61 0 -99 -29t-38 -85q0 -30 10.5 -50.5t32 -34.5t55.5 -24.5t81 -20.5q44 -10 85 -24.5t72.5 -40t50.5 -65t19 -99.5q0 -52 -18.5 -93t-52 -69t-79.5 -43t-101 -15zM275 898h103l98 -113h-96l-54 61h-2l-56 -61 h-94z" glyph-name="Scircumflex" unicode="Ŝ"/><glyph d="M334 -16q-112 0 -173 48.5t-67 130.5h94q4 -29 17 -49t32.5 -32t44.5 -17.5t54 -5.5q64 0 92.5 24.5t28.5 60.5q0 44 -34.5 61.5t-105.5 31.5q-39 8 -75.5 18t-64 27t-44 45t-16.5 72q0 69 51.5 109.5t145.5 40.5q101 0 153 -43t61 -113h-93q-6 42 -35.5 64t-87.5 22 q-55 0 -79.5 -22t-24.5 -53q0 -21 9 -34.5t27 -22.5t44.5 -15t60.5 -13q40 -8 76.5 -18t64 -28t44 -47.5t16.5 -76.5q0 -41 -16 -72t-44.5 -51.5t-68.5 -31t-87 -10.5zM275 752h103l94 -123h-94l-52 75h-2l-54 -75h-92z" glyph-name="scircumflex" unicode="ŝ"/><glyph d="M332 -15q-66 0 -117 18.5t-85.5 52.5t-53 81t-20.5 104h101q8 -92 52 -133t125 -41q31 0 58.5 8.5t47.5 25.5t31.5 42t11.5 59q0 36 -10 59.5t-33 40t-60 28.5t-92 25q-41 10 -78.5 24t-66 37.5t-45.5 58t-17 84.5q0 46 17.5 83t48 63t73.5 39.5t94 13.5q59 0 103 -15.5 t75 -44.5t48 -69.5t22 -89.5h-99q-8 72 -46 105.5t-103 33.5q-61 0 -99 -29t-38 -85q0 -30 10.5 -50.5t32 -34.5t55.5 -24.5t81 -20.5q44 -10 85 -24.5t72.5 -40t50.5 -65t19 -99.5q0 -52 -18.5 -93t-52 -69t-79.5 -43t-101 -15zM302 -208q-38 0 -65 9t-46 22l16 31 q35 -16 75 -16q26 0 44.5 7.5t18.5 27.5q0 18 -12 25.5t-30 7.5q-14 0 -24 -2t-19 -5l-16 25l73 76h59l-64 -56v-2q15 2 33 0t33.5 -9.5t26 -22t10.5 -37.5q0 -40 -31.5 -60.5t-81.5 -20.5z" glyph-name="uni015E" unicode="Ş"/><glyph d="M334 -16q-112 0 -173 48.5t-67 130.5h94q4 -29 17 -49t32.5 -32t44.5 -17.5t54 -5.5q64 0 92.5 24.5t28.5 60.5q0 44 -34.5 61.5t-105.5 31.5q-39 8 -75.5 18t-64 27t-44 45t-16.5 72q0 69 51.5 109.5t145.5 40.5q101 0 153 -43t61 -113h-93q-6 42 -35.5 64t-87.5 22 q-55 0 -79.5 -22t-24.5 -53q0 -21 9 -34.5t27 -22.5t44.5 -15t60.5 -13q40 -8 76.5 -18t64 -28t44 -47.5t16.5 -76.5q0 -41 -16 -72t-44.5 -51.5t-68.5 -31t-87 -10.5zM302 -208q-38 0 -65 9t-46 22l16 31q35 -16 75 -16q26 0 44.5 7.5t18.5 27.5q0 18 -12 25.5t-30 7.5 q-14 0 -24 -2t-19 -5l-16 25l73 76h59l-64 -56v-2q15 2 33 0t33.5 -9.5t26 -22t10.5 -37.5q0 -40 -31.5 -60.5t-81.5 -20.5z" glyph-name="uni015F" unicode="ş"/><glyph d="M332 -15q-66 0 -117 18.5t-85.5 52.5t-53 81t-20.5 104h101q8 -92 52 -133t125 -41q31 0 58.5 8.5t47.5 25.5t31.5 42t11.5 59q0 36 -10 59.5t-33 40t-60 28.5t-92 25q-41 10 -78.5 24t-66 37.5t-45.5 58t-17 84.5q0 46 17.5 83t48 63t73.5 39.5t94 13.5q59 0 103 -15.5 t75 -44.5t48 -69.5t22 -89.5h-99q-8 72 -46 105.5t-103 33.5q-61 0 -99 -29t-38 -85q0 -30 10.5 -50.5t32 -34.5t55.5 -24.5t81 -20.5q44 -10 85 -24.5t72.5 -40t50.5 -65t19 -99.5q0 -52 -18.5 -93t-52 -69t-79.5 -43t-101 -15zM375 785h-103l-98 113h96l54 -61h2l56 61h94 z" glyph-name="Scaron" unicode="Š"/><glyph d="M334 -16q-112 0 -173 48.5t-67 130.5h94q4 -29 17 -49t32.5 -32t44.5 -17.5t54 -5.5q64 0 92.5 24.5t28.5 60.5q0 44 -34.5 61.5t-105.5 31.5q-39 8 -75.5 18t-64 27t-44 45t-16.5 72q0 69 51.5 109.5t145.5 40.5q101 0 153 -43t61 -113h-93q-6 42 -35.5 64t-87.5 22 q-55 0 -79.5 -22t-24.5 -53q0 -21 9 -34.5t27 -22.5t44.5 -15t60.5 -13q40 -8 76.5 -18t64 -28t44 -47.5t16.5 -76.5q0 -41 -16 -72t-44.5 -51.5t-68.5 -31t-87 -10.5zM375 625h-103l-94 124h94l52 -76h2l54 76h92z" glyph-name="scaron" unicode="š"/><glyph d="M376 654v-654h-103v654h-206v90h516v-90h-207zM378 -141q0 -51 -29 -76.5t-80 -27.5v44q28 4 41.5 16t13.5 38h-54v96h108v-90z" glyph-name="Tcommaaccent" unicode="Ţ"/><glyph d="M521 8q-21 -6 -48.5 -11t-72.5 -5q-84 0 -120 34.5t-36 99.5v339h-124v72h124v169h92v-169h176v-72h-176v-325q0 -38 19 -53.5t67 -15.5q31 0 51.5 3.5t44.5 9.5h3v-76v0zM431 -141q0 -51 -29 -76.5t-80 -27.5v44q28 4 41.5 16t13.5 38h-54v96h108v-90z" glyph-name="tcommaaccent" unicode="ţ"/><glyph d="M376 654v-654h-103v654h-206v90h516v-90h-207zM375 785h-103l-98 113h96l54 -61h2l56 61h94z" glyph-name="Tcaron" unicode="Ť"/><glyph d="M521 8q-21 -6 -48.5 -11t-72.5 -5q-84 0 -120 34.5t-36 99.5v339h-124v72h124v169h92v-169h176v-72h-176v-325q0 -38 19 -53.5t67 -15.5q31 0 51.5 3.5t44.5 9.5h3v-76zM514 668q0 -50 -28 -74.5t-74 -26.5v44q26 4 37 16t11 35h-46v82h100v-76z" glyph-name="tcaron" unicode="ť"/><glyph d="M376 353v-353h-103v353h-146v80h146v221h-206v90h516v-90h-207v-221h147v-80h-147z" glyph-name="Tbar" unicode="Ŧ"/><glyph d="M521 8q-21 -6 -48.5 -11t-72.5 -5q-84 0 -120 34.5t-36 99.5v168h-124v68h124v103h-124v72h124v169h92v-169h176v-72h-176v-103h176v-68h-176v-154q0 -38 19 -53.5t67 -15.5q31 0 51.5 3.5t44.5 9.5h3v-76v0z" glyph-name="tbar" unicode="ŧ"/><glyph d="M326 -11q-54 0 -97 13t-73.5 41t-47 73t-16.5 108v520h102v-511q0 -84 31.5 -120.5t97.5 -36.5q72 0 102.5 36.5t30.5 120.5v511h102v-520q0 -63 -16 -108t-46 -73t-73 -41t-97 -13zM390 786q-20 0 -37.5 6t-33 13.5t-29 13.5t-23.5 6q-12 0 -19.5 -11.5t-9.5 -26.5h-64 q2 52 24 79.5t60 27.5q21 0 37.5 -6t31 -13.5t27.5 -13.5t27 -6q15 0 20.5 11.5t7.5 25.5h64q-2 -50 -21.5 -78t-61.5 -28z" glyph-name="Utilde" unicode="Ũ"/><glyph d="M286 -12q-80 0 -126.5 47t-46.5 132v370h93v-365q0 -51 28.5 -79.5t80.5 -28.5q28 0 51.5 11t39.5 30.5t25 46.5t9 58v327h93v-537h-91v75h-2q-27 -40 -63 -63.5t-91 -23.5zM390 631q-20 0 -37.5 6t-33 13.5t-29 13.5t-23.5 6q-12 0 -19.5 -11.5t-9.5 -26.5h-64 q2 52 24 79.5t60 27.5q21 0 37.5 -6t31 -13.5t27.5 -13.5t27 -6q15 0 20.5 11.5t7.5 25.5h64q-2 -50 -21.5 -78t-61.5 -28z" glyph-name="utilde" unicode="ũ"/><glyph d="M326 -11q-54 0 -97 13t-73.5 41t-47 73t-16.5 108v520h102v-511q0 -84 31.5 -120.5t97.5 -36.5q72 0 102.5 36.5t30.5 120.5v511h102v-520q0 -63 -16 -108t-46 -73t-73 -41t-97 -13zM183 870h285v-75h-285v75z" glyph-name="Umacron" unicode="Ū"/><glyph d="M286 -12q-80 0 -126.5 47t-46.5 132v370h93v-365q0 -51 28.5 -79.5t80.5 -28.5q28 0 51.5 11t39.5 30.5t25 46.5t9 58v327h93v-537h-91v75h-2q-27 -40 -63 -63.5t-91 -23.5zM189 734h273v-75h-273v75z" glyph-name="umacron" unicode="ū"/><glyph d="M326 -11q-54 0 -97 13t-73.5 41t-47 73t-16.5 108v520h102v-511q0 -84 31.5 -120.5t97.5 -36.5q72 0 102.5 36.5t30.5 120.5v511h102v-520q0 -63 -16 -108t-46 -73t-73 -41t-97 -13zM344 780q-55 0 -94 34t-42 94h66q5 -28 21 -43.5t48 -15.5q31 0 49.5 15.5t22.5 43.5 h65q-1 -27 -11 -50.5t-28 -40.5t-42.5 -27t-54.5 -10z" glyph-name="Ubreve" unicode="Ŭ"/><glyph d="M286 -12q-80 0 -126.5 47t-46.5 132v370h93v-365q0 -51 28.5 -79.5t80.5 -28.5q28 0 51.5 11t39.5 30.5t25 46.5t9 58v327h93v-537h-91v75h-2q-27 -40 -63 -63.5t-91 -23.5zM327 620q-55 0 -94 34t-42 94h66q5 -28 21 -43.5t48 -15.5q31 0 49.5 15.5t22.5 43.5h65 q-1 -27 -11 -50.5t-28 -40.5t-42.5 -27t-54.5 -10z" glyph-name="ubreve" unicode="ŭ"/><glyph d="M326 -11q-54 0 -97 13t-73.5 41t-47 73t-16.5 108v520h102v-511q0 -84 31.5 -120.5t97.5 -36.5q72 0 102.5 36.5t30.5 120.5v511h102v-520q0 -63 -16 -108t-46 -73t-73 -41t-97 -13zM325 738q-21 0 -40 8t-33 21.5t-22 32t-8 39.5t8 39t22 31.5t33 21t40 7.5t39.5 -7.5 t32.5 -21t22 -31.5t8 -39t-8 -39.5t-22 -32t-32.5 -21.5t-39.5 -8zM325 780q24 0 39.5 16.5t15.5 42.5q0 25 -15.5 41.5t-39.5 16.5q-25 0 -40.5 -16.5t-15.5 -41.5q0 -26 15.5 -42.5t40.5 -16.5z" glyph-name="Uring" unicode="Ů"/><glyph d="M286 -12q-80 0 -126.5 47t-46.5 132v370h93v-365q0 -51 28.5 -79.5t80.5 -28.5q28 0 51.5 11t39.5 30.5t25 46.5t9 58v327h93v-537h-91v75h-2q-27 -40 -63 -63.5t-91 -23.5zM325 599q-21 0 -40 8t-33 21.5t-22 32t-8 39.5t8 39t22 31.5t33 21t40 7.5t39.5 -7.5t32.5 -21 t22 -31.5t8 -39t-8 -39.5t-22 -32t-32.5 -21.5t-39.5 -8zM325 641q24 0 39.5 16.5t15.5 42.5q0 25 -15.5 41.5t-39.5 16.5q-25 0 -40.5 -16.5t-15.5 -41.5q0 -26 15.5 -42.5t40.5 -16.5z" glyph-name="uring" unicode="ů"/><glyph d="M326 -11q-54 0 -97 13t-73.5 41t-47 73t-16.5 108v520h102v-511q0 -84 31.5 -120.5t97.5 -36.5q72 0 102.5 36.5t30.5 120.5v511h102v-520q0 -63 -16 -108t-46 -73t-73 -41t-97 -13zM230 910h99l-58 -125h-71zM377 910h97l-59 -125h-69z" glyph-name="Uhungarumlaut" unicode="Ű"/><glyph d="M286 -12q-80 0 -126.5 47t-46.5 132v370h93v-365q0 -51 28.5 -79.5t80.5 -28.5q28 0 51.5 11t39.5 30.5t25 46.5t9 58v327h93v-537h-91v75h-2q-27 -40 -63 -63.5t-91 -23.5zM237 770h94l-60 -145h-68zM379 770h93l-59 -145h-67z" glyph-name="uhungarumlaut" unicode="ű"/><glyph d="M378 -191q-57 0 -84.5 24.5t-27.5 63.5q0 32 19 54.5t42 37.5h-1q-54 0 -97 13t-73.5 41t-47 73t-16.5 108v520h102v-511q0 -84 31.5 -120.5t97.5 -36.5q72 0 102.5 36.5t30.5 120.5v511h102v-520q0 -87 -29 -136.5t-72 -71.5q-57 -30 -81 -53t-24 -52q0 -35 43 -35 q11 0 22 2t19 5h3v-65q-10 -3 -24.5 -6t-36.5 -3z" glyph-name="Uogonek" unicode="Ų"/><glyph d="M496 -191q-57 0 -84.5 24.5t-27.5 63.5q0 30 17.5 52.5t40.5 37.5v88h-2q-27 -40 -63 -63.5t-91 -23.5q-80 0 -126.5 47t-46.5 132v370h93v-365q0 -51 28.5 -79.5t80.5 -28.5q28 0 51.5 11t39.5 30.5t25 46.5t9 58v327h93v-537q-26 -21 -44.5 -44t-18.5 -45q0 -35 43 -35 q11 0 22 2t19 5h3v-65q-10 -3 -24.5 -6t-36.5 -3z" glyph-name="uogonek" unicode="ų"/><glyph d="M36 744h96l34 -312q4 -37 8.5 -92t7.5 -107q4 -61 7 -125h1q6 67 13 129q3 26 6 54t6 54.5t6 50t6 41.5l46 307h98l45 -307q3 -18 5.5 -41.5t5.5 -50t5.5 -54.5t5.5 -54q6 -62 12 -128h1q5 64 10 125q5 52 9.5 107t8.5 92l33 311h95l-95 -744h-108l-56 391q-5 32 -9 74.5 t-8 81.5q-4 46 -8 93h-2q-4 -47 -8 -93q-4 -39 -8 -81.5t-9 -74.5l-58 -391h-108zM275 898h103l98 -113h-96l-54 61h-2l-56 -61h-94z" glyph-name="Wcircumflex" unicode="Ŵ"/><glyph d="M58 537h88l34 -220q3 -23 7 -61.5t8 -75.5q4 -43 8 -91h1q6 47 12 89q5 36 11 74t11 63l45 222h83l48 -222q4 -22 10 -59.5t11 -75.5q6 -44 12 -92h1q3 47 7 90q3 37 7 75.5t9 63.5l35 220h86l-101 -537h-86l-57 276q-5 20 -9 47t-7 53q-4 30 -7 62h-1q-4 -32 -8 -62 q-4 -26 -8 -53.5t-8 -46.5l-57 -276h-86zM275 752h103l94 -123h-94l-52 75h-2l-54 -75h-92z" glyph-name="wcircumflex" unicode="ŵ"/><glyph d="M273 0v308l-196 436h112l81 -202q8 -20 18 -46.5t18 -49.5q10 -27 19 -55h1q9 28 20 55q8 23 18.5 49.5t18.5 46.5l81 202h108l-197 -438v-306h-102zM275 898h103l98 -113h-96l-54 61h-2l-56 -61h-94z" glyph-name="Ycircumflex" unicode="Ŷ"/><glyph d="M195 -187q-23 0 -45.5 3t-33.5 8v80h4q8 -5 23.5 -7.5t32.5 -2.5q28 0 47 13.5t33 51.5q0 1 3 10.5t7 21.5t7 23t2 13l-205 510h101l111 -298q8 -23 16 -48t15 -47q7 -26 14 -50h2q7 24 15 50q7 22 15 47t16 48l107 298h97l-228 -586q-17 -42 -33.5 -69t-35 -42.5 t-40 -21t-47.5 -5.5zM275 752h103l94 -123h-94l-52 75h-2l-54 -75h-92z" glyph-name="ycircumflex" unicode="ŷ"/><glyph d="M273 0v308l-196 436h112l81 -202q8 -20 18 -46.5t18 -49.5q10 -27 19 -55h1q9 28 20 55q8 23 18.5 49.5t18.5 46.5l81 202h108l-197 -438v-306h-102zM177 893h94v-108h-94v108zM379 893h94v-108h-94v108z" glyph-name="Ydieresis" unicode="Ÿ"/><glyph d="M83 95l277 443q16 25 31.5 46.5t28.5 38.5q15 19 28 35v3q-22 -1 -43 -2q-18 -1 -38.5 -1.5t-35.5 -0.5h-228v87h450v-80l-272 -433q-15 -23 -31.5 -48.5t-30.5 -45.5q-17 -25 -33 -47v-3l44 2q19 1 40 1.5t38 0.5h256v-91h-481v95zM332 910h114l-89 -125h-78z" glyph-name="Zacute" unicode="Ź"/><glyph d="M113 72l240 313q8 11 19 23.5t21 23.5q11 13 24 26v3q-19 -1 -37 -2q-16 -1 -33 -1h-31h-185v79h403v-58l-244 -319q-9 -11 -20.5 -24.5t-22.5 -25.5q-12 -14 -25 -28v-3q20 0 39 1q17 1 35 1.5t33 0.5h217v-82h-433v72zM332 770h114l-89 -145h-78z" glyph-name="zacute" unicode="ź"/><glyph d="M83 95l277 443q16 25 31.5 46.5t28.5 38.5q15 19 28 35v3q-22 -1 -43 -2q-18 -1 -38.5 -1.5t-35.5 -0.5h-228v87h450v-80l-272 -433q-15 -23 -31.5 -48.5t-30.5 -45.5q-17 -25 -33 -47v-3l44 2q19 1 40 1.5t38 0.5h256v-91h-481v95zM277 893h97v-108h-97v108z" glyph-name="Zdotaccent" unicode="Ż"/><glyph d="M113 72l240 313q8 11 19 23.5t21 23.5q11 13 24 26v3q-19 -1 -37 -2q-16 -1 -33 -1h-31h-185v79h403v-58l-244 -319q-9 -11 -20.5 -24.5t-22.5 -25.5q-12 -14 -25 -28v-3q20 0 39 1q17 1 35 1.5t33 0.5h217v-82h-433v72zM277 744h97v-108h-97v108z" glyph-name="zdotaccent" unicode="ż"/><glyph d="M83 95l277 443q16 25 31.5 46.5t28.5 38.5q15 19 28 35v3q-22 -1 -43 -2q-18 -1 -38.5 -1.5t-35.5 -0.5h-228v87h450v-80l-272 -433q-15 -23 -31.5 -48.5t-30.5 -45.5q-17 -25 -33 -47v-3l44 2q19 1 40 1.5t38 0.5h256v-91h-481v95zM375 785h-103l-98 113h96l54 -61h2 l56 61h94z" glyph-name="Zcaron" unicode="Ž"/><glyph d="M113 72l240 313q8 11 19 23.5t21 23.5q11 13 24 26v3q-19 -1 -37 -2q-16 -1 -33 -1h-31h-185v79h403v-58l-244 -319q-9 -11 -20.5 -24.5t-22.5 -25.5q-12 -14 -25 -28v-3q20 0 39 1q17 1 35 1.5t33 0.5h217v-82h-433v72zM375 625h-103l-94 124h94l52 -76h2l54 76h92z" glyph-name="zcaron" unicode="ž"/><glyph d="M253 -121q-23 -23 -69.5 -32t-121.5 -2v74q32 -2 56.5 -0.5t42.5 10t28.5 26t15.5 47.5l50 351h-115v70h125l20 137q4 28 9.5 46.5t12.5 31.5t14 21.5t15 16.5q27 29 90.5 41t145.5 -3v-76q-48 6 -83 5.5t-58 -10t-36 -30t-18 -55.5l-18 -125h138v-70h-148l-50 -358 q-8 -52 -19 -76t-27 -40z" glyph-name="uni0192" unicode="ƒ"/><glyph d="M191 299h114v355h-50zM305 217h-129l-39 -217h-103l144 744h411v-90h-185v-225h144v-85h-144v-250h197v-94h-296v217zM332 910h114l-89 -125h-78z" glyph-name="AEacute" unicode="Ǽ"/><glyph d="M439 478q-32 0 -54.5 -37.5t-26.5 -127.5h148q-3 91 -18 128t-49 37zM193 57q35 0 57.5 28t22.5 91v126q-9 -14 -26.5 -26.5t-38.5 -23.5q-15 -8 -28.5 -16t-23 -20t-15.5 -31.5t-6 -49.5q0 -41 16 -59.5t42 -18.5zM592 145q-3 -36 -15 -65t-31 -49.5t-44 -31.5t-53 -11 q-50 0 -82.5 25.5t-51.5 70.5h-3q-19 -50 -51.5 -73t-80.5 -23q-29 0 -53.5 10.5t-42 30t-27.5 46.5t-10 60q0 44 11.5 72.5t31.5 48t46.5 32.5t55.5 25q15 6 29.5 13.5t25 18.5t17 27t6.5 39q0 39 -15.5 56t-41.5 17q-29 0 -47 -23t-20 -71h-80q1 34 10.5 63t27.5 50.5 t45 34t63 12.5q42 0 72 -16.5t47 -54.5q20 33 48 52t64 19q46 0 76 -21.5t47.5 -61t24.5 -95.5t6 -126h-240q2 -97 24.5 -141t63.5 -44q57 0 66 84h81zM332 770h114l-89 -145h-78z" glyph-name="aeacute" unicode="ǽ"/><glyph d="M175 372q0 -114 21 -184l225 440q-35 44 -95 44q-40 0 -68.5 -21t-47 -60t-27 -94.5t-8.5 -124.5zM326 74q39 0 67 21t46 60t26.5 94t8.5 123q0 59 -5 106t-16 83l-225 -440q36 -47 98 -47zM325 -16q-82 0 -141 51l-44 -86l-54 25l56 109q-35 51 -53 124.5t-18 164.5 q0 88 16 159.5t47.5 122.5t79.5 78.5t111 27.5q42 0 76.5 -12t62.5 -35l41 79l54 -24l-52 -101q36 -51 54 -126t18 -169q0 -88 -17 -159.5t-49 -122.5t-79.5 -78.5t-108.5 -27.5zM332 910h114l-89 -125h-78z" glyph-name="Oslashacute" unicode="Ǿ"/><glyph d="M178 268q0 -80 24 -132l214 308q-35 32 -91 32q-38 0 -66 -16t-46 -44.5t-26.5 -66.5t-8.5 -81zM325 61q38 0 66 16t46 44t26.5 65.5t8.5 81.5q0 79 -24 132l-213 -308q34 -31 90 -31zM326 -15q-41 0 -75 11t-62 31l-50 -73l-45 26l57 82q-33 39 -50.5 92t-17.5 114 q0 58 16 109.5t47 90t76.5 60.5t103.5 22q40 0 73.5 -10.5t60.5 -30.5l51 73l45 -26l-57 -82q33 -39 50.5 -92t17.5 -114q0 -59 -16 -110.5t-47 -90t-75.5 -60.5t-102.5 -22zM332 770h114l-89 -145h-78z" glyph-name="oslashacute" unicode="ǿ"/><glyph d="M332 -15q-66 0 -117 18.5t-85.5 52.5t-53 81t-20.5 104h101q8 -92 52 -133t125 -41q31 0 58.5 8.5t47.5 25.5t31.5 42t11.5 59q0 36 -10 59.5t-33 40t-60 28.5t-92 25q-41 10 -78.5 24t-66 37.5t-45.5 58t-17 84.5q0 46 17.5 83t48 63t73.5 39.5t94 13.5q59 0 103 -15.5 t75 -44.5t48 -69.5t22 -89.5h-99q-8 72 -46 105.5t-103 33.5q-61 0 -99 -29t-38 -85q0 -30 10.5 -50.5t32 -34.5t55.5 -24.5t81 -20.5q44 -10 85 -24.5t72.5 -40t50.5 -65t19 -99.5q0 -52 -18.5 -93t-52 -69t-79.5 -43t-101 -15zM361 -141q0 -51 -29 -76.5t-80 -27.5v44 q28 4 41.5 16t13.5 38h-54v96h108v-90z" glyph-name="uni0218" unicode="Ș"/><glyph d="M334 -16q-112 0 -173 48.5t-67 130.5h94q4 -29 17 -49t32.5 -32t44.5 -17.5t54 -5.5q64 0 92.5 24.5t28.5 60.5q0 44 -34.5 61.5t-105.5 31.5q-39 8 -75.5 18t-64 27t-44 45t-16.5 72q0 69 51.5 109.5t145.5 40.5q101 0 153 -43t61 -113h-93q-6 42 -35.5 64t-87.5 22 q-55 0 -79.5 -22t-24.5 -53q0 -21 9 -34.5t27 -22.5t44.5 -15t60.5 -13q40 -8 76.5 -18t64 -28t44 -47.5t16.5 -76.5q0 -41 -16 -72t-44.5 -51.5t-68.5 -31t-87 -10.5zM381 -141q0 -51 -29 -76.5t-80 -27.5v44q28 4 41.5 16t13.5 38h-54v96h108v-90z" glyph-name="uni0219" unicode="ș"/><glyph d="M376 654v-654h-103v654h-206v90h516v-90h-207zM380 -141q0 -51 -29 -76.5t-80 -27.5v44q28 4 41.5 16t13.5 38h-54v96h108v-90z" glyph-name="uni021A" unicode="Ț"/><glyph d="M521 8q-21 -6 -48.5 -11t-72.5 -5q-84 0 -120 34.5t-36 99.5v339h-124v72h124v169h92v-169h176v-72h-176v-325q0 -38 19 -53.5t67 -15.5q31 0 51.5 3.5t44.5 9.5h3v-76v0zM425 -141q0 -51 -29 -76.5t-80 -27.5v44q28 4 41.5 16t13.5 38h-54v96h108v-90z" glyph-name="uni021B" unicode="ț"/><glyph d="M232 -170q-28 0 -52.5 4t-44.5 11v79h3q14 -5 34.5 -9t43.5 -4q31 0 50.5 4.5t31 14.5t16 25.5t4.5 37.5v463h-157v81h250v-549q0 -37 -8.5 -66.5t-29 -49.5t-55 -31t-86.5 -11z" glyph-name="uni0237" unicode="ȷ"/><glyph d="M275 752h103l94 -123h-94l-52 75h-2l-54 -75h-92z" glyph-name="circumflex" unicode="ˆ"/><glyph d="M375 625h-103l-94 124h94l52 -76h2l54 76h92z" glyph-name="caron" unicode="ˇ"/><glyph d="M344 620q-55 0 -94 34t-42 94h66q5 -28 21 -43.5t48 -15.5q31 0 49.5 15.5t22.5 43.5h65q-1 -27 -11 -50.5t-28 -40.5t-42.5 -27t-54.5 -10z" glyph-name="breve" unicode="˘"/><glyph d="M277 744h97v-108h-97v108z" glyph-name="dotaccent" unicode="˙"/><glyph d="M325 599q-21 0 -40 8t-33 21.5t-22 32t-8 39.5t8 39t22 31.5t33 21t40 7.5t39.5 -7.5t32.5 -21t22 -31.5t8 -39t-8 -39.5t-22 -32t-32.5 -21.5t-39.5 -8zM325 641q24 0 39.5 16.5t15.5 42.5q0 25 -15.5 41.5t-39.5 16.5q-25 0 -40.5 -16.5t-15.5 -41.5q0 -26 15.5 -42.5 t40.5 -16.5z" glyph-name="ring" unicode="˚"/><glyph d="M315 -191q-57 0 -84.5 24.5t-27.5 63.5q0 19 7.5 34.5t19 28.5t25.5 23t28 17h69q-26 -21 -44.5 -44t-18.5 -45q0 -35 43 -35q11 0 22 2t19 5h3v-65q-10 -3 -24.5 -6t-36.5 -3z" glyph-name="ogonek" unicode="˛"/><glyph d="M390 631q-20 0 -37.5 6t-33 13.5t-29 13.5t-23.5 6q-12 0 -19.5 -11.5t-9.5 -26.5h-64q2 52 24 79.5t60 27.5q21 0 37.5 -6t31 -13.5t27.5 -13.5t27 -6q15 0 20.5 11.5t7.5 25.5h64q-2 -50 -21.5 -78t-61.5 -28z" glyph-name="tilde" unicode="˜"/><glyph d="M237 770h94l-60 -145h-68zM379 770h93l-59 -145h-67z" glyph-name="hungarumlaut" unicode="˝"/><glyph d="M59 537h527v-72h-103v-339q0 -29 12 -39.5t37 -10.5q13 0 24 2.5t18 4.5h4v-79q-12 -3 -31.5 -5.5t-38.5 -2.5q-24 0 -45.5 5.5t-37.5 18.5t-25 34t-9 51v360h-148v-465h-92v465h-92v72z" glyph-name="pi" unicode="π"/><glyph d="M36 744h96l34 -312q4 -37 8.5 -92t7.5 -107q4 -61 7 -125h1q6 67 13 129q3 26 6 54t6 54.5t6 50t6 41.5l46 307h98l45 -307q3 -18 5.5 -41.5t5.5 -50t5.5 -54.5t5.5 -54q6 -62 12 -128h1q5 64 10 125q5 52 9.5 107t8.5 92l33 311h95l-95 -744h-108l-56 391q-5 32 -9 74.5 t-8 81.5q-4 46 -8 93h-2q-4 -47 -8 -93q-4 -39 -8 -81.5t-9 -74.5l-58 -391h-108zM204 910h114l53 -125h-78z" glyph-name="Wgrave" unicode="Ẁ"/><glyph d="M58 537h88l34 -220q3 -23 7 -61.5t8 -75.5q4 -43 8 -91h1q6 47 12 89q5 36 11 74t11 63l45 222h83l48 -222q4 -22 10 -59.5t11 -75.5q6 -44 12 -92h1q3 47 7 90q3 37 7 75.5t9 63.5l35 220h86l-101 -537h-86l-57 276q-5 20 -9 47t-7 53q-4 30 -7 62h-1q-4 -32 -8 -62 q-4 -26 -8 -53.5t-8 -46.5l-57 -276h-86zM204 770h114l53 -145h-78z" glyph-name="wgrave" unicode="ẁ"/><glyph d="M36 744h96l34 -312q4 -37 8.5 -92t7.5 -107q4 -61 7 -125h1q6 67 13 129q3 26 6 54t6 54.5t6 50t6 41.5l46 307h98l45 -307q3 -18 5.5 -41.5t5.5 -50t5.5 -54.5t5.5 -54q6 -62 12 -128h1q5 64 10 125q5 52 9.5 107t8.5 92l33 311h95l-95 -744h-108l-56 391q-5 32 -9 74.5 t-8 81.5q-4 46 -8 93h-2q-4 -47 -8 -93q-4 -39 -8 -81.5t-9 -74.5l-58 -391h-108zM332 910h114l-89 -125h-78z" glyph-name="Wacute" unicode="Ẃ"/><glyph d="M58 537h88l34 -220q3 -23 7 -61.5t8 -75.5q4 -43 8 -91h1q6 47 12 89q5 36 11 74t11 63l45 222h83l48 -222q4 -22 10 -59.5t11 -75.5q6 -44 12 -92h1q3 47 7 90q3 37 7 75.5t9 63.5l35 220h86l-101 -537h-86l-57 276q-5 20 -9 47t-7 53q-4 30 -7 62h-1q-4 -32 -8 -62 q-4 -26 -8 -53.5t-8 -46.5l-57 -276h-86zM332 770h114l-89 -145h-78z" glyph-name="wacute" unicode="ẃ"/><glyph d="M36 744h96l34 -312q4 -37 8.5 -92t7.5 -107q4 -61 7 -125h1q6 67 13 129q3 26 6 54t6 54.5t6 50t6 41.5l46 307h98l45 -307q3 -18 5.5 -41.5t5.5 -50t5.5 -54.5t5.5 -54q6 -62 12 -128h1q5 64 10 125q5 52 9.5 107t8.5 92l33 311h95l-95 -744h-108l-56 391q-5 32 -9 74.5 t-8 81.5q-4 46 -8 93h-2q-4 -47 -8 -93q-4 -39 -8 -81.5t-9 -74.5l-58 -391h-108zM177 893h94v-108h-94v108zM379 893h94v-108h-94v108z" glyph-name="Wdieresis" unicode="Ẅ"/><glyph d="M58 537h88l34 -220q3 -23 7 -61.5t8 -75.5q4 -43 8 -91h1q6 47 12 89q5 36 11 74t11 63l45 222h83l48 -222q4 -22 10 -59.5t11 -75.5q6 -44 12 -92h1q3 47 7 90q3 37 7 75.5t9 63.5l35 220h86l-101 -537h-86l-57 276q-5 20 -9 47t-7 53q-4 30 -7 62h-1q-4 -32 -8 -62 q-4 -26 -8 -53.5t-8 -46.5l-57 -276h-86zM180 744h92v-108h-92v108zM378 744h92v-108h-92v108z" glyph-name="wdieresis" unicode="ẅ"/><glyph d="M273 0v308l-196 436h112l81 -202q8 -20 18 -46.5t18 -49.5q10 -27 19 -55h1q9 28 20 55q8 23 18.5 49.5t18.5 46.5l81 202h108l-197 -438v-306h-102zM204 910h114l53 -125h-78z" glyph-name="Ygrave" unicode="Ỳ"/><glyph d="M195 -187q-23 0 -45.5 3t-33.5 8v80h4q8 -5 23.5 -7.5t32.5 -2.5q28 0 47 13.5t33 51.5q0 1 3 10.5t7 21.5t7 23t2 13l-205 510h101l111 -298q8 -23 16 -48t15 -47q7 -26 14 -50h2q7 24 15 50q7 22 15 47t16 48l107 298h97l-228 -586q-17 -42 -33.5 -69t-35 -42.5 t-40 -21t-47.5 -5.5zM204 770h114l53 -145h-78z" glyph-name="ygrave" unicode="ỳ"/><glyph d="M100 305h450v-80h-450v80z" glyph-name="endash" unicode="–"/><glyph d="M30 305h590v-80h-590v80z" glyph-name="emdash" unicode="—"/><glyph d="M265 587q0 39 10 68t26.5 48.5t38.5 30t46 13.5v-59q-23 -7 -39.5 -28.5t-16.5 -68.5v-13h55v-129h-120v138z" glyph-name="quoteleft" unicode="‘"/><glyph d="M385 607q0 -39 -10 -68t-26.5 -48.5t-39 -30.5t-46.5 -14v59q23 8 39.5 29t16.5 68v15h-54v127h120v-137z" glyph-name="quoteright" unicode="’"/><glyph d="M375 -8q0 -33 -8.5 -57t-22.5 -40t-32.5 -25t-38.5 -11v48q19 6 33 24t14 57v12h-45v106h100v-114z" glyph-name="quotesinglbase" unicode="‚"/><glyph d="M163 587q0 39 10 68t26.5 48.5t38.5 30t46 13.5v-59q-23 -7 -39.5 -28.5t-16.5 -68.5v-13h55v-129h-120v138zM366 587q0 39 10 68t26.5 48.5t38.5 30t46 13.5v-59q-22 -7 -39 -28.5t-17 -68.5v-13h55v-129h-120v138z" glyph-name="quotedblleft" unicode="“"/><glyph d="M486 607q0 -39 -10 -68t-26.5 -48.5t-38.5 -30.5t-46 -14v59q23 8 39.5 29t16.5 68v15h-55v127h120v-137zM283 607q0 -39 -10 -68t-26.5 -48.5t-39 -30.5t-46.5 -14v59q23 8 39.5 29t16.5 68v15h-54v127h120v-137z" glyph-name="quotedblright" unicode="”"/><glyph d="M459 -8q0 -33 -8 -57t-22 -40t-32.5 -25t-38.5 -11v48q19 6 33 24t14 57v12h-46v106h100v-114zM290 -8q0 -33 -8.5 -57t-22.5 -40t-32.5 -25t-38.5 -11v48q19 6 33 24t14 57v12h-45v106h100v-114z" glyph-name="quotedblbase" unicode="„"/><glyph d="M372 466v-578h-95v578h-184v82h184v196h95v-196h183v-82h-183z" glyph-name="dagger" unicode="†"/><glyph d="M372 82v-194h-95v194h-184v83h184v301h-184v82h184v196h95v-196h183v-82h-183v-301h183v-83h-183z" glyph-name="daggerdbl" unicode="‡"/><glyph d="M326 211q-27 0 -50 10t-40.5 27t-27.5 40t-10 49t10 49.5t27.5 41t40.5 27.5t50 10q26 0 49 -10t40 -27.5t27 -41t10 -49.5t-10 -49t-27 -40t-40 -27t-49 -10z" glyph-name="bullet" unicode="•"/><glyph d="M463 127h124v-127h-124v127zM263 127h124v-127h-124v127zM63 127h124v-127h-124v127z" glyph-name="ellipsis" unicode="…"/><glyph d="M163 403q-43 0 -67.5 37t-24.5 128q0 46 7 77.5t19 50.5t29 27t37 8q21 0 38 -8t29 -26.5t18.5 -50t6.5 -78.5q0 -92 -24 -128.5t-68 -36.5zM163 458q18 0 26 25.5t8 84.5q0 61 -8 85t-26 24t-25.5 -24t-7.5 -85q0 -59 7.5 -84.5t25.5 -25.5zM449 526l-380 -342v65 l380 343v-66zM505 -9q-43 0 -67.5 37t-24.5 128q0 46 7 77.5t19 50.5t29 27t37 8q21 0 38 -8t29 -26.5t18.5 -50t6.5 -78.5q0 -92 -24 -128.5t-68 -36.5zM295 -9q-43 0 -67.5 37t-24.5 128q0 46 7 77.5t19 50.5t29 27t37 8q21 0 38 -8t29 -26.5t18.5 -50t6.5 -78.5 q0 -92 -24 -128.5t-68 -36.5zM505 46q18 0 26 25.5t8 84.5q0 61 -8 85t-26 24t-25.5 -24t-7.5 -85q0 -59 7.5 -84.5t25.5 -25.5zM295 46q18 0 26 25.5t8 84.5q0 61 -8 85t-26 24t-25.5 -24t-7.5 -85q0 -59 7.5 -84.5t25.5 -25.5z" glyph-name="perthousand" unicode="‰"/><glyph d="M307 744h84l-49 -247h-84z" glyph-name="uni2032" unicode="′"/><glyph d="M226 744h84l-49 -247h-84zM388 744h84l-49 -247h-84z" glyph-name="uni2033" unicode="″"/><glyph d="M243 231v98l164 151v-101l-113 -97v-2l113 -99v-100z" glyph-name="guilsinglleft" unicode="‹"/><glyph d="M407 329v-98l-164 -150v100l113 98v2l-113 99v100z" glyph-name="guilsinglright" unicode="›"/><glyph d="M593 744h86l-650 -874h-85z" glyph-name="fraction" unicode="⁄"/><glyph d="M598 226q0 -54 -16 -98.5t-45 -76t-71.5 -49t-95.5 -17.5q-51 0 -94.5 16.5t-77.5 50t-56.5 85t-32.5 120.5h-54v57h49q-1 10 -1 20v21v20.5t1 19.5h-49v57h54q18 136 84.5 206.5t171.5 70.5q49 0 89 -15t69 -42t46 -65t19 -84h-94q-5 61 -38.5 92.5t-91.5 31.5 q-72 0 -108.5 -48t-47.5 -147h166v-57h-169q-1 -10 -1 -19.5v-20.5v-21t1 -20h169v-57h-165q12 -101 51.5 -145.5t108.5 -44.5q68 0 101 40.5t38 118.5h90v0z" glyph-name="Euro" unicode="€"/><glyph d="M211 612q0 37 11 64t30 43.5t45 24.5t55 8q66 0 99.5 -36.5t33.5 -127.5q0 -71 -13.5 -125.5t-38 -95.5t-57.5 -71.5t-72 -53.5v-92q0 -39 16.5 -56t48.5 -17q29 0 48.5 7t35.5 15h3v-79q-15 -10 -41.5 -16.5t-54.5 -6.5q-34 0 -61.5 8t-47 25.5t-30 45.5t-10.5 69v55 q-14 -5 -31.5 -11t-31.5 -9v67q14 5 31.5 11t31.5 12v342zM358 385q20 35 33 85.5t13 117.5q0 54 -14 72t-37 18t-36 -15t-13 -52v-297q16 14 29.5 32.5t24.5 38.5z" glyph-name="afii61289" unicode="ℓ"/><glyph d="M181 700v-223h-52v223h-84v44h220v-44h-84zM314 744h72l35 -115q4 -14 8.5 -31.5t8.5 -33.5q4 -18 9 -38h2q5 20 9 38q4 16 8 33.5t9 31.5l35 115h74v-267h-48v98v38.5t1 39.5q1 21 2 43h-2q-5 -19 -10 -39q-5 -17 -11 -37.5t-12 -40.5l-32 -102h-48l-32 102 q-7 20 -12 41t-10 38l-10 38h-2q0 -22 1 -43q1 -18 1.5 -39.5t0.5 -38.5v-98h-47v267z" glyph-name="trademark" unicode="™"/><glyph d="M78 85h94v2q-99 87 -99 300q0 84 16.5 152.5t49 118t79.5 76.5t108 27q60 0 107 -27t79.5 -76.5t49 -118t16.5 -152.5q0 -107 -25.5 -182t-73.5 -118v-2h94v-85h-218v81q30 8 52.5 36t37.5 70t22.5 94.5t7.5 108.5q0 63 -8 115t-26 89t-46.5 57.5t-68.5 20.5 q-41 0 -69.5 -20.5t-46.5 -57.5t-26 -89t-8 -115q0 -56 7.5 -108.5t22.5 -94t38 -70t53 -36.5v-81h-219v85z" glyph-name="Omega" unicode="Ω"/><glyph d="M339 -11q-66 0 -117 23.5t-86 66t-53.5 101t-18.5 129.5q0 70 20 128.5t56 100.5t85.5 65.5t109.5 23.5q50 0 90 -15.5t71 -43.5q51 -47 70 -113.5t18 -153.5h-383v-217q25 -22 58.5 -34.5t79.5 -12.5q41 0 72 10t53.5 29.5t38.5 47t27 62.5h51q-9 -43 -28.5 -79 t-50 -62.5t-71.5 -41t-92 -14.5zM335 582q-42 0 -76 -12.5t-58 -33.5v-191h249v201q-21 17 -50 26.5t-65 9.5z" glyph-name="estimated" unicode="℮"/><glyph d="M87 307h476v-53h-476v53zM303 619h-95v51q42 2 71.5 18t35.5 57h64v-388h-76v262zM327 -196q-75 0 -117 37t-42 96h71q2 -32 22 -52.5t62 -20.5q35 0 55 16t20 48q0 60 -80 60h-24v56h22q35 0 53.5 13.5t18.5 38.5q0 26 -17.5 40t-46.5 14q-35 0 -53 -19.5t-20 -47.5h-72 q2 54 40 88.5t107 34.5q60 0 97.5 -28t37.5 -79q0 -31 -18 -50t-51 -29v-1q83 -19 83 -96q0 -30 -11.5 -52t-32 -37t-47.5 -22.5t-57 -7.5z" glyph-name="onethird" unicode="⅓"/><glyph d="M87 307h476v-53h-476v53zM169 357q1 31 11 55.5t26 44t35.5 35t39.5 29.5q20 13 38.5 24.5t32.5 23t22.5 25.5t8.5 32q0 28 -17 44.5t-47 16.5q-32 0 -50.5 -20.5t-19.5 -55.5h-72q0 64 39.5 101t106.5 37q31 0 56.5 -9.5t43.5 -26t27.5 -38.5t9.5 -47q0 -26 -8.5 -45 t-22 -34t-31 -26.5t-35.5 -23.5q-14 -9 -29 -18t-29 -19t-25.5 -20.5t-16.5 -22.5h196v-62h-290v0zM327 -196q-75 0 -117 37t-42 96h71q2 -32 22 -52.5t62 -20.5q35 0 55 16t20 48q0 60 -80 60h-24v56h22q35 0 53.5 13.5t18.5 38.5q0 26 -17.5 40t-46.5 14q-35 0 -53 -19.5 t-20 -47.5h-72q2 54 40 88.5t107 34.5q60 0 97.5 -28t37.5 -79q0 -31 -18 -50t-51 -29v-1q83 -19 83 -96q0 -30 -11.5 -52t-32 -37t-47.5 -22.5t-57 -7.5z" glyph-name="twothirds" unicode="⅔"/><glyph d="M87 307h476v-53h-476v53zM303 619h-95v51q42 2 71.5 18t35.5 57h64v-388h-76v262zM327 -196q-32 0 -61.5 7.5t-52 22.5t-35.5 37t-13 52q0 38 22.5 62.5t58.5 36.5v2q-61 24 -61 78q0 48 39.5 76t100.5 28q62 0 101 -27t39 -74q0 -57 -61 -80v-2q38 -11 59.5 -36.5 t21.5 -60.5q0 -31 -12.5 -54t-34.5 -38t-50.5 -22.5t-60.5 -7.5zM325 45q33 0 50.5 15t17.5 39t-17.5 38.5t-50.5 14.5q-32 0 -49.5 -14.5t-17.5 -38.5t17.5 -39t49.5 -15zM325 -138q39 0 60.5 17.5t21.5 46.5q0 31 -21 49.5t-60 18.5t-61 -18.5t-22 -49.5q0 -30 22 -47 t60 -17z" glyph-name="oneeighth" unicode="⅛"/><glyph d="M87 307h476v-53h-476v53zM320 348q-75 0 -117 37t-42 96h71q2 -32 22 -52.5t62 -20.5q35 0 55 16t20 48q0 60 -80 60h-24v56h22q35 0 53.5 13.5t18.5 38.5q0 26 -17.5 40t-46.5 14q-35 0 -53 -19.5t-20 -47.5h-72q2 54 40 88.5t107 34.5q60 0 97.5 -28t37.5 -79 q0 -31 -18 -50t-51 -29v-1q83 -19 83 -96q0 -30 -11.5 -52t-32 -37t-47.5 -22.5t-57 -7.5zM327 -196q-32 0 -61.5 7.5t-52 22.5t-35.5 37t-13 52q0 38 22.5 62.5t58.5 36.5v2q-61 24 -61 78q0 48 39.5 76t100.5 28q62 0 101 -27t39 -74q0 -57 -61 -80v-2q38 -11 59.5 -36.5 t21.5 -60.5q0 -31 -12.5 -54t-34.5 -38t-50.5 -22.5t-60.5 -7.5zM325 45q33 0 50.5 15t17.5 39t-17.5 38.5t-50.5 14.5q-32 0 -49.5 -14.5t-17.5 -38.5t17.5 -39t49.5 -15zM325 -138q39 0 60.5 17.5t21.5 46.5q0 31 -21 49.5t-60 18.5t-61 -18.5t-22 -49.5q0 -30 22 -47 t60 -17z" glyph-name="threeeighths" unicode="⅜"/><glyph d="M87 307h476v-53h-476v53zM313 348q-65 0 -107 31.5t-48 82.5h75q6 -24 26 -38.5t52 -14.5q34 0 55 21t21 54q0 36 -22 55.5t-54 19.5q-24 0 -42 -8.5t-29 -20.5h-68l40 211h228v-62h-178l-18 -95h2q14 15 35 24t49 9q27 0 51 -9t42.5 -26t29 -41.5t10.5 -55.5t-11.5 -56 t-31.5 -43t-47.5 -28t-59.5 -10zM327 -196q-32 0 -61.5 7.5t-52 22.5t-35.5 37t-13 52q0 38 22.5 62.5t58.5 36.5v2q-61 24 -61 78q0 48 39.5 76t100.5 28q62 0 101 -27t39 -74q0 -57 -61 -80v-2q38 -11 59.5 -36.5t21.5 -60.5q0 -31 -12.5 -54t-34.5 -38t-50.5 -22.5 t-60.5 -7.5zM325 45q33 0 50.5 15t17.5 39t-17.5 38.5t-50.5 14.5q-32 0 -49.5 -14.5t-17.5 -38.5t17.5 -39t49.5 -15zM325 -138q39 0 60.5 17.5t21.5 46.5q0 31 -21 49.5t-60 18.5t-61 -18.5t-22 -49.5q0 -30 22 -47t60 -17z" glyph-name="fiveeighths" unicode="⅝"/><glyph d="M87 307h476v-53h-476v53zM261 357q2 51 16 98t35.5 87.5t48.5 74.5t57 60v3q-9 -1 -23 -2q-12 -1 -30 -1.5t-42 -0.5h-122v65h287v-60q-27 -26 -52.5 -60t-45.5 -75t-32.5 -88.5t-15.5 -100.5h-81zM327 -196q-32 0 -61.5 7.5t-52 22.5t-35.5 37t-13 52q0 38 22.5 62.5 t58.5 36.5v2q-61 24 -61 78q0 48 39.5 76t100.5 28q62 0 101 -27t39 -74q0 -57 -61 -80v-2q38 -11 59.5 -36.5t21.5 -60.5q0 -31 -12.5 -54t-34.5 -38t-50.5 -22.5t-60.5 -7.5zM325 45q33 0 50.5 15t17.5 39t-17.5 38.5t-50.5 14.5q-32 0 -49.5 -14.5t-17.5 -38.5t17.5 -39 t49.5 -15zM325 -138q39 0 60.5 17.5t21.5 46.5q0 31 -21 49.5t-60 18.5t-61 -18.5t-22 -49.5q0 -30 22 -47t60 -17z" glyph-name="seveneighths" unicode="⅞"/><glyph d="M462 416q-9 58 -29 101.5t-51.5 73.5t-76 49t-102.5 30v81q98 -13 166 -50.5t110 -96t61 -135.5t19 -169q0 -58 -15 -114.5t-46 -101t-79.5 -72t-114.5 -27.5q-51 0 -92 17t-69.5 46.5t-43.5 69.5t-15 87q0 57 18 107t50.5 87t77.5 58t99 21q38 0 73.5 -16.5t59.5 -45.5z M306 62q37 0 66 17t49 45.5t31 64t11 73.5q0 62 -33 101t-96 39q-35 0 -64 -14.5t-49.5 -40t-31.5 -62t-11 -79.5q0 -63 32 -103.5t96 -40.5z" glyph-name="partialdiff" unicode="∂"/><glyph d="M81 78l183 666h120l185 -667v-77h-488v78zM461 83l-102 395q-8 27 -14 56.5t-11 54.5q-5 29 -10 57h-2q-5 -29 -11 -58q-5 -25 -11.5 -54.5t-13.5 -55.5l-104 -395h279z" glyph-name="Delta" unicode="∆"/><glyph d="M552 744v-848h-103v758h-249v-758h-102v848h454z" glyph-name="product" unicode="∏"/><glyph d="M82 -104v99l253 333v2l-253 320v94h479v-87h-359v-2l240 -302v-42l-247 -323v-2h376v-90h-489z" glyph-name="summation" unicode="∑"/><glyph d="M87 376h475v-73h-475v73z" glyph-name="minus" unicode="−"/><glyph d="M46 326h123l71 -186q11 -30 21 -61t18 -56q9 -29 16 -56h2q6 27 13 56q6 25 14.5 55.5t17.5 60.5l182 605h97l-266 -848h-116l-135 343h-58v87z" glyph-name="radical" unicode="√"/><glyph d="M183 136q-32 0 -55.5 15t-39.5 39.5t-24 57.5t-8 69t8 68.5t24 57.5t40 39.5t55 14.5q25 0 45.5 -9.5t38.5 -26t32.5 -38.5t27.5 -47q13 25 27.5 47t31.5 38.5t37 26t44 9.5q57 0 92 -49.5t35 -130.5q0 -41 -9 -74t-26 -57t-40.5 -37t-51.5 -13q-24 0 -44 9.5t-37 26 t-31.5 39t-27.5 47.5q-13 -25 -27.5 -47.5t-32.5 -39t-38.5 -26t-45.5 -9.5zM462 213q15 0 25 8.5t16 23t9 33t3 39.5t-3 39.5t-9 32.5t-16 22.5t-25 8.5q-14 0 -25.5 -9t-21.5 -23.5t-19 -33t-17 -38.5q8 -19 17 -37.5t19 -33t21.5 -23.5t25.5 -9zM189 420 q-15 0 -25.5 -8.5t-16.5 -22.5t-9 -32.5t-3 -39.5t3 -39.5t9 -33t16.5 -23t25.5 -8.5q13 0 25.5 9t23 23.5t20 33t17.5 37.5q-8 20 -17.5 38.5t-20 33t-23 23.5t-25.5 9z" glyph-name="infinity" unicode="∞"/><glyph d="M271 606q0 39 11 66t31 44.5t47.5 25t59.5 7.5q44 0 76 -9v-78h-3q-8 3 -22.5 6t-35.5 3q-71 0 -71 -73v-642q0 -39 -11.5 -66t-31.5 -44t-47 -24.5t-59 -7.5q-24 0 -42.5 2.5t-33.5 7.5v78h3q8 -3 22.5 -6.5t35.5 -3.5q71 0 71 73v641z" glyph-name="integral" unicode="∫"/><glyph d="M455 359q-31 0 -67 6.5t-71.5 14t-67 14t-53.5 6.5q-44 0 -46 -49h-71q2 60 33.5 91t81.5 31q32 0 68 -6.5t70.5 -14t64.5 -14t51 -6.5q26 0 37.5 12.5t12.5 35.5h72q-2 -55 -30 -88t-85 -33zM455 177q-31 0 -67 6.5t-71.5 14t-67 14t-53.5 6.5q-44 0 -46 -49h-71 q2 60 33.5 91t81.5 31q32 0 68 -6.5t70.5 -14t64.5 -14t51 -6.5q26 0 37.5 12.5t12.5 35.5h72q-2 -55 -30 -88t-85 -33z" glyph-name="approxequal" unicode="≈"/><glyph d="M294 196l-62 -123h-71l62 123h-135v73h172l58 113h-230v73h267l62 123h71l-62 -123h135v-73h-172l-58 -113h230v-73h-267z" glyph-name="notequal" unicode="≠"/><glyph d="M111 287v97l424 166v-83l-229 -85q-20 -8 -43.5 -15.5t-43.5 -14.5q-24 -8 -47 -15v-2q23 -7 47 -15q20 -7 43.5 -14.5t43.5 -14.5l229 -86v-84zM111 73h424v-73h-424v73z" glyph-name="lessequal" unicode="≤"/><glyph d="M115 121v84l229 86q20 7 43 14.5t43 14.5q24 8 48 15v2q-24 7 -48 15q-20 7 -43 14.5t-43 15.5l-229 85v83l424 -166v-97zM539 0h-424v73h424v-73z" glyph-name="greaterequal" unicode="≥"/><glyph d="M325 120q-54 0 -101 20t-82.5 55t-55.5 83t-20 105t20 105.5t55.5 83.5t82.5 55t101 20t101 -20t82 -55t55 -83.5t20 -105.5t-20 -105t-55 -83t-82 -55t-101 -20zM325 155q47 0 87 17.5t69.5 48t46 72t16.5 90.5q0 50 -16.5 92t-46 73t-69.5 47.5t-87 16.5t-87 -16.5 t-69 -47.5t-45.5 -73t-16.5 -92q0 -49 16.5 -90.5t45.5 -72t69 -48t87 -17.5zM289 390h63q25 0 36.5 12t11.5 33q0 45 -47 45h-64v-90zM289 346v-101h-55v281h125q49 0 73 -26q23 -26 23 -64q0 -41 -24.5 -65.5t-69.5 -24.5h-72z" glyph-name="uni24C5" unicode="Ⓟ"/><glyph d="M579 371l-200 -371h-107l-201 373l200 371h107zM268 189q15 -29 26 -51.5t18 -39.5q8 -19 13 -34h2q5 15 13 34q7 17 17 39.5t26 51.5l94 179l-96 186q-16 29 -26.5 51.5t-17.5 39.5q-8 19 -13 34h-2q-5 -15 -13 -34q-7 -17 -17.5 -39.5t-25.5 -51.5l-94 -179z" glyph-name="lozenge" unicode="◊"/><glyph d="M325 -119q-37 0 -68.5 14.5t-54 40.5t-35 63.5t-12.5 83.5t13 83t36 63t54 40t67 14q37 0 68.5 -14t54 -39.5t35.5 -63t13 -83.5t-12.5 -83.5t-35 -63.5t-54 -40.5t-69.5 -14.5zM325 -58q48 0 70 38.5t22 102.5q0 61 -23 100.5t-69 39.5q-45 0 -68 -38.5t-23 -101.5 t23 -102t68 -39z" glyph-name="zero.denominator" unicode=""/><glyph d="M320 152h-95v51q42 2 71.5 18t35.5 57h64v-388h-76v262z" glyph-name="one.denominator" unicode=""/><glyph d="M178 -110q1 31 11 55.5t26 44t35.5 35t39.5 29.5q20 13 38.5 24.5t32.5 23t22.5 25.5t8.5 32q0 28 -17 44.5t-47 16.5q-32 0 -50.5 -20.5t-19.5 -55.5h-72q0 64 39.5 101t106.5 37q31 0 56.5 -9.5t43.5 -26t27.5 -38.5t9.5 -47q0 -26 -8.5 -45t-22 -34t-31 -26.5 t-35.5 -23.5q-14 -9 -29 -18t-29 -19t-25.5 -20.5t-16.5 -22.5h196v-62h-290v0z" glyph-name="two.denominator" unicode=""/><glyph d="M327 -119q-75 0 -117 37t-42 96h71q2 -32 22 -52.5t62 -20.5q35 0 55 16t20 48q0 60 -80 60h-24v56h22q35 0 53.5 13.5t18.5 38.5q0 26 -17.5 40t-46.5 14q-35 0 -53 -19.5t-20 -47.5h-72q2 54 40 88.5t107 34.5q60 0 97.5 -28t37.5 -79q0 -31 -18 -50t-51 -29v-1 q83 -19 83 -96q0 -30 -11.5 -52t-32 -37t-47.5 -22.5t-57 -7.5z" glyph-name="three.denominator" unicode=""/><glyph d="M218 29l22 2q9 1 19.5 1.5t19.5 0.5h79v101q0 10 0.5 21.5t2.5 22.5q1 12 3 24h-3q-8 -11 -15 -22q-7 -9 -14 -19t-14 -18l-53 -63q-7 -8 -14.5 -16t-15.5 -16l-17 -17v-2zM432 -24v-86h-74v86h-191v71l191 232h74v-246h61v-57h-61z" glyph-name="four.denominator" unicode=""/><glyph d="M324 -119q-65 0 -107 31.5t-48 82.5h75q6 -24 26 -38.5t52 -14.5q34 0 55 21t21 54q0 36 -22 55.5t-54 19.5q-24 0 -42 -8.5t-29 -20.5h-68l40 211h228v-62h-178l-18 -95h2q14 15 35 24t49 9q27 0 51 -9t42.5 -26t29 -41.5t10.5 -55.5t-11.5 -56t-31.5 -43t-47.5 -28 t-59.5 -10z" glyph-name="five.denominator" unicode=""/><glyph d="M336 -119q-38 0 -66 12t-48 33q-26 27 -38 65.5t-12 90.5q0 46 10 83.5t32 65.5q21 26 50.5 39t70.5 13q60 0 94 -29.5t42 -71.5h-75q-4 17 -17.5 30.5t-42.5 13.5q-44 0 -65.5 -32.5t-24.5 -94.5h1q17 25 41.5 38t58.5 13q27 0 51.5 -10t43 -27.5t29 -42t10.5 -53.5 q0 -30 -11 -55t-30.5 -43t-46 -28t-57.5 -10zM333 -60q32 0 53.5 21t21.5 55q0 33 -21.5 54t-53.5 21q-36 0 -57.5 -21t-21.5 -54q0 -34 22.5 -55t56.5 -21z" glyph-name="six.denominator" unicode=""/><glyph d="M244 -109q2 51 16 98t35.5 87.5t48.5 74.5t57 60v3q-9 -1 -23 -2q-12 -1 -30 -1.5t-42 -0.5h-122v65h287v-60q-27 -26 -52.5 -60t-45.5 -75t-32.5 -88.5t-15.5 -100.5h-81z" glyph-name="seven.denominator" unicode=""/><glyph d="M327 -119q-32 0 -61.5 7.5t-52 22.5t-35.5 37t-13 52q0 38 22.5 62.5t58.5 36.5v2q-61 24 -61 78q0 48 39.5 76t100.5 28q62 0 101 -27t39 -74q0 -57 -61 -80v-2q38 -11 59.5 -36.5t21.5 -60.5q0 -31 -12.5 -54t-34.5 -38t-50.5 -22.5t-60.5 -7.5zM325 122q33 0 50.5 15 t17.5 39t-17.5 38.5t-50.5 14.5q-32 0 -49.5 -14.5t-17.5 -38.5t17.5 -39t49.5 -15zM325 -61q39 0 60.5 17.5t21.5 46.5q0 31 -21 49.5t-60 18.5t-61 -18.5t-22 -49.5q0 -30 22 -47t60 -17z" glyph-name="eight.denominator" unicode=""/><glyph d="M321 73q36 0 57.5 21.5t21.5 53.5q0 33 -22 55t-57 22q-34 0 -55.5 -22t-21.5 -54q0 -33 21.5 -54.5t55.5 -21.5zM322 -119q-61 0 -99 30t-44 74h75q4 -17 20 -31.5t46 -14.5q39 0 60 27q23 29 26 96h-1q-17 -22 -41 -34.5t-56 -12.5q-29 0 -53.5 10t-43.5 27.5t-30 42 t-11 53.5t11.5 54t31.5 43t47.5 28t59.5 10t57.5 -9t45.5 -25q31 -25 44 -66t13 -101q0 -51 -11.5 -92t-37.5 -67q-40 -42 -109 -42z" glyph-name="nine.denominator" unicode=""/><glyph d="M325 351q-37 0 -68.5 14.5t-54 40.5t-35 63.5t-12.5 83.5t13 83t36 63t54 40t67 14q37 0 68.5 -14t54 -39.5t35.5 -63t13 -83.5t-12.5 -83.5t-35 -63.5t-54 -40.5t-69.5 -14.5zM325 412q48 0 70 38.5t22 102.5q0 61 -23 100.5t-69 39.5q-45 0 -68 -38.5t-23 -101.5 t23 -102t68 -39z" glyph-name="zero.numerator" unicode=""/><glyph d="M320 622h-95v51q42 2 71.5 18t35.5 57h64v-388h-76v262z" glyph-name="one.numerator" unicode=""/><glyph d="M178 360q1 31 11 55.5t26 44t35.5 35t39.5 29.5q20 13 38.5 24.5t32.5 23t22.5 25.5t8.5 32q0 28 -17 44.5t-47 16.5q-32 0 -50.5 -20.5t-19.5 -55.5h-72q0 64 39.5 101t106.5 37q31 0 56.5 -9.5t43.5 -26t27.5 -38.5t9.5 -47q0 -26 -8.5 -45t-22 -34t-31 -26.5 t-35.5 -23.5q-14 -9 -29 -18t-29 -19t-25.5 -20.5t-16.5 -22.5h196v-62h-290v0z" glyph-name="two.numerator" unicode=""/><glyph d="M327 351q-75 0 -117 37t-42 96h71q2 -32 22 -52.5t62 -20.5q35 0 55 16t20 48q0 60 -80 60h-24v56h22q35 0 53.5 13.5t18.5 38.5q0 26 -17.5 40t-46.5 14q-35 0 -53 -19.5t-20 -47.5h-72q2 54 40 88.5t107 34.5q60 0 97.5 -28t37.5 -79q0 -31 -18 -50t-51 -29v-1 q83 -19 83 -96q0 -30 -11.5 -52t-32 -37t-47.5 -22.5t-57 -7.5z" glyph-name="three.numerator" unicode=""/><glyph d="M218 499l22 2q9 1 19.5 1.5t19.5 0.5h79v101q0 10 0.5 21.5t2.5 22.5q1 12 3 24h-3q-8 -11 -15 -22q-7 -9 -14 -19t-14 -18l-53 -63q-7 -8 -14.5 -16t-15.5 -16l-17 -17v-2zM432 446v-86h-74v86h-191v71l191 232h74v-246h61v-57h-61z" glyph-name="four.numerator" unicode=""/><glyph d="M324 351q-65 0 -107 31.5t-48 82.5h75q6 -24 26 -38.5t52 -14.5q34 0 55 21t21 54q0 36 -22 55.5t-54 19.5q-24 0 -42 -8.5t-29 -20.5h-68l40 211h228v-62h-178l-18 -95h2q14 15 35 24t49 9q27 0 51 -9t42.5 -26t29 -41.5t10.5 -55.5t-11.5 -56t-31.5 -43t-47.5 -28 t-59.5 -10z" glyph-name="five.numerator" unicode=""/><glyph d="M336 351q-38 0 -66 12t-48 33q-26 27 -38 65.5t-12 90.5q0 46 10 83.5t32 65.5q21 26 50.5 39t70.5 13q60 0 94 -29.5t42 -71.5h-75q-4 17 -17.5 30.5t-42.5 13.5q-44 0 -65.5 -32.5t-24.5 -94.5h1q17 25 41.5 38t58.5 13q27 0 51.5 -10t43 -27.5t29 -42t10.5 -53.5 q0 -30 -11 -55t-30.5 -43t-46 -28t-57.5 -10zM333 410q32 0 53.5 21t21.5 55q0 33 -21.5 54t-53.5 21q-36 0 -57.5 -21t-21.5 -54q0 -34 22.5 -55t56.5 -21z" glyph-name="six.numerator" unicode=""/><glyph d="M244 360q2 51 16 98t35.5 87.5t48.5 74.5t57 60v3q-9 -1 -23 -2q-12 -1 -30 -1.5t-42 -0.5h-122v65h287v-60q-27 -26 -52.5 -60t-45.5 -75t-32.5 -88.5t-15.5 -100.5h-81z" glyph-name="seven.numerator" unicode=""/><glyph d="M327 351q-32 0 -61.5 7.5t-52 22.5t-35.5 37t-13 52q0 38 22.5 62.5t58.5 36.5v2q-61 24 -61 78q0 48 39.5 76t100.5 28q62 0 101 -27t39 -74q0 -57 -61 -80v-2q38 -11 59.5 -36.5t21.5 -60.5q0 -31 -12.5 -54t-34.5 -38t-50.5 -22.5t-60.5 -7.5zM325 592q33 0 50.5 15 t17.5 39t-17.5 38.5t-50.5 14.5q-32 0 -49.5 -14.5t-17.5 -38.5t17.5 -39t49.5 -15zM325 409q39 0 60.5 17.5t21.5 46.5q0 31 -21 49.5t-60 18.5t-61 -18.5t-22 -49.5q0 -30 22 -47t60 -17z" glyph-name="eight.numerator" unicode=""/><glyph d="M321 543q36 0 57.5 21.5t21.5 53.5q0 33 -22 55t-57 22q-34 0 -55.5 -22t-21.5 -54q0 -33 21.5 -54.5t55.5 -21.5zM322 351q-61 0 -99 30t-44 74h75q4 -17 20 -31.5t46 -14.5q39 0 60 27q23 29 26 96h-1q-17 -22 -41 -34.5t-56 -12.5q-29 0 -53.5 10t-43.5 27.5t-30 42 t-11 53.5t11.5 54t31.5 43t47.5 28t59.5 10t57.5 -9t45.5 -25q31 -25 44 -66t13 -101q0 -51 -11.5 -92t-37.5 -67q-40 -42 -109 -42z" glyph-name="nine.numerator" unicode=""/><glyph d="M27 596h596v-596h-596v596zM124 239h140v-141h120v141h140v119h-140v136h-120v-136h-140v-119z" glyph-name="uniF8FF" unicode=""/><glyph d="M313 744h103v-108h-103v108zM318 0v456h-157v81h250v-537h-93z" glyph-name="idotaccent"/><glyph d="M379 -141q0 -51 -29 -76.5t-80 -27.5v44q28 4 41.5 16t13.5 38h-54v96h108v-90z" glyph-name="space_uni0326"/><glyph d="M376 661q0 -51 -28 -76.5t-74 -27.5v44q26 4 37 17t11 37h-46v89h100v-83z" glyph-name="caron.alt"/><glyph d="M271 726q0 51 29 76.5t80 27.5v-44q-28 -4 -41.5 -16t-13.5 -38h54v-96h-108v90z" glyph-name="space_uni0326.alt"/><glyph d="M204 910h114l53 -125h-78z" glyph-name="grave.cap"/><glyph d="M332 910h114l-89 -125h-78z" glyph-name="acute.cap"/><glyph d="M275 898h103l98 -113h-96l-54 61h-2l-56 -61h-94z" glyph-name="circumflex.cap"/><glyph d="M390 786q-20 0 -37.5 6t-33 13.5t-29 13.5t-23.5 6q-12 0 -19.5 -11.5t-9.5 -26.5h-64q2 52 24 79.5t60 27.5q21 0 37.5 -6t31 -13.5t27.5 -13.5t27 -6q15 0 20.5 11.5t7.5 25.5h64q-2 -50 -21.5 -78t-61.5 -28z" glyph-name="tilde.cap"/><glyph d="M177 893h94v-108h-94v108zM379 893h94v-108h-94v108z" glyph-name="dieresis.cap"/><glyph d="M325 768q-21 0 -40 8t-33 21.5t-22 32t-8 39.5t8 39t22 31.5t33 21t40 7.5t39.5 -7.5t32.5 -21t22 -31.5t8 -39t-8 -39.5t-22 -32t-32.5 -21.5t-39.5 -8zM325 810q24 0 39.5 16.5t15.5 42.5q0 25 -15.5 41.5t-39.5 16.5q-25 0 -40.5 -16.5t-15.5 -41.5q0 -26 15.5 -42.5 t40.5 -16.5z" glyph-name="ring.cap"/><glyph d="M183 870h285v-75h-285v75z" glyph-name="macron.cap"/><glyph d="M344 780q-55 0 -94 34t-42 94h66q5 -28 21 -43.5t48 -15.5q31 0 49.5 15.5t22.5 43.5h65q-1 -27 -11 -50.5t-28 -40.5t-42.5 -27t-54.5 -10z" glyph-name="breve.cap"/><glyph d="M277 893h97v-108h-97v108z" glyph-name="dotaccent.cap"/><glyph d="M375 785h-103l-98 113h96l54 -61h2l56 61h94z" glyph-name="caron.cap"/><glyph d="M230 910h99l-58 -125h-71zM377 910h97l-59 -125h-69z" glyph-name="hungarumlaut.cap"/><glyph d="M175 378h300v-96h-300v96z" glyph-name="hyphen.cap"/><glyph d="M100 370h450v-80h-450v80z" glyph-name="endash.cap"/><glyph d="M30 370h590v-80h-590v80z" glyph-name="emdash.cap"/><glyph d="M379 -95q-87 96 -135 209.5t-48 259.5q0 137 50.5 247.5t132.5 192.5h90q-78 -88 -124 -198.5t-46 -241.5q0 -69 11 -131.5t32.5 -119.5t53 -111t73.5 -107h-90v0z" glyph-name="parenleft.cap"/><glyph d="M214 814h268v-74h-174v-757h174v-78h-268v909z" glyph-name="bracketleft.cap"/><glyph d="M420 -95q-82 0 -125.5 38t-43.5 133v149q0 25 -5 43.5t-19.5 31t-40.5 19t-67 7.5v75q41 1 67 7.5t40.5 18.5t19.5 30.5t5 43.5v145q0 48 11 80t32.5 51.5t53 28t72.5 8.5h91v-74h-88q-41 0 -59 -19.5t-18 -75.5v-151q0 -57 -22 -88.5t-61 -40.5v-3q39 -11 61 -42t22 -87 v-156q0 -28 4.5 -46t13.5 -28.5t23.5 -15t35.5 -4.5h88v-78h-91v0z" glyph-name="braceleft.cap"/><glyph d="M181 -95q42 53 73.5 107t53 111t32.5 119.5t11 131.5q0 131 -46 241.5t-124 198.5h90q82 -82 132.5 -192.5t50.5 -247.5q0 -146 -48 -259.5t-135 -209.5h-90z" glyph-name="parenright.cap"/><glyph d="M167 -17h173v757h-173v74h269v-909h-269v78z" glyph-name="bracketright.cap"/><glyph d="M139 -95v78h88q21 0 35.5 4.5t23.5 15t13.5 28.5t4.5 46v156q0 56 22 87t61 42v3q-39 9 -61 40.5t-22 88.5v151q0 56 -18 75.5t-59 19.5h-88v74h91q41 0 72.5 -8.5t53 -28t32.5 -51.5t11 -80v-145q0 -25 5 -43.5t19.5 -30.5t40.5 -18.5t67 -7.5v-75q-41 -1 -67 -7.5 t-40.5 -19t-19.5 -31t-5 -43.5v-149q0 -95 -43.5 -133t-125.5 -38h-91z" glyph-name="braceright.cap"/><glyph d="M146 284v97l150 150v-108l-92 -89v-2l92 -90v-108zM354 284v97l149 150v-108l-91 -89v-2l91 -90v-108z" glyph-name="guillemotleft.cap"/><glyph d="M243 283v98l164 151v-109l-103 -89v-2l103 -91v-108z" glyph-name="guilsinglleft.cap"/><glyph d="M353 134v108l92 90v2l-92 89v108l150 -150v-97zM146 134v108l91 90v2l-91 89v108l149 -150v-97z" glyph-name="guillemotright.cap"/><glyph d="M407 381v-98l-164 -150v108l103 90v2l-103 91v108z" glyph-name="guilsinglright.cap"/><glyph d="M380 634h-109v110h109v-110zM376 233v-233h-101v233l25 295h51z" glyph-name="exclamdown.cap"/><glyph d="M394 634h-109v110h109v-110zM382 528q0 -38 -6 -66t-19 -52t-33 -45.5t-48 -46.5q-17 -15 -33 -29.5t-28 -30t-19.5 -34.5t-7.5 -43q0 -48 34 -80t97 -32q39 0 68 12t48.5 33.5t30 50.5t12.5 63h93q-1 -45 -16.5 -88.5t-46.5 -77.5t-78 -54.5t-112 -20.5q-53 0 -95.5 15 t-72 40.5t-45 60.5t-15.5 76q0 31 7.5 55.5t20.5 44.5t30 37t35 32q33 27 54 46.5t34 37.5q14 19 19 41t6 55h86z" glyph-name="questiondown.cap"/><glyph d="M324 87q-54 0 -101 20.5t-82.5 56t-55.5 82.5t-20 101t20 101.5t55.5 82.5t82.5 55.5t101 20.5t101.5 -20.5t83 -55.5t56 -82.5t20.5 -101.5t-20.5 -101t-56 -82.5t-83 -56t-101.5 -20.5zM225 214h129q41 0 66 20q26 20 26 58q0 24 -13.5 41t-39.5 23v2q42 13 42 53 q0 30 -22 51q-23 18 -62 18h-126v-266zM286 373v60h57q34 0 34 -30q0 -15 -9.5 -22.5t-25.5 -7.5h-56zM286 262v69h61q17 0 28 -9t11 -26q0 -16 -10 -24q-12 -10 -28 -10h-62z" glyph-name="endslug"/></font>
</defs>
</svg>
